<svg width="546" height="130" viewBox="0 0 546 130" fill="none" xmlns="http://www.w3.org/2000/svg">
<path d="M85.924 30.4713C86.514 30.5601 86.788 31.2533 86.417 31.7211L81.971 37.3384C76.659 44.0498 73.769 52.3586 73.769 60.9179V63.7508C73.769 64.3495 73.422 64.894 72.88 65.1472L71.0875 65.9835C63.9945 69.2932 58.2932 74.9946 54.9826 82.0884L54.1462 83.8805C53.8931 84.423 53.3486 84.7697 52.7499 84.7697H49.917C41.3577 84.7697 33.0489 87.66 26.3375 92.972L20.7211 97.418C20.2533 97.788 19.5601 97.514 19.4712 96.924L15.8959 73.1888C13.7299 58.8091 8.64129 45.0254 0.943788 32.6877C0.256988 31.5868 0.420387 30.1578 1.33779 29.2403L18.2403 12.3379C19.1577 11.4204 20.5868 11.2571 21.6877 11.9439C34.0254 19.6413 47.8091 24.7299 62.1888 26.8959L85.924 30.4713Z" fill="#107A4D"/>
<path d="M49.9187 93.141C50.2712 93.141 50.5602 93.421 50.5721 93.773L50.7165 98.056C51.0012 106.445 51.2845 114.835 51.5677 123.225C51.6187 124.737 49.6883 125.409 48.7888 124.193C44.9264 118.971 41.0638 113.748 37.2 108.527L31.3843 100.663C31.1221 100.309 31.1884 99.81 31.5342 99.537C33.8311 97.719 36.383 96.261 39.0889 95.2C39.8166 94.914 40.557 94.656 41.3066 94.429C44.0862 93.582 46.9915 93.141 49.9187 93.141Z" fill="#107A4D"/>
<path d="M83.43 62.0052V61.9979L83.178 61.9894C82.6 61.9698 82.142 61.4958 82.142 60.9178C82.142 57.9906 82.583 55.0853 83.43 52.3057C83.657 51.5561 83.914 50.8166 84.2 50.0889L84.202 50.0871C85.085 47.8358 86.342 45.565 87.785 43.5432C88.269 42.8666 89.212 42.7436 89.88 43.2381L99.003 49.986C103.6 53.3872 108.197 56.7873 112.794 60.1876C114.01 61.0871 113.338 63.0175 111.826 62.9665C102.36 62.6467 92.895 62.3263 83.43 62.0052Z" fill="#107A4D"/>
<path d="M78.695 71.6736C79.44 71.3256 80.328 71.6247 80.71 72.3531C87.089 84.4903 93.468 96.628 99.847 108.765C100.55 110.104 99.105 111.55 97.766 110.846C93.037 108.361 88.307 105.875 83.578 103.39L61.3531 91.71C60.6247 91.328 60.3256 90.44 60.6736 89.695L62.571 85.6295C63.8051 82.9856 65.4754 80.5994 67.5374 78.5374C69.5994 76.4755 71.9864 74.8043 74.629 73.5711L78.695 71.6736Z" fill="#107A4D"/>
<path d="M170.64 129.84C151.74 129.84 140.12 120.6 138.72 105.9H152.86C153.7 113.6 160 118.5 170.92 118.5C182.96 118.5 189.68 112.62 189.68 99.46V87.28C184.64 95.82 177.08 100.58 166.86 100.58C149.92 100.58 136.76 87.84 136.76 65.16C136.76 42.34 149.92 29.6 166.86 29.6C177.08 29.6 184.78 34.5 189.82 43.18V31H203.96V98.62C203.96 118.5 191.64 129.84 170.64 129.84ZM151.46 66.98C151.46 80.98 158.88 88.68 170.64 88.68C182.68 88.68 189.68 80.56 189.68 67.96V62.36C189.68 49.48 182.68 41.22 170.64 41.22C158.88 41.22 151.46 49.06 151.46 63.34V66.98ZM213.394 101V31H227.394V43.04C231.734 33.38 238.594 30.3 247.134 30.3H249.934V44.44H241.114C232.014 44.44 227.674 48.64 227.674 58.72V101H213.394ZM284.971 102.4C264.251 102.4 250.111 88.12 250.111 66C250.111 43.88 264.251 29.6 284.411 29.6C303.731 29.6 316.891 42.62 316.891 66V70.06H264.811C264.951 83.08 273.071 90.78 284.971 90.78C294.491 90.78 299.951 85.74 301.631 79.72H315.771C312.971 93.02 301.771 102.4 284.971 102.4ZM264.811 59.56H302.331C302.331 48.22 294.911 41.22 284.131 41.22C273.491 41.22 265.651 47.94 264.811 59.56ZM322.916 129V31H336.916V43.74C341.956 34.64 349.656 29.6 360.156 29.6C377.096 29.6 389.976 42.48 389.976 66C389.976 89.52 377.096 102.4 360.156 102.4C349.796 102.4 342.236 97.5 337.196 88.82V129H322.916ZM337.196 69.36C337.196 82.24 344.056 90.64 356.096 90.64C367.856 90.64 375.416 82.8 375.416 67.96V64.18C375.416 49.06 367.856 41.08 356.096 41.08C344.056 41.08 337.196 49.62 337.196 62.78V69.36ZM415.706 101C402.826 101 398.206 95.54 398.206 84.06V43.32H388.826V31H398.206V13.5L412.486 11.4V31H426.346V43.32H412.486V82.66C412.486 87.56 413.886 88.68 418.506 88.68H426.346V101H415.706ZM431.892 101V31H446.172V101H431.892ZM431.332 18.68H446.592V3.56002H431.332V18.68ZM455.687 101V0.900024H469.967V88.96H476.547V101H455.687ZM513.729 102.4C493.009 102.4 478.869 88.12 478.869 66C478.869 43.88 493.009 29.6 513.169 29.6C532.489 29.6 545.649 42.62 545.649 66V70.06H493.569C493.709 83.08 501.829 90.78 513.729 90.78C523.249 90.78 528.709 85.74 530.389 79.72H544.529C541.729 93.02 530.529 102.4 513.729 102.4ZM493.569 59.56H531.089C531.089 48.22 523.669 41.22 512.889 41.22C502.249 41.22 494.409 47.94 493.569 59.56Z" fill="#107A4D"/>
</svg>
