<svg width="240" height="240" viewBox="0 0 240 240" fill="none" xmlns="http://www.w3.org/2000/svg">
<g clip-path="url(#clip0_569_4034)">
<path d="M215.388 69.8426C186.268 40.7233 138.711 40.7211 109.594 69.8381L56.6987 122.733L109.598 175.632C138.717 204.751 186.268 204.751 215.388 175.632C244.507 146.513 244.507 98.9619 215.388 69.8426ZM199.334 85.8964C219.776 106.338 219.771 139.132 199.329 159.574C194.503 164.432 188.764 168.288 182.442 170.92C176.12 173.551 169.339 174.906 162.491 174.907C155.643 174.907 148.863 173.553 142.541 170.922C136.218 168.292 130.478 164.436 125.652 159.578L88.8107 122.737L125.652 85.8964C146.091 65.4568 178.892 65.4545 199.334 85.8964Z" fill="white"/>
<path d="M207.36 77.8713C213.252 83.7634 217.926 90.7584 221.115 98.4569C224.304 106.155 225.945 114.406 225.945 122.739C225.945 131.072 224.304 139.323 221.115 147.022C217.926 154.72 213.252 161.715 207.36 167.607C195.46 179.507 179.321 186.192 162.492 186.192C145.663 186.192 129.524 179.507 117.624 167.607L72.7564 122.739L117.624 77.8713C129.524 65.9716 145.663 59.2864 162.492 59.2864C179.321 59.2864 195.46 65.9716 207.36 77.8713Z" fill="#C6BDC1"/>
<path d="M21.839 175.63C50.9583 204.749 98.516 204.752 127.633 175.635L180.528 122.74L127.629 69.8405C98.5093 40.7212 50.9583 40.7212 21.839 69.8405C-7.28025 98.9598 -7.28024 146.511 21.839 175.63ZM37.8928 159.576C17.451 139.134 17.4554 106.341 37.8972 85.8987C42.7232 81.0402 48.4624 77.1842 54.7846 74.5528C61.1069 71.9213 67.8871 70.5664 74.7351 70.566C81.5831 70.5656 88.3635 71.9197 94.686 74.5503C101.009 77.181 106.748 81.0363 111.575 85.8942L148.416 122.735L111.575 159.576C91.1353 180.016 58.3346 180.018 37.8928 159.576Z" fill="white"/>
<path d="M29.8665 167.601C23.9743 161.709 19.3004 154.714 16.1116 147.015C12.9228 139.317 11.2816 131.066 11.2816 122.733C11.2816 114.4 12.9228 106.149 16.1116 98.4506C19.3004 90.7522 23.9743 83.7572 29.8665 77.865C41.7662 65.9653 57.9057 59.2802 74.7344 59.2802C91.5631 59.2802 107.703 65.9653 119.602 77.865L164.47 122.733L119.602 167.601C107.703 179.501 91.5631 186.186 74.7344 186.186C57.9056 186.186 41.7662 179.501 29.8665 167.601Z" fill="#66575D"/>
</g>
<defs>
<clipPath id="clip0_569_4034">
<rect width="240" height="240" fill="white"/>
</clipPath>
</defs>
</svg>
