<svg width="120" height="121" viewBox="0 0 120 121" fill="none" xmlns="http://www.w3.org/2000/svg">
<g clip-path="url(#clip0_569_4034)">
<path d="M81.2468 29.7656C89.661 29.7656 97.7306 33.108 103.68 39.0576C106.626 42.0037 108.964 45.5014 110.558 49.3506C112.153 53.1998 112.973 57.3258 112.973 61.4922C112.973 65.6584 112.153 69.7838 110.558 73.6328C108.964 77.482 106.626 80.9797 103.68 83.9258C97.7306 89.8755 89.6611 93.2178 81.2468 93.2178C74.9904 93.2178 68.9257 91.3683 63.78 87.9746C63.7921 87.9626 63.8051 87.9515 63.8171 87.9395L90.2644 61.4922L63.8152 35.043C63.8034 35.0312 63.7909 35.0196 63.7791 35.0078C68.9247 31.6141 74.9903 29.7656 81.2468 29.7656Z" fill="#B8D9FF" fill-opacity="0.8"/>
<path d="M14.9337 83.9227C11.9877 80.9767 9.65071 77.4792 8.05631 73.6299C6.4619 69.7807 5.64128 65.6552 5.64128 61.4888C5.64128 57.3224 6.46191 53.1968 8.05631 49.3476C9.65071 45.4984 11.9877 42.0009 14.9337 39.0548C20.8836 33.105 28.9533 29.7624 37.3677 29.7624C45.782 29.7624 53.8518 33.105 59.8016 39.0548L82.2356 61.4888L59.8016 83.9227C53.8518 89.8726 45.782 93.2152 37.3677 93.2152C28.9533 93.2152 20.8836 89.8726 14.9337 83.9227Z" fill="#B8D9FF" fill-opacity="0.5"/>
<path d="M10.92 35.0425C25.4796 20.4829 49.2549 20.4829 63.8145 35.0425L90.2647 61.4917L63.8164 87.939C49.2579 102.498 25.4796 102.497 10.92 87.937C-3.63966 73.3774 -3.63967 49.6021 10.92 35.0425ZM37.3672 29.7622C28.9531 29.7623 20.8834 33.1046 14.9336 39.0542C11.9876 42.0003 9.6501 45.498 8.0557 49.3472C6.4613 53.1964 5.64066 57.3224 5.64066 61.4888C5.64068 65.6549 6.46145 69.7804 8.0557 73.6294C9.65009 77.4786 11.9876 80.9763 14.9336 83.9224C20.8834 89.8722 28.953 93.2153 37.3672 93.2154C45.7816 93.2154 53.8519 89.8723 59.8018 83.9224L82.2354 61.4888L59.8018 39.0542C53.852 33.1044 45.7816 29.7622 37.3672 29.7622Z" fill="#B8D9FF"/>
<path d="M59.3042 31.1975C73.9077 20.6227 94.5554 21.9048 107.695 35.0442C122.254 49.6038 122.254 73.3792 107.695 87.9387C94.5555 101.078 73.9118 102.357 59.3081 91.7815C60.8732 90.6481 62.3693 89.3796 63.7788 87.9739C68.9246 91.3681 74.9899 93.2189 81.2466 93.219C89.6607 93.2189 97.7314 89.8757 103.681 83.926C106.627 80.9801 108.964 77.4821 110.558 73.6331C112.152 69.7841 112.973 65.6585 112.973 61.4924C112.973 57.3262 112.152 53.2 110.558 49.3508C108.964 45.5019 106.627 42.0038 103.681 39.0579C97.7314 33.1082 89.6607 29.766 81.2466 29.7659C74.9903 29.766 68.9244 31.6145 63.7788 35.0081C62.3681 33.6011 60.8705 32.3317 59.3042 31.1975Z" fill="#B8D9FF"/>
</g>
<defs>
<clipPath id="clip0_569_4034">
<rect width="120" height="120" fill="white" transform="translate(0 0.122314)"/>
</clipPath>
</defs>
</svg>
