<svg width="336" height="126" viewBox="0 0 336 126" fill="none" xmlns="http://www.w3.org/2000/svg">
<g clip-path="url(#clip0_561_7515)">
<path d="M334.394 0L334.379 28.33C334.378 28.4087 334.345 28.4837 334.289 28.5389C334.233 28.5941 334.158 28.625 334.079 28.625H322.319C322.245 28.625 322.173 28.5955 322.121 28.543C322.068 28.4905 322.039 28.4193 322.039 28.345V12.885C322.039 12.816 322.011 12.7499 321.961 12.7012C321.912 12.6524 321.844 12.625 321.774 12.625H305.284C305.21 12.625 305.138 12.5955 305.086 12.543C305.033 12.4905 305.004 12.4193 305.004 12.345L305.139 0H334.394Z" fill="#B8D9FF"/>
<path d="M118.634 28.3801H115.414C111.893 28.3801 109.039 31.2343 109.039 34.7551V37.1551C109.039 40.6759 111.893 43.5301 115.414 43.5301H118.634C122.155 43.5301 125.009 40.6759 125.009 37.1551V34.7551C125.009 31.2343 122.155 28.3801 118.634 28.3801Z" fill="#B8D9FF"/>
<path d="M227.317 28.3779L223.997 28.3721C220.502 28.366 217.663 31.1951 217.656 34.6911L217.652 37.1911C217.646 40.687 220.475 43.526 223.971 43.5321L227.291 43.5379C230.787 43.544 233.626 40.7149 233.632 37.219L233.636 34.719C233.643 31.223 230.813 28.384 227.317 28.3779Z" fill="#B8D9FF"/>
<path d="M245.674 29.1899L258.984 29.1949C259.071 29.1949 259.153 29.2292 259.214 29.2901C259.275 29.3511 259.309 29.4337 259.309 29.5199L259.289 85.5999C259.289 85.6365 259.295 85.6728 259.309 85.7067C259.323 85.7407 259.344 85.7716 259.37 85.7976C259.396 85.8237 259.427 85.8444 259.461 85.8585C259.495 85.8727 259.532 85.8799 259.569 85.8799H265.134C265.209 85.8799 265.28 85.9094 265.332 85.962C265.385 86.0145 265.414 86.0857 265.414 86.1599V95.9649C265.414 96.0454 265.383 96.1228 265.326 96.1807C265.269 96.2385 265.191 96.2723 265.109 96.2749C257.254 96.5249 248.819 96.8349 246.234 88.6499C245.738 87.0899 245.489 85.4583 245.489 83.7549C245.469 53.9849 245.473 35.8549 245.499 29.3649C245.499 29.3185 245.518 29.274 245.551 29.2412C245.584 29.2084 245.628 29.1899 245.674 29.1899Z" fill="#B8D9FF"/>
<path d="M273.159 29.1951H286.464C286.55 29.1951 286.633 29.2293 286.694 29.2903C286.755 29.3512 286.789 29.4339 286.789 29.5201V85.5951C286.789 85.6312 286.796 85.6669 286.81 85.7003C286.825 85.7337 286.845 85.764 286.871 85.7895C286.897 85.8151 286.928 85.8353 286.962 85.8491C286.996 85.863 287.032 85.8701 287.069 85.8701H292.634C292.708 85.8701 292.78 85.8996 292.832 85.9521C292.885 86.0046 292.914 86.0758 292.914 86.1501V95.9551C292.914 96.0356 292.882 96.113 292.825 96.1708C292.768 96.2287 292.691 96.2625 292.609 96.2651C284.759 96.5151 276.324 96.8301 273.734 88.6451C273.237 87.0851 272.989 85.4534 272.989 83.7501C272.959 53.9867 272.957 35.8601 272.984 29.3701C272.984 29.3471 272.989 29.3243 272.997 29.3031C273.006 29.2819 273.019 29.2626 273.035 29.2463C273.052 29.2301 273.071 29.2172 273.092 29.2084C273.113 29.1996 273.136 29.1951 273.159 29.1951Z" fill="#B8D9FF"/>
<path d="M99.0389 64.63C99.0389 72.89 97.2589 81.175 92.0139 87.42C86.8989 93.505 78.9989 96.24 71.0939 96.275C63.6606 96.3084 55.3122 96.315 46.0489 96.295C46.0091 96.295 45.971 96.2797 45.9428 96.2526C45.9147 96.2254 45.8989 96.1885 45.8989 96.15C45.8722 94.2667 45.8556 83.7667 45.8489 64.65C45.8422 45.5334 45.8506 35.0334 45.8739 33.15C45.8732 33.1306 45.8766 33.1112 45.8838 33.093C45.891 33.0748 45.902 33.0583 45.916 33.0443C45.93 33.0303 45.9467 33.0191 45.9653 33.0115C45.9838 33.0039 46.0038 33 46.0239 33C55.2872 32.9734 63.6356 32.975 71.0689 33.005C78.9739 33.03 86.8789 35.76 91.9989 41.845C97.2439 48.08 99.0339 56.365 99.0389 64.63ZM60.0389 45.38V83.88C60.0389 83.905 60.0438 83.9297 60.0534 83.9527C60.0629 83.9758 60.0769 83.9967 60.0946 84.0144C60.1122 84.032 60.1331 84.046 60.1562 84.0556C60.1792 84.0651 60.204 84.07 60.2289 84.07H71.5989C74.8955 84.07 78.0572 82.7315 80.3882 80.3488C82.7193 77.9662 84.0289 74.7346 84.0289 71.365V57.895C84.0289 56.2266 83.7074 54.5745 83.0827 53.033C82.4581 51.4916 81.5425 50.091 80.3882 48.9112C79.234 47.7315 77.8637 46.7956 76.3557 46.1571C74.8476 45.5187 73.2312 45.19 71.5989 45.19H60.2289C60.204 45.19 60.1792 45.1949 60.1562 45.2045C60.1331 45.214 60.1122 45.228 60.0946 45.2457C60.0769 45.2633 60.0629 45.2843 60.0534 45.3073C60.0438 45.3304 60.0389 45.3551 60.0389 45.38Z" fill="#B8D9FF"/>
<path d="M199.474 36.05V48.425C199.474 48.4794 199.495 48.5315 199.533 48.57C199.57 48.6084 199.621 48.63 199.674 48.63H208.899C208.969 48.63 209.037 48.6574 209.087 48.7062C209.136 48.7549 209.164 48.821 209.164 48.89V58.775C209.164 58.8124 209.157 58.8495 209.142 58.8841C209.128 58.9186 209.106 58.9501 209.079 58.9765C209.052 59.003 209.02 59.024 208.985 59.0383C208.95 59.0526 208.912 59.06 208.874 59.06H199.759C199.684 59.06 199.611 59.0906 199.558 59.1449C199.504 59.1993 199.474 59.2731 199.474 59.35V85.52C199.474 85.5982 199.505 85.6733 199.559 85.7286C199.614 85.7839 199.687 85.815 199.764 85.815H208.179C208.257 85.815 208.332 85.8456 208.388 85.8999C208.443 85.9543 208.474 86.0281 208.474 86.105V95.935C208.474 96.015 208.443 96.0919 208.387 96.1489C208.331 96.206 208.254 96.2387 208.174 96.24C206.304 96.2633 203.531 96.2667 199.854 96.25C190.629 96.205 185.679 91.37 185.669 82.19C185.659 75.9367 185.658 68.2867 185.664 59.24C185.664 59.1936 185.645 59.1491 185.611 59.1163C185.578 59.0834 185.532 59.065 185.484 59.065H178.959C178.914 59.065 178.871 59.0466 178.839 59.0137C178.807 58.9809 178.789 58.9364 178.789 58.89L178.784 48.9C178.784 48.838 178.806 48.7779 178.848 48.731C178.889 48.6841 178.947 48.6535 179.009 48.645C180.319 48.47 182.699 48.855 184.139 48.465C186.089 47.935 187.069 46.4483 187.079 44.005C187.093 40.605 187.103 37.9517 187.109 36.045C187.11 35.9663 187.143 35.8913 187.199 35.8361C187.255 35.7809 187.33 35.75 187.409 35.75H199.174C199.214 35.75 199.253 35.7578 199.289 35.7728C199.325 35.7879 199.358 35.81 199.386 35.8379C199.414 35.8657 199.436 35.8988 199.451 35.9352C199.466 35.9716 199.474 36.0106 199.474 36.05Z" fill="#B8D9FF"/>
<path d="M173.284 54.91C173.298 54.9224 173.309 54.9374 173.317 54.9542C173.325 54.971 173.33 54.9893 173.331 55.0079C173.332 55.0266 173.329 55.0452 173.323 55.0627C173.316 55.0803 173.307 55.0963 173.294 55.11L165.589 62.81C165.574 62.8259 165.556 62.8387 165.536 62.8476C165.516 62.8564 165.494 62.8612 165.472 62.8617C165.451 62.8622 165.429 62.8583 165.409 62.8503C165.388 62.8423 165.37 62.8303 165.354 62.815C161.639 59.25 156.079 57.115 150.949 58.35C148.002 59.06 147.032 60.9884 148.039 64.135C148.479 65.5 150.884 66.125 152.354 66.34C157.959 67.165 167.354 67.505 171.819 73.335C175.344 77.945 175.189 84.75 171.984 89.4C166.814 96.9 156.209 98.175 147.974 97.01C142.234 96.1967 137.262 93.55 133.059 89.07C133.006 89.0141 132.978 88.9394 132.98 88.8619C132.981 88.7844 133.014 88.7102 133.069 88.655L140.634 81.09C140.689 81.0337 140.763 81.0011 140.842 80.9992C140.92 80.9974 140.997 81.0264 141.054 81.08C143.571 83.4434 145.701 84.9734 147.444 85.67C151.094 87.1334 154.747 87.36 158.404 86.35C161.274 85.555 162.289 81.245 159.634 79.51C158.761 78.94 157.717 78.59 156.504 78.46C150.974 77.865 145.689 77.435 140.999 74.855C136.329 72.285 134.244 67.835 134.419 62.485C134.624 56.115 138.559 51.37 144.389 49.14C148.804 47.45 153.404 47.335 158.044 47.795C162.279 48.215 166.229 49.46 169.684 52C170.971 52.95 172.171 53.92 173.284 54.91Z" fill="#B8D9FF"/>
<path d="M123.684 48.625H110.384C110.26 48.625 110.159 48.7257 110.159 48.85V96.02C110.159 96.1443 110.26 96.245 110.384 96.245H123.684C123.808 96.245 123.909 96.1443 123.909 96.02V48.85C123.909 48.7257 123.808 48.625 123.684 48.625Z" fill="#B8D9FF"/>
<path d="M232.404 48.6301H218.974C218.869 48.6301 218.784 48.7152 218.784 48.8201V96.0601C218.784 96.1651 218.869 96.2501 218.974 96.2501H232.404C232.509 96.2501 232.594 96.1651 232.594 96.0601V48.8201C232.594 48.7152 232.509 48.6301 232.404 48.6301Z" fill="#B8D9FF"/>
<path d="M30.4091 125.5H1.28412L0.974121 125.175V96.9001L13.0691 96.9101C13.1421 96.9101 13.212 96.9396 13.2636 96.9922C13.3151 97.0447 13.3441 97.1159 13.3441 97.1901V112.67C13.3441 112.697 13.3496 112.724 13.3601 112.749C13.3707 112.773 13.3861 112.796 13.4056 112.815C13.4251 112.834 13.4483 112.849 13.4738 112.86C13.4992 112.87 13.5265 112.875 13.5541 112.875H30.1191C30.1885 112.875 30.2552 112.902 30.3048 112.951C30.3543 113 30.3828 113.066 30.3841 113.135L30.4091 125.5Z" fill="#B8D9FF"/>
</g>
<defs>
<clipPath id="clip0_561_7515">
<rect width="334.5" height="125.5" fill="white" transform="translate(0.974121)"/>
</clipPath>
</defs>
</svg>
