<svg width="669" height="251" viewBox="0 0 669 251" fill="none" xmlns="http://www.w3.org/2000/svg">
<path d="M666.84 0L666.81 56.66C666.807 56.8174 666.743 56.9674 666.631 57.0778C666.519 57.1882 666.367 57.25 666.21 57.25H642.69C642.542 57.25 642.399 57.191 642.294 57.086C642.189 56.981 642.13 56.8385 642.13 56.69V25.77C642.13 25.6321 642.074 25.4998 641.975 25.4023C641.875 25.3048 641.741 25.25 641.6 25.25H608.62C608.472 25.25 608.329 25.191 608.224 25.086C608.119 24.981 608.06 24.8385 608.06 24.69L608.33 0H666.84Z" fill="white"/>
<path d="M235.32 56.76H228.88C221.838 56.76 216.13 62.4684 216.13 69.51V74.31C216.13 81.3516 221.838 87.06 228.88 87.06H235.32C242.362 87.06 248.07 81.3516 248.07 74.31V69.51C248.07 62.4684 242.362 56.76 235.32 56.76Z" fill="white"/>
<path d="M452.686 56.7559L446.046 56.7443C439.055 56.7321 433.377 62.3902 433.364 69.3821L433.356 74.3821C433.343 81.3741 439.002 87.052 445.994 87.0642L452.634 87.0758C459.625 87.088 465.303 81.4298 465.316 74.4379L465.324 69.4379C465.337 62.446 459.678 56.7681 452.686 56.7559Z" fill="white"/>
<path d="M489.4 58.38L516.02 58.39C516.193 58.39 516.358 58.4585 516.48 58.5804C516.602 58.7023 516.67 58.8676 516.67 59.04L516.63 171.2C516.629 171.273 516.642 171.346 516.67 171.414C516.697 171.481 516.738 171.543 516.791 171.595C516.843 171.648 516.905 171.689 516.973 171.717C517.042 171.745 517.116 171.76 517.19 171.76H528.32C528.469 171.76 528.611 171.819 528.716 171.924C528.821 172.029 528.88 172.171 528.88 172.32V191.93C528.88 192.091 528.816 192.246 528.703 192.361C528.589 192.477 528.434 192.545 528.27 192.55C512.56 193.05 495.69 193.67 490.52 177.3C489.527 174.18 489.03 170.917 489.03 167.51C488.99 107.97 488.997 71.71 489.05 58.73C489.05 58.6372 489.087 58.5482 489.153 58.4825C489.218 58.4169 489.307 58.38 489.4 58.38Z" fill="white"/>
<path d="M544.37 58.39H570.98C571.152 58.39 571.318 58.4585 571.44 58.5804C571.562 58.7023 571.63 58.8676 571.63 59.04V171.19C571.63 171.262 571.645 171.334 571.673 171.4C571.701 171.467 571.742 171.528 571.794 171.579C571.846 171.63 571.908 171.671 571.976 171.698C572.044 171.726 572.117 171.74 572.19 171.74H583.32C583.469 171.74 583.611 171.799 583.716 171.904C583.821 172.009 583.88 172.151 583.88 172.3V191.91C583.88 192.071 583.816 192.226 583.702 192.341C583.589 192.457 583.434 192.525 583.27 192.53C567.57 193.03 550.7 193.66 545.52 177.29C544.527 174.17 544.03 170.907 544.03 167.5C543.97 107.973 543.967 71.72 544.02 58.74C544.02 58.6941 544.029 58.6485 544.047 58.6061C544.064 58.5636 544.09 58.525 544.123 58.4925C544.155 58.46 544.194 58.4342 544.236 58.4167C544.279 58.3991 544.324 58.39 544.37 58.39Z" fill="white"/>
<path d="M196.13 129.26C196.13 145.78 192.57 162.35 182.08 174.84C171.85 187.01 156.05 192.48 140.24 192.55C125.373 192.617 108.677 192.63 90.1501 192.59C90.0705 192.59 89.9942 192.559 89.9379 192.505C89.8817 192.451 89.85 192.377 89.85 192.3C89.7967 188.533 89.7634 167.533 89.75 129.3C89.7367 91.0667 89.7534 70.0667 89.8001 66.3001C89.7987 66.2611 89.8054 66.2224 89.8199 66.186C89.8343 66.1497 89.8562 66.1165 89.8842 66.0885C89.9122 66.0605 89.9457 66.0382 89.9828 66.0231C90.0199 66.0079 90.0598 66 90.1 66C108.627 65.9467 125.323 65.9501 140.19 66.0101C156 66.0601 171.81 71.5201 182.05 83.6901C192.54 96.1601 196.12 112.73 196.13 129.26ZM118.13 90.76V167.76C118.13 167.81 118.14 167.859 118.159 167.905C118.178 167.952 118.206 167.993 118.241 168.029C118.277 168.064 118.319 168.092 118.365 168.111C118.411 168.13 118.46 168.14 118.51 168.14H141.25C147.843 168.14 154.167 165.463 158.829 160.698C163.491 155.932 166.11 149.469 166.11 142.73V115.79C166.11 112.453 165.467 109.149 164.218 106.066C162.968 102.983 161.137 100.182 158.829 97.8225C156.52 95.4629 153.78 93.5912 150.764 92.3143C147.747 91.0373 144.515 90.38 141.25 90.38H118.51C118.46 90.38 118.411 90.3899 118.365 90.409C118.319 90.4281 118.277 90.4561 118.241 90.4914C118.206 90.5266 118.178 90.5685 118.159 90.6146C118.14 90.6607 118.13 90.7101 118.13 90.76Z" fill="white"/>
<path d="M397 72.1V96.85C397 96.9587 397.042 97.063 397.117 97.1399C397.192 97.2168 397.294 97.26 397.4 97.26H415.85C415.991 97.26 416.126 97.3148 416.225 97.4123C416.324 97.5098 416.38 97.6421 416.38 97.78V117.55C416.38 117.625 416.365 117.699 416.336 117.768C416.307 117.837 416.264 117.9 416.21 117.953C416.156 118.006 416.092 118.048 416.022 118.077C415.952 118.105 415.876 118.12 415.8 118.12H397.57C397.419 118.12 397.274 118.181 397.167 118.29C397.06 118.399 397 118.546 397 118.7V171.04C397 171.196 397.061 171.347 397.17 171.457C397.279 171.568 397.426 171.63 397.58 171.63H414.41C414.567 171.63 414.717 171.691 414.827 171.8C414.938 171.909 415 172.056 415 172.21V191.87C415 192.03 414.937 192.184 414.825 192.298C414.713 192.412 414.56 192.477 414.4 192.48C410.66 192.527 405.113 192.533 397.76 192.5C379.31 192.41 369.41 182.74 369.39 164.38C369.37 151.873 369.367 136.573 369.38 118.48C369.38 118.387 369.342 118.298 369.275 118.233C369.207 118.167 369.116 118.13 369.02 118.13H355.97C355.88 118.13 355.793 118.093 355.73 118.027C355.666 117.962 355.63 117.873 355.63 117.78L355.62 97.8C355.619 97.676 355.664 97.5559 355.747 97.462C355.83 97.3681 355.945 97.307 356.07 97.29C358.69 96.94 363.45 97.71 366.33 96.93C370.23 95.87 372.19 92.8967 372.21 88.01C372.237 81.21 372.257 75.9033 372.27 72.09C372.273 71.9326 372.337 71.7826 372.449 71.6722C372.562 71.5618 372.713 71.5 372.87 71.5H396.4C396.479 71.5 396.557 71.5155 396.63 71.5457C396.703 71.5758 396.769 71.62 396.824 71.6757C396.88 71.7315 396.924 71.7976 396.954 71.8704C396.985 71.9432 397 72.0212 397 72.1Z" fill="white"/>
<path d="M344.62 109.82C344.648 109.845 344.671 109.875 344.687 109.908C344.703 109.942 344.712 109.979 344.714 110.016C344.716 110.053 344.71 110.09 344.698 110.125C344.685 110.161 344.665 110.193 344.64 110.22L329.23 125.62C329.2 125.652 329.164 125.677 329.124 125.695C329.084 125.713 329.041 125.722 328.997 125.723C328.953 125.724 328.91 125.717 328.869 125.701C328.828 125.685 328.791 125.661 328.76 125.63C321.33 118.5 310.21 114.23 299.95 116.7C294.057 118.12 292.117 121.977 294.13 128.27C295.01 131 299.82 132.25 302.76 132.68C313.97 134.33 332.76 135.01 341.69 146.67C348.74 155.89 348.43 169.5 342.02 178.8C331.68 193.8 310.47 196.35 294 194.02C282.52 192.393 272.577 187.1 264.17 178.14C264.064 178.028 264.007 177.879 264.011 177.724C264.015 177.569 264.079 177.42 264.19 177.31L279.32 162.18C279.429 162.067 279.579 162.002 279.736 161.998C279.893 161.995 280.045 162.053 280.16 162.16C285.193 166.887 289.453 169.947 292.94 171.34C300.24 174.267 307.547 174.72 314.86 172.7C320.6 171.11 322.63 162.49 317.32 159.02C315.573 157.88 313.487 157.18 311.06 156.92C300 155.73 289.43 154.87 280.05 149.71C270.71 144.57 266.54 135.67 266.89 124.97C267.3 112.23 275.17 102.74 286.83 98.2801C295.66 94.9001 304.86 94.6701 314.14 95.5901C322.61 96.4301 330.51 98.9201 337.42 104C339.993 105.9 342.393 107.84 344.62 109.82Z" fill="white"/>
<path d="M245.42 97.25H218.82C218.572 97.25 218.37 97.4515 218.37 97.7V192.04C218.37 192.289 218.572 192.49 218.82 192.49H245.42C245.669 192.49 245.87 192.289 245.87 192.04V97.7C245.87 97.4515 245.669 97.25 245.42 97.25Z" fill="white"/>
<path d="M462.86 97.26H436C435.79 97.26 435.62 97.4301 435.62 97.64V192.12C435.62 192.33 435.79 192.5 436 192.5H462.86C463.07 192.5 463.24 192.33 463.24 192.12V97.64C463.24 97.4301 463.07 97.26 462.86 97.26Z" fill="white"/>
<path d="M58.87 251H0.62L0 250.35V193.8L24.19 193.82C24.3359 193.82 24.4758 193.879 24.5789 193.984C24.6821 194.089 24.74 194.231 24.74 194.38V225.34C24.74 225.394 24.7509 225.447 24.772 225.497C24.7931 225.547 24.824 225.592 24.863 225.63C24.902 225.668 24.9483 225.698 24.9993 225.719C25.0502 225.739 25.1048 225.75 25.16 225.75H58.29C58.4289 225.75 58.5622 225.804 58.6613 225.902C58.7604 225.999 58.8174 226.131 58.82 226.27L58.87 251Z" fill="white"/>
</svg>
