<svg width="231" height="54" viewBox="0 0 231 54" fill="none" xmlns="http://www.w3.org/2000/svg">
<path d="M92.9363 0.521973C92.9191 0.521973 92.9026 0.528793 92.8905 0.540934C92.8784 0.553074 92.8715 0.569541 92.8715 0.586711C92.8678 4.65849 92.866 15.0217 92.866 31.6765C92.866 35.2415 93.2912 39.1358 96.8752 40.944C99.6489 42.3426 102.579 42.1405 105.806 42.1238C105.821 42.1238 105.837 42.1179 105.848 42.1072C105.86 42.0965 105.868 42.0817 105.869 42.0658L106.432 36.7037C106.433 36.6935 106.432 36.6832 106.429 36.6734C106.425 36.6637 106.42 36.6547 106.413 36.6472C106.406 36.6397 106.397 36.6338 106.388 36.6298C106.378 36.6259 106.368 36.6241 106.357 36.6244C105.466 36.6601 104.642 36.6293 103.885 36.5318C102.11 36.3007 100.792 35.5953 100.445 33.6978C100.332 33.0825 100.277 32.6427 100.277 32.3785C100.28 12.0382 100.282 1.44876 100.282 0.61015C100.282 0.58706 100.272 0.564916 100.256 0.548588C100.239 0.532261 100.217 0.523089 100.194 0.523089L92.9363 0.521973Z" stroke="#B8D9FF"/>
<path d="M110.546 0.523193C110.529 0.523193 110.512 0.530014 110.5 0.542154C110.488 0.554295 110.481 0.570761 110.481 0.58793C110.478 4.65971 110.477 15.0233 110.48 31.6788C110.481 35.2438 110.907 39.1381 114.492 40.9452C117.265 42.3438 120.195 42.1406 123.422 42.1239C123.438 42.124 123.453 42.1181 123.465 42.1073C123.477 42.0966 123.484 42.0818 123.486 42.0659L124.047 36.7038C124.048 36.6936 124.047 36.6833 124.044 36.6735C124.041 36.6638 124.035 36.6548 124.028 36.6473C124.021 36.6398 124.013 36.6339 124.003 36.6299C123.993 36.626 123.983 36.6242 123.972 36.6245C123.081 36.6603 122.257 36.6294 121.5 36.5319C119.725 36.3008 118.407 35.5954 118.06 33.6991C117.948 33.0837 117.892 32.6439 117.892 32.3797C117.892 12.0387 117.892 1.44887 117.892 0.610254C117.892 0.587164 117.882 0.56502 117.866 0.548693C117.849 0.532366 117.827 0.523193 117.803 0.523193H110.546Z" stroke="#B8D9FF"/>
<path d="M134.415 0.612522C134.415 0.588248 134.406 0.564968 134.388 0.547803C134.371 0.530639 134.348 0.520996 134.324 0.520996H127.04C127.015 0.520996 126.992 0.530639 126.975 0.547803C126.958 0.564968 126.948 0.588248 126.948 0.612522V7.66224C126.948 7.68651 126.958 7.70979 126.975 7.72696C126.992 7.74412 127.015 7.75377 127.04 7.75377H134.324C134.348 7.75377 134.371 7.74412 134.388 7.72696C134.406 7.70979 134.415 7.68651 134.415 7.66224V0.612522Z" stroke="#B8D9FF"/>
<path d="M203.406 0.605855C203.406 0.594274 203.404 0.582811 203.4 0.572119C203.395 0.561428 203.389 0.551717 203.38 0.543542C203.372 0.535368 203.362 0.528889 203.352 0.524476C203.341 0.520063 203.33 0.517802 203.318 0.517822L196.027 0.530558C196.004 0.5306 195.981 0.539928 195.965 0.556491C195.948 0.573055 195.939 0.595496 195.939 0.618881L195.952 7.67528C195.952 7.68686 195.954 7.69833 195.958 7.70902C195.963 7.71971 195.969 7.72942 195.977 7.7376C195.986 7.74577 195.995 7.75225 196.006 7.75666C196.017 7.76108 196.028 7.76334 196.04 7.76332L203.331 7.75058C203.354 7.75054 203.376 7.74121 203.393 7.72465C203.409 7.70808 203.419 7.68564 203.419 7.66226L203.406 0.605855Z" stroke="#B8D9FF"/>
<path d="M86.6301 35.7707C86.6301 35.7503 86.6219 35.7307 86.6075 35.7163C86.5931 35.7018 86.5735 35.6937 86.553 35.6937H68.1262C68.1058 35.6937 68.0862 35.6856 68.0718 35.6711C68.0573 35.6567 68.0492 35.6371 68.0492 35.6167V24.2731C68.0492 24.2526 68.0573 24.2331 68.0718 24.2186C68.0862 24.2042 68.1058 24.196 68.1262 24.196H84.1845C84.205 24.196 84.2246 24.1879 84.239 24.1735C84.2534 24.159 84.2616 24.1395 84.2616 24.119V18.4433C84.2616 18.4229 84.2534 18.4033 84.239 18.3889C84.2246 18.3744 84.205 18.3663 84.1845 18.3663H68.1285C68.108 18.3663 68.0884 18.3582 68.074 18.3437C68.0596 18.3293 68.0514 18.3097 68.0514 18.2893V7.77387C68.0514 7.76376 68.0534 7.75374 68.0573 7.7444C68.0612 7.73505 68.0668 7.72656 68.074 7.71941C68.0812 7.71226 68.0896 7.70659 68.099 7.70272C68.1083 7.69885 68.1183 7.69685 68.1285 7.69685H86.2684C86.2888 7.69685 86.3084 7.68874 86.3229 7.6743C86.3373 7.65985 86.3454 7.64026 86.3454 7.61984V1.66173C86.3454 1.64131 86.3373 1.62172 86.3229 1.60727C86.3084 1.59283 86.2888 1.58472 86.2684 1.58472H60.0519C60.0314 1.58472 60.0119 1.59283 59.9974 1.60727C59.983 1.62172 59.9749 1.64131 59.9749 1.66173V41.7344C59.9749 41.7548 59.983 41.7744 59.9974 41.7889C60.0119 41.8033 60.0314 41.8114 60.0519 41.8114H86.553C86.5735 41.8114 86.5931 41.8033 86.6075 41.7889C86.6219 41.7744 86.6301 41.7548 86.6301 41.7344V35.7707Z" stroke="#B8D9FF"/>
<path d="M39.9107 20.2926C40.5658 16.4563 40.3248 11.2673 36.8312 8.84071C34.6647 7.33612 32.2091 6.64633 29.5113 6.34831C27.7054 6.14963 25.6877 6.03206 23.4583 5.9956C17.4407 5.89812 12.8786 5.81292 9.77189 5.74C9.75965 5.73981 9.74752 5.74242 9.73645 5.74763C9.72539 5.75284 9.71569 5.76051 9.70812 5.77002C9.70055 5.77954 9.69531 5.79065 9.69282 5.80248C9.69033 5.81432 9.69065 5.82655 9.69376 5.83822L12.2018 15.1973C12.2095 15.2255 12.2268 15.2502 12.2508 15.2671C12.2749 15.284 12.3041 15.2921 12.3335 15.2899C17.3295 14.9372 22.3332 14.7944 27.1763 15.1459C29.1787 15.2918 31.1264 15.5682 33.0194 15.9753C34.4295 16.2781 35.7351 16.7164 36.9361 17.2901C37.5448 17.5803 38.1133 17.9483 38.6416 18.394C39.2711 18.9253 39.6562 19.5269 39.8526 20.2937C39.8543 20.3004 39.8583 20.3064 39.8638 20.3106C39.8694 20.3149 39.8761 20.3171 39.883 20.317C39.8899 20.3169 39.8964 20.3144 39.9014 20.3099C39.9064 20.3055 39.9097 20.2993 39.9107 20.2926Z" stroke="#B8D9FF"/>
<path d="M2.36694 21.2146C3.35029 23.668 4.60821 25.9662 5.96547 28.3983C8.14125 32.296 10.1522 35.9317 11.9984 39.3055C12.0028 39.3136 12.009 39.3205 12.0166 39.3257C12.0241 39.331 12.0328 39.3344 12.0419 39.3357C12.051 39.337 12.0603 39.3361 12.069 39.3332C12.0777 39.3303 12.0856 39.3254 12.0921 39.3189L18.9476 32.4634C18.9737 32.4378 18.9898 32.4038 18.9933 32.3675C18.9968 32.3312 18.9873 32.2948 18.9666 32.2647C16.4128 28.5635 14.1023 24.7239 12.0352 20.7458" stroke="#B8D9FF"/>
<path d="M12.0352 20.7459C11.0121 18.7569 10.1366 16.7103 9.4089 14.6059C8.88579 13.0916 8.55912 11.6395 8.4289 10.2495C8.28715 8.73709 8.4222 6.98471 9.60088 5.921C9.60748 5.91599 9.61199 5.90872 9.61353 5.90058C9.61508 5.89244 9.61355 5.88401 9.60925 5.87693C9.60495 5.86985 9.59817 5.86462 9.59024 5.86224C9.5823 5.85987 9.57376 5.86052 9.56628 5.86408C8.78496 6.16544 8.03378 6.50029 7.31273 6.86863C4.42297 8.34532 1.44504 10.8232 1.14702 14.2878C0.943879 16.6418 1.4216 18.9389 2.36699 21.2147" stroke="#B8D9FF"/>
<path d="M12.0352 20.7459C10.8052 20.5844 9.38913 20.5297 7.78706 20.5818C6.46849 20.6242 5.29093 20.7035 4.25438 20.8195C3.6777 20.8835 3.04855 21.0152 2.36694 21.2147" stroke="#B8D9FF"/>
<path d="M147.895 41.4106C147.895 41.4027 147.897 41.3949 147.901 41.388C147.905 41.3811 147.91 41.3752 147.917 41.3709C147.924 41.3666 147.931 41.364 147.939 41.3633C147.947 41.3627 147.955 41.364 147.962 41.3671C150.946 42.6518 154.442 42.6797 157.559 42.0368C158.801 41.7808 160.002 41.3057 161.161 40.6114C163.044 39.4841 164.322 37.9289 164.995 35.9459C165.336 34.9443 165.507 34.0424 165.507 33.2403C165.514 26.1154 165.517 22.2185 165.515 21.5495C165.51 18.4678 164.477 15.8526 161.938 13.9797C159.817 12.4148 157.146 11.917 154.564 11.9081C151.597 11.8976 148.894 12.727 146.457 14.396C146.45 14.4008 146.442 14.4039 146.433 14.4052C146.425 14.4065 146.417 14.4059 146.408 14.4034C146.4 14.401 146.393 14.3967 146.387 14.391C146.381 14.3852 146.376 14.3782 146.373 14.3703L145.694 12.609C145.687 12.5899 145.673 12.5736 145.656 12.562C145.639 12.5505 145.619 12.5443 145.598 12.5443H140.543C140.531 12.5443 140.519 12.5491 140.511 12.5577C140.502 12.5663 140.497 12.5779 140.497 12.59V52.9127C140.497 52.9311 140.505 52.9487 140.518 52.9617C140.531 52.9746 140.548 52.9819 140.567 52.9819H147.819C147.829 52.9819 147.839 52.98 147.848 52.9761C147.858 52.9723 147.866 52.9667 147.873 52.9597C147.88 52.9526 147.886 52.9443 147.89 52.9351C147.893 52.9259 147.895 52.916 147.895 52.906V41.4106Z" stroke="#B8D9FF"/>
<path d="M191.346 14.3481C189.681 13.4872 187.928 12.8461 186.087 12.425C185.238 12.2307 184.249 12.0897 183.121 12.0019C179.729 11.7385 176.105 11.974 173.263 13.9597C170.773 15.6987 170.093 18.5047 170.352 21.4023C170.522 23.3009 171.261 25.31 172.699 26.5523C173.589 27.3225 174.642 27.907 175.856 28.3058C177.232 28.7582 179.619 29.5142 183.018 30.5739C184.144 30.9254 185.01 31.6677 185.207 32.8508C185.44 34.2327 185.126 35.8243 183.925 36.6279C183.107 37.1749 182.063 37.3133 181.103 37.2898C177.883 37.2128 174.684 36.3958 171.719 35.1334C171.71 35.1298 171.701 35.128 171.692 35.1282C171.682 35.1284 171.673 35.1305 171.665 35.1345C171.656 35.1385 171.649 35.1443 171.643 35.1514C171.637 35.1585 171.632 35.1668 171.629 35.1758L170.184 40.0479C170.176 40.0759 170.178 40.1058 170.189 40.1325C170.201 40.1591 170.222 40.181 170.247 40.1941C172.92 41.5335 175.864 42.1686 178.873 42.3517C181.944 42.5381 185.494 42.5983 188.195 40.8415C190.218 39.5255 191.643 37.3367 191.967 34.9202C192.315 32.3207 191.822 28.8159 189.688 26.9675C188.669 26.0843 187.461 25.4146 186.065 24.9584C183.678 24.1793 181.539 23.5014 179.648 22.9248C179.262 22.8072 178.915 22.661 178.606 22.4861C177.573 21.9001 177.304 20.6489 177.476 19.5383C177.74 17.8283 178.974 17.2591 180.632 17.1318C181.44 17.0693 182.256 17.0868 183.078 17.1843C185.278 17.4455 187.623 17.9734 189.612 18.9624C189.619 18.966 189.627 18.9681 189.635 18.9685C189.643 18.9689 189.651 18.9676 189.659 18.9646C189.667 18.9617 189.673 18.9572 189.679 18.9514C189.685 18.9456 189.689 18.9387 189.692 18.9311L191.388 14.4553C191.395 14.4356 191.395 14.4139 191.388 14.3941C191.38 14.3744 191.365 14.358 191.346 14.3481Z" stroke="#B8D9FF"/>
<path d="M229.25 14.348C227.585 13.4871 225.832 12.8461 223.991 12.4249C223.142 12.2307 222.153 12.0897 221.025 12.0019C217.633 11.7396 214.009 11.9751 211.167 13.9607C208.677 15.6997 207.999 18.5058 208.258 21.4033C208.427 23.3019 209.166 25.311 210.604 26.5533C211.494 27.3235 212.547 27.9076 213.761 28.3057C215.137 28.7581 217.524 29.5142 220.923 30.5738C222.049 30.9254 222.915 31.6676 223.113 32.8508C223.345 34.2326 223.031 35.8242 221.83 36.6279C221.012 37.1748 219.969 37.3132 219.01 37.2898C215.789 37.2127 212.591 36.3957 209.625 35.1344C209.616 35.1308 209.607 35.129 209.598 35.1292C209.589 35.1294 209.579 35.1316 209.571 35.1356C209.563 35.1396 209.555 35.1453 209.549 35.1524C209.543 35.1595 209.538 35.1679 209.536 35.1769L208.09 40.0489C208.082 40.0769 208.084 40.1068 208.096 40.1335C208.107 40.1602 208.128 40.182 208.154 40.1951C210.826 41.5334 213.77 42.1685 216.779 42.3516C219.85 42.538 223.401 42.5971 226.102 40.8403C228.123 39.5243 229.548 37.3355 229.872 34.919C230.22 32.3195 229.727 28.8147 227.593 26.9674C226.574 26.0842 225.367 25.4145 223.97 24.9583C221.583 24.1793 219.444 23.5014 217.553 22.9247C217.168 22.8071 216.82 22.6609 216.512 22.486C215.478 21.9012 215.209 20.6499 215.38 19.5393C215.644 17.8294 216.878 17.2601 218.536 17.1318C219.344 17.0693 220.16 17.0867 220.982 17.1842C223.182 17.4454 225.527 17.9734 227.516 18.9623C227.523 18.9659 227.531 18.968 227.539 18.9684C227.547 18.9688 227.555 18.9675 227.563 18.9645C227.571 18.9616 227.577 18.9571 227.583 18.9513C227.589 18.9455 227.593 18.9386 227.596 18.931L229.292 14.4552C229.299 14.4355 229.299 14.4138 229.292 14.394C229.284 14.3743 229.269 14.3579 229.25 14.348Z" stroke="#B8D9FF"/>
<path d="M134.389 12.6091C134.389 12.6002 134.388 12.5913 134.384 12.583C134.381 12.5748 134.376 12.5673 134.369 12.561C134.363 12.5546 134.356 12.5496 134.347 12.5462C134.339 12.5428 134.33 12.541 134.321 12.541H127.08C127.071 12.541 127.062 12.5428 127.054 12.5462C127.045 12.5496 127.038 12.5546 127.031 12.561C127.025 12.5673 127.02 12.5748 127.017 12.583C127.013 12.5913 127.011 12.6002 127.011 12.6091V41.7389C127.011 41.7569 127.019 41.7742 127.031 41.787C127.044 41.7998 127.062 41.8069 127.08 41.8069H134.321C134.339 41.8069 134.357 41.7998 134.369 41.787C134.382 41.7742 134.389 41.7569 134.389 41.7389V12.6091Z" stroke="#B8D9FF"/>
<path d="M203.382 12.6045C203.382 12.5874 203.376 12.5709 203.363 12.5588C203.351 12.5466 203.335 12.5398 203.318 12.5398H196.078C196.061 12.5398 196.045 12.5466 196.032 12.5588C196.02 12.5709 196.013 12.5874 196.013 12.6045V41.7432C196.013 41.7604 196.02 41.7769 196.032 41.789C196.045 41.8011 196.061 41.808 196.078 41.808H203.318C203.335 41.808 203.351 41.8011 203.363 41.789C203.376 41.7769 203.382 41.7604 203.382 41.7432V12.6045Z" stroke="#B8D9FF"/>
<path d="M12.294 39.502C15.2886 41.9866 19.9029 44.373 23.7514 42.5603C26.1378 41.4363 27.9639 39.6549 29.57 37.4672C30.6453 36.0028 31.7558 34.3144 32.9018 32.4021C35.9958 27.2394 38.3509 23.331 39.9671 20.6767C39.9735 20.6662 39.9774 20.6544 39.9785 20.6421C39.9795 20.6299 39.9778 20.6176 39.9733 20.6063C39.9689 20.5949 39.9619 20.5848 39.9529 20.5766C39.9439 20.5685 39.9331 20.5627 39.9214 20.5595L30.5623 18.0526C30.5341 18.045 30.5041 18.0476 30.4774 18.0598C30.4508 18.072 30.4291 18.0931 30.4161 18.1196C28.2228 22.6233 25.8454 27.0277 23.1186 31.0459C21.9912 32.7075 20.778 34.2564 19.4787 35.6925C18.5114 36.7618 17.4789 37.6733 16.3814 38.4271C15.8255 38.8089 15.2228 39.1169 14.5732 39.3513C13.7974 39.6315 13.0842 39.6638 12.3219 39.4507C12.3151 39.4485 12.3077 39.4488 12.3011 39.4515C12.2944 39.4542 12.2889 39.459 12.2855 39.4652C12.2821 39.4714 12.2811 39.4785 12.2827 39.4853C12.2842 39.492 12.2882 39.498 12.294 39.502Z" stroke="#B8D9FF"/>
<path d="M147.987 36.0685C149.183 36.7025 150.239 37.1032 151.601 37.2327C153.806 37.4414 157.193 37.2506 157.911 34.5517C158.033 34.0903 158.095 33.6814 158.095 33.325C158.099 26.4167 158.099 22.3519 158.093 21.1309C158.089 20.2826 157.916 19.4633 157.434 18.7534C156.784 17.7969 155.472 17.3069 154.315 17.1685C152.047 16.8984 150.039 17.363 148.29 18.5626C148.098 18.695 147.977 18.7977 147.93 18.8706C147.908 18.9049 147.896 18.9448 147.896 18.9856L147.895 35.9179C147.895 35.9488 147.904 35.9793 147.92 36.0058C147.936 36.0324 147.959 36.0541 147.987 36.0685Z" stroke="#B8D9FF"/>
<path d="M92.9363 0.521973L100.194 0.523089C100.217 0.523089 100.239 0.532261 100.256 0.548588C100.272 0.564916 100.282 0.58706 100.282 0.61015C100.282 1.44876 100.28 12.0382 100.277 32.3785C100.277 32.6427 100.332 33.0825 100.445 33.6978C100.792 35.5953 102.11 36.3007 103.885 36.5318C104.642 36.6293 105.466 36.6601 106.357 36.6244C106.368 36.6241 106.378 36.6259 106.388 36.6298C106.397 36.6338 106.406 36.6397 106.413 36.6472C106.42 36.6547 106.425 36.6637 106.429 36.6734C106.432 36.6832 106.433 36.6935 106.432 36.7037L105.869 42.0658C105.868 42.0817 105.86 42.0965 105.848 42.1072C105.837 42.1179 105.821 42.1238 105.806 42.1238C102.579 42.1405 99.6489 42.3426 96.8752 40.944C93.2912 39.1358 92.866 35.2415 92.866 31.6765C92.866 15.0217 92.8678 4.65849 92.8715 0.586711C92.8715 0.569541 92.8784 0.553074 92.8905 0.540934C92.9026 0.528793 92.9191 0.521973 92.9363 0.521973Z" fill="#B8D9FF"/>
<path d="M110.546 0.523193H117.803C117.827 0.523193 117.849 0.532366 117.866 0.548693C117.882 0.56502 117.892 0.587164 117.892 0.610254C117.892 1.44887 117.892 12.0387 117.892 32.3797C117.892 32.6439 117.948 33.0837 118.06 33.6991C118.407 35.5954 119.725 36.3008 121.5 36.5319C122.257 36.6294 123.081 36.6603 123.972 36.6245C123.983 36.6242 123.993 36.626 124.003 36.6299C124.013 36.6339 124.021 36.6398 124.028 36.6473C124.035 36.6549 124.041 36.6638 124.044 36.6735C124.047 36.6833 124.048 36.6936 124.047 36.7038L123.486 42.0659C123.484 42.0818 123.477 42.0966 123.465 42.1073C123.453 42.1181 123.438 42.124 123.422 42.1239C120.195 42.1406 117.265 42.3438 114.492 40.9452C110.907 39.1381 110.481 35.2438 110.48 31.6788C110.477 15.0233 110.478 4.65971 110.481 0.58793C110.481 0.570761 110.488 0.554295 110.5 0.542154C110.512 0.530014 110.529 0.523193 110.546 0.523193Z" fill="#B8D9FF"/>
<path d="M134.324 0.520996H127.04C126.989 0.520996 126.948 0.561974 126.948 0.612522V7.66224C126.948 7.71279 126.989 7.75377 127.04 7.75377H134.324C134.374 7.75377 134.415 7.71279 134.415 7.66224V0.612522C134.415 0.561974 134.374 0.520996 134.324 0.520996Z" fill="#B8D9FF"/>
<path d="M203.318 0.517883L196.027 0.530608C195.978 0.530693 195.939 0.57024 195.939 0.618939L195.951 7.67534C195.951 7.72404 195.991 7.76345 196.04 7.76337L203.33 7.75064C203.379 7.75056 203.418 7.71101 203.418 7.66231L203.406 0.605906C203.406 0.557207 203.366 0.517798 203.318 0.517883Z" fill="#B8D9FF"/>
<path d="M86.6301 35.7707V41.7344C86.6301 41.7548 86.6219 41.7744 86.6075 41.7889C86.5931 41.8033 86.5735 41.8114 86.553 41.8114H60.0519C60.0314 41.8114 60.0119 41.8033 59.9974 41.7889C59.983 41.7744 59.9749 41.7548 59.9749 41.7344V1.66173C59.9749 1.64131 59.983 1.62172 59.9974 1.60727C60.0119 1.59283 60.0314 1.58472 60.0519 1.58472H86.2684C86.2888 1.58472 86.3084 1.59283 86.3229 1.60727C86.3373 1.62172 86.3454 1.64131 86.3454 1.66173V7.61984C86.3454 7.64026 86.3373 7.65985 86.3229 7.6743C86.3084 7.68874 86.2888 7.69685 86.2684 7.69685H68.1285C68.1183 7.69685 68.1083 7.69884 68.099 7.70272C68.0896 7.70659 68.0812 7.71226 68.074 7.71941C68.0668 7.72656 68.0612 7.73505 68.0573 7.7444C68.0534 7.75374 68.0514 7.76376 68.0514 7.77387V18.2893C68.0514 18.3097 68.0596 18.3293 68.074 18.3437C68.0884 18.3582 68.108 18.3663 68.1285 18.3663H84.1845C84.205 18.3663 84.2246 18.3744 84.239 18.3889C84.2534 18.4033 84.2616 18.4229 84.2616 18.4433V24.119C84.2616 24.1395 84.2534 24.159 84.239 24.1735C84.2246 24.1879 84.205 24.196 84.1845 24.196H68.1262C68.1058 24.196 68.0862 24.2042 68.0718 24.2186C68.0573 24.2331 68.0492 24.2526 68.0492 24.2731V35.6167C68.0492 35.6371 68.0573 35.6567 68.0718 35.6711C68.0862 35.6856 68.1058 35.6937 68.1262 35.6937H86.553C86.5735 35.6937 86.5931 35.7018 86.6075 35.7163C86.6219 35.7307 86.6301 35.7503 86.6301 35.7707Z" fill="#B8D9FF"/>
<path d="M39.9107 20.2926C39.9097 20.2993 39.9065 20.3055 39.9014 20.3099C39.8964 20.3144 39.8899 20.3169 39.883 20.317C39.8761 20.3171 39.8694 20.3149 39.8638 20.3106C39.8583 20.3064 39.8543 20.3004 39.8526 20.2937C39.6562 19.5269 39.2711 18.9253 38.6416 18.394C38.1133 17.9483 37.5448 17.5803 36.9361 17.2901C35.7351 16.7164 34.4295 16.2781 33.0194 15.9753C31.1264 15.5682 29.1787 15.2918 27.1763 15.1459C22.3332 14.7944 17.3295 14.9372 12.3335 15.2899C12.3041 15.2921 12.2749 15.284 12.2508 15.2671C12.2268 15.2502 12.2095 15.2255 12.2018 15.1973L9.69376 5.83822C9.69065 5.82655 9.69033 5.81432 9.69282 5.80248C9.69531 5.79065 9.70055 5.77954 9.70812 5.77002C9.71569 5.76051 9.72539 5.75284 9.73645 5.74763C9.74752 5.74242 9.75965 5.73981 9.77189 5.74C12.8786 5.81292 17.4407 5.89812 23.4583 5.9956C25.6877 6.03206 27.7054 6.14963 29.5113 6.34831C32.2091 6.64633 34.6647 7.33612 36.8312 8.84071C40.3248 11.2673 40.5658 16.4563 39.9107 20.2926Z" fill="#B8D9FF"/>
<path d="M12.0352 20.7459C10.8052 20.5845 9.38918 20.5298 7.78711 20.5819C6.46854 20.6243 5.29098 20.7035 4.25443 20.8196C3.67775 20.8836 3.0486 21.0153 2.36699 21.2147C1.4216 18.9389 0.943879 16.6418 1.14702 14.2878C1.44504 10.8232 4.42297 8.34532 7.31273 6.86863C8.03378 6.50029 8.78496 6.16544 9.56628 5.86408C9.57376 5.86052 9.5823 5.85987 9.59023 5.86224C9.59817 5.86462 9.60495 5.86985 9.60925 5.87693C9.61355 5.88401 9.61508 5.89244 9.61353 5.90058C9.61199 5.90872 9.60748 5.91599 9.60088 5.921C8.4222 6.98471 8.28715 8.73709 8.4289 10.2495C8.55912 11.6395 8.88579 13.0916 9.4089 14.6059C10.1366 16.7103 11.0121 18.7569 12.0352 20.7459Z" fill="#B8D9FF"/>
<path d="M147.895 41.4106V52.906C147.895 52.916 147.893 52.9259 147.89 52.9351C147.886 52.9443 147.88 52.9526 147.873 52.9597C147.866 52.9667 147.858 52.9723 147.848 52.9761C147.839 52.98 147.829 52.9819 147.819 52.9819H140.567C140.548 52.9819 140.531 52.9746 140.518 52.9617C140.505 52.9487 140.497 52.9311 140.497 52.9127V12.59C140.497 12.5779 140.502 12.5663 140.511 12.5577C140.519 12.5491 140.531 12.5443 140.543 12.5443H145.598C145.619 12.5443 145.639 12.5505 145.656 12.562C145.673 12.5736 145.687 12.5899 145.694 12.609L146.373 14.3703C146.376 14.3782 146.381 14.3852 146.387 14.391C146.393 14.3967 146.4 14.401 146.408 14.4034C146.417 14.4059 146.425 14.4065 146.433 14.4052C146.442 14.4039 146.45 14.4008 146.457 14.396C148.894 12.727 151.597 11.8976 154.564 11.9081C157.146 11.917 159.817 12.4148 161.938 13.9797C164.477 15.8526 165.51 18.4678 165.515 21.5495C165.517 22.2185 165.514 26.1154 165.507 33.2403C165.507 34.0424 165.336 34.9443 164.995 35.9459C164.322 37.9289 163.044 39.4841 161.161 40.6114C160.002 41.3057 158.801 41.7808 157.559 42.0368C154.442 42.6797 150.946 42.6518 147.962 41.3671C147.955 41.364 147.947 41.3627 147.939 41.3633C147.931 41.364 147.924 41.3666 147.917 41.3709C147.91 41.3752 147.905 41.3811 147.901 41.388C147.897 41.3949 147.895 41.4027 147.895 41.4106ZM147.987 36.0686C149.183 36.7026 150.239 37.1033 151.601 37.2328C153.807 37.4415 157.193 37.2507 157.911 34.5518C158.033 34.0904 158.095 33.6815 158.095 33.3251C158.099 26.4168 158.099 22.352 158.093 21.131C158.089 20.2827 157.916 19.4634 157.434 18.7535C156.784 17.797 155.472 17.307 154.315 17.1686C152.047 16.8984 150.039 17.3631 148.29 18.5627C148.098 18.6951 147.978 18.7978 147.93 18.8707C147.908 18.905 147.896 18.9449 147.896 18.9857L147.895 35.9179C147.895 35.9489 147.904 35.9794 147.92 36.0059C147.936 36.0325 147.959 36.0542 147.987 36.0686Z" fill="#B8D9FF"/>
<path d="M191.346 14.3479C191.365 14.3578 191.38 14.3741 191.388 14.3939C191.395 14.4136 191.395 14.4354 191.388 14.455L189.692 18.9309C189.689 18.9385 189.685 18.9454 189.679 18.9511C189.673 18.9569 189.667 18.9614 189.659 18.9644C189.651 18.9673 189.643 18.9686 189.635 18.9682C189.627 18.9679 189.619 18.9658 189.612 18.9621C187.623 17.9732 185.278 17.4452 183.078 17.1841C182.256 17.0866 181.44 17.0691 180.632 17.1316C178.974 17.2588 177.74 17.8281 177.476 19.5381C177.304 20.6486 177.573 21.8999 178.606 22.4859C178.915 22.6607 179.262 22.8069 179.648 22.9245C181.539 23.5012 183.678 24.1791 186.065 24.9582C187.461 25.4143 188.669 26.084 189.688 26.9673C191.822 28.8156 192.315 32.3204 191.967 34.92C191.643 37.3365 190.218 39.5253 188.195 40.8412C185.494 42.5981 181.944 42.5378 178.873 42.3514C175.864 42.1684 172.92 41.5333 170.247 40.1939C170.222 40.1807 170.201 40.1589 170.189 40.1322C170.178 40.1055 170.176 40.0756 170.184 40.0476L171.629 35.1756C171.632 35.1666 171.637 35.1583 171.643 35.1511C171.649 35.144 171.656 35.1383 171.665 35.1343C171.673 35.1303 171.682 35.1281 171.692 35.1279C171.701 35.1277 171.71 35.1295 171.719 35.1332C174.684 36.3955 177.883 37.2126 181.103 37.2896C182.063 37.313 183.107 37.1746 183.925 36.6277C185.126 35.8241 185.44 34.2324 185.207 32.8506C185.01 31.6675 184.144 30.9252 183.018 30.5736C179.619 29.514 177.232 28.758 175.856 28.3056C174.642 27.9067 173.589 27.3222 172.699 26.5521C171.261 25.3098 170.522 23.3007 170.352 21.4021C170.093 18.5045 170.773 15.6984 173.263 13.9594C176.105 11.9738 179.729 11.7383 183.121 12.0017C184.249 12.0895 185.238 12.2305 186.087 12.4247C187.928 12.8459 189.681 13.4869 191.346 14.3479Z" fill="#B8D9FF"/>
<path d="M229.25 14.348C229.269 14.3579 229.284 14.3743 229.292 14.394C229.299 14.4138 229.299 14.4355 229.292 14.4552L227.596 18.931C227.593 18.9386 227.589 18.9455 227.583 18.9513C227.577 18.9571 227.571 18.9616 227.563 18.9645C227.555 18.9675 227.547 18.9688 227.539 18.9684C227.531 18.968 227.523 18.9659 227.516 18.9623C225.527 17.9734 223.182 17.4454 220.982 17.1842C220.16 17.0867 219.344 17.0693 218.536 17.1318C216.878 17.2601 215.644 17.8294 215.38 19.5393C215.209 20.6499 215.478 21.9012 216.512 22.486C216.82 22.6609 217.168 22.8071 217.553 22.9247C219.444 23.5014 221.583 24.1793 223.97 24.9583C225.367 25.4145 226.574 26.0842 227.593 26.9674C229.727 28.8147 230.22 32.3195 229.872 34.919C229.548 37.3355 228.123 39.5243 226.102 40.8403C223.401 42.5971 219.85 42.538 216.779 42.3516C213.77 42.1685 210.826 41.5334 208.154 40.1951C208.128 40.182 208.107 40.1602 208.096 40.1335C208.084 40.1068 208.082 40.0769 208.09 40.0489L209.536 35.1769C209.538 35.1679 209.543 35.1595 209.549 35.1524C209.555 35.1453 209.563 35.1396 209.571 35.1356C209.579 35.1316 209.589 35.1294 209.598 35.1292C209.607 35.129 209.616 35.1308 209.625 35.1344C212.591 36.3957 215.789 37.2127 219.01 37.2898C219.969 37.3132 221.012 37.1748 221.83 36.6279C223.031 35.8242 223.345 34.2326 223.113 32.8508C222.915 31.6676 222.049 30.9254 220.923 30.5738C217.524 29.5142 215.137 28.7581 213.761 28.3057C212.547 27.9076 211.494 27.3235 210.604 26.5533C209.166 25.311 208.427 23.3019 208.258 21.4033C207.999 18.5058 208.677 15.6997 211.167 13.9607C214.009 11.9751 217.633 11.7396 221.025 12.0019C222.153 12.0897 223.142 12.2307 223.991 12.4249C225.832 12.8461 227.585 13.4871 229.25 14.348Z" fill="#B8D9FF"/>
<path d="M134.321 12.541H127.08C127.042 12.541 127.011 12.5715 127.011 12.6091V41.7389C127.011 41.7765 127.042 41.8069 127.08 41.8069H134.321C134.359 41.8069 134.389 41.7765 134.389 41.7389V12.6091C134.389 12.5715 134.359 12.541 134.321 12.541Z" fill="#B8D9FF"/>
<path d="M203.318 12.5398H196.078C196.042 12.5398 196.013 12.5688 196.013 12.6045V41.7432C196.013 41.779 196.042 41.808 196.078 41.808H203.318C203.353 41.808 203.382 41.779 203.382 41.7432V12.6045C203.382 12.5688 203.353 12.5398 203.318 12.5398Z" fill="#B8D9FF"/>
<path d="M12.294 39.502C12.2882 39.4979 12.2842 39.492 12.2827 39.4853C12.2811 39.4785 12.2821 39.4714 12.2855 39.4652C12.2889 39.459 12.2944 39.4542 12.3011 39.4515C12.3077 39.4488 12.3151 39.4485 12.3219 39.4507C13.0842 39.6638 13.7974 39.6315 14.5732 39.3513C15.2228 39.1169 15.8255 38.8089 16.3814 38.4271C17.4789 37.6733 18.5114 36.7618 19.4787 35.6925C20.778 34.2564 21.9912 32.7075 23.1186 31.0459C25.8454 27.0277 28.2228 22.6233 30.4161 18.1196C30.4291 18.0931 30.4508 18.072 30.4774 18.0598C30.5041 18.0476 30.5341 18.045 30.5623 18.0526L39.9214 20.5595C39.9331 20.5627 39.9439 20.5685 39.9529 20.5766C39.9619 20.5848 39.9689 20.5949 39.9733 20.6063C39.9778 20.6176 39.9795 20.6299 39.9785 20.6421C39.9774 20.6544 39.9735 20.6662 39.9671 20.6767C38.3509 23.331 35.9958 27.2394 32.9018 32.4021C31.7558 34.3144 30.6453 36.0028 29.57 37.4672C27.9639 39.6549 26.1378 41.4363 23.7514 42.5603C19.9029 44.373 15.2886 41.9866 12.294 39.502Z" fill="#B8D9FF"/>
<path d="M12.0352 20.7459C14.1023 24.7239 16.4128 28.5635 18.9666 32.2647C18.9873 32.2948 18.9968 32.3312 18.9933 32.3675C18.9898 32.4039 18.9737 32.4378 18.9476 32.4634L12.0921 39.3189C12.0856 39.3254 12.0777 39.3303 12.069 39.3332C12.0603 39.3361 12.051 39.337 12.0419 39.3357C12.0328 39.3344 12.0241 39.331 12.0166 39.3257C12.009 39.3205 12.0028 39.3136 11.9984 39.3055C10.1522 35.9317 8.14125 32.296 5.96547 28.3983C4.60821 25.9662 3.35029 23.668 2.36694 21.2147C3.04855 21.0152 3.6777 20.8835 4.25438 20.8195C5.29093 20.7035 6.46849 20.6242 7.78706 20.5818C9.38913 20.5297 10.8052 20.5844 12.0352 20.7459Z" fill="#B8D9FF"/>
</svg>
