<svg width="460" height="107" viewBox="0 0 460 107" fill="none" xmlns="http://www.w3.org/2000/svg">
<path d="M184.671 1.00854C184.636 1.00854 184.604 1.02219 184.579 1.04647C184.555 1.07075 184.541 1.10368 184.541 1.13802C184.534 9.28158 184.53 30.0081 184.53 63.3175C184.53 70.4476 185.381 78.2362 192.549 81.8526C198.096 84.6497 203.956 84.2457 210.41 84.2122C210.441 84.2123 210.472 84.2005 210.495 84.179C210.519 84.1576 210.534 84.128 210.537 84.0961L211.662 73.372C211.664 73.3516 211.662 73.3309 211.655 73.3114C211.649 73.292 211.638 73.2741 211.624 73.2591C211.61 73.244 211.592 73.2321 211.573 73.2243C211.554 73.2164 211.533 73.2127 211.512 73.2135C209.73 73.2849 208.081 73.2231 206.568 73.0282C203.018 72.5661 200.382 71.1552 199.688 67.3603C199.463 66.1295 199.351 65.25 199.353 64.7216C199.359 24.041 199.362 2.86213 199.362 1.1849C199.362 1.13872 199.343 1.09443 199.31 1.06178C199.277 1.02912 199.232 1.01078 199.185 1.01078L184.671 1.00854Z" stroke="white" stroke-width="2"/>
<path d="M219.89 1.01074C219.856 1.01074 219.823 1.02438 219.799 1.04866C219.774 1.07295 219.761 1.10588 219.761 1.14022C219.753 9.28378 219.753 30.011 219.759 63.3219C219.761 70.452 220.611 78.2406 227.782 81.8548C233.329 84.6519 239.189 84.2456 245.643 84.2121C245.674 84.2123 245.705 84.2005 245.728 84.179C245.752 84.1576 245.766 84.128 245.77 84.0961L246.893 73.3719C246.895 73.3515 246.893 73.3309 246.886 73.3114C246.88 73.2919 246.869 73.2741 246.855 73.259C246.84 73.244 246.823 73.2321 246.804 73.2243C246.785 73.2164 246.764 73.2127 246.743 73.2134C244.96 73.2849 243.312 73.2231 241.798 73.0281C238.249 72.5661 235.613 71.1552 234.918 67.3625C234.694 66.1317 234.581 65.2522 234.581 64.7239C234.581 24.0418 234.581 2.86209 234.581 1.18486C234.581 1.13868 234.563 1.0944 234.53 1.06174C234.497 1.02909 234.452 1.01074 234.405 1.01074H219.89Z" stroke="white" stroke-width="2"/>
<path d="M267.629 1.1894C267.629 1.14085 267.61 1.09429 267.575 1.05996C267.541 1.02563 267.494 1.00635 267.446 1.00635H252.878C252.829 1.00635 252.783 1.02563 252.748 1.05996C252.714 1.09429 252.695 1.14085 252.695 1.1894V15.2888C252.695 15.3374 252.714 15.3839 252.748 15.4183C252.783 15.4526 252.829 15.4719 252.878 15.4719H267.446C267.494 15.4719 267.541 15.4526 267.575 15.4183C267.61 15.3839 267.629 15.3374 267.629 15.2888V1.1894Z" stroke="white" stroke-width="2"/>
<path d="M405.611 1.17631C405.611 1.15315 405.606 1.13022 405.597 1.10884C405.588 1.08745 405.575 1.06803 405.559 1.05168C405.542 1.03533 405.523 1.02238 405.502 1.01355C405.48 1.00472 405.457 1.0002 405.434 1.00024L390.852 1.02572C390.806 1.0258 390.761 1.04446 390.728 1.07758C390.695 1.11071 390.676 1.15559 390.676 1.20236L390.701 15.3152C390.701 15.3383 390.706 15.3613 390.715 15.3826C390.723 15.404 390.736 15.4234 390.753 15.4398C390.769 15.4561 390.789 15.4691 390.81 15.4779C390.832 15.4868 390.855 15.4913 390.878 15.4912L405.459 15.4658C405.506 15.4657 405.551 15.447 405.584 15.4139C405.617 15.3808 405.635 15.3359 405.635 15.2891L405.611 1.17631Z" stroke="white" stroke-width="2"/>
<path d="M172.058 71.5058C172.058 71.4649 172.042 71.4257 172.013 71.3969C171.984 71.368 171.945 71.3517 171.904 71.3517H135.05C135.01 71.3517 134.97 71.3355 134.942 71.3066C134.913 71.2777 134.896 71.2386 134.896 71.1977V48.5105C134.896 48.4696 134.913 48.4305 134.942 48.4016C134.97 48.3727 135.01 48.3565 135.05 48.3565H167.167C167.208 48.3565 167.247 48.3402 167.276 48.3113C167.305 48.2825 167.321 48.2433 167.321 48.2024V36.851C167.321 36.8101 167.305 36.771 167.276 36.7421C167.247 36.7132 167.208 36.697 167.167 36.697H135.055C135.014 36.697 134.975 36.6807 134.946 36.6519C134.917 36.623 134.901 36.5838 134.901 36.5429V15.5121C134.901 15.4919 134.905 15.4718 134.913 15.4531C134.92 15.4345 134.932 15.4175 134.946 15.4032C134.96 15.3889 134.977 15.3775 134.996 15.3698C135.015 15.362 135.035 15.3581 135.055 15.3581H171.335C171.376 15.3581 171.415 15.3418 171.444 15.3129C171.473 15.2841 171.489 15.2449 171.489 15.204V3.28782C171.489 3.24697 171.473 3.20779 171.444 3.17891C171.415 3.15002 171.376 3.13379 171.335 3.13379H118.902C118.861 3.13379 118.822 3.15002 118.793 3.17891C118.764 3.20779 118.748 3.24697 118.748 3.28782V83.4331C118.748 83.474 118.764 83.5132 118.793 83.5421C118.822 83.571 118.861 83.5872 118.902 83.5872H171.904C171.945 83.5872 171.984 83.571 172.013 83.5421C172.042 83.5132 172.058 83.474 172.058 83.4331V71.5058Z" stroke="white" stroke-width="2"/>
<path d="M78.6192 40.5499C79.9296 32.8774 79.4474 22.4992 72.4602 17.6462C68.1272 14.637 63.2161 13.2574 57.8205 12.6613C54.2086 12.264 50.1733 12.0288 45.7145 11.9559C33.6793 11.761 24.555 11.5906 18.3416 11.4447C18.3171 11.4443 18.2929 11.4496 18.2708 11.46C18.2486 11.4704 18.2292 11.4857 18.2141 11.5048C18.1989 11.5238 18.1885 11.546 18.1835 11.5697C18.1785 11.5934 18.1792 11.6178 18.1854 11.6412L23.2014 30.3593C23.2168 30.4157 23.2515 30.4651 23.2995 30.4989C23.3476 30.5327 23.406 30.5488 23.4648 30.5446C33.4568 29.8392 43.4643 29.5534 53.1504 30.2566C57.1553 30.5483 61.0507 31.1012 64.8367 31.9152C67.6569 32.5209 70.268 33.3975 72.67 34.5449C73.8874 35.1253 75.0244 35.8613 76.081 36.7527C77.34 37.8153 78.1102 39.0185 78.5031 40.5522C78.5065 40.5655 78.5144 40.5775 78.5255 40.586C78.5366 40.5945 78.5501 40.599 78.5639 40.5987C78.5776 40.5984 78.5906 40.5934 78.6007 40.5845C78.6108 40.5756 78.6173 40.5634 78.6192 40.5499Z" stroke="white" stroke-width="2"/>
<path d="M3.53235 42.3939C5.49904 47.3006 8.01488 51.8969 10.7294 56.7612C15.081 64.5565 19.1029 71.828 22.7952 78.5756C22.804 78.5917 22.8165 78.6056 22.8316 78.616C22.8467 78.6265 22.864 78.6333 22.8822 78.6359C22.9004 78.6385 22.919 78.6368 22.9364 78.631C22.9539 78.6252 22.9697 78.6154 22.9827 78.6024L36.6937 64.8914C36.7458 64.8402 36.7781 64.7723 36.7851 64.6996C36.792 64.6269 36.7731 64.5541 36.7317 64.494C31.6241 57.0916 27.0031 49.4123 22.8688 41.4563" stroke="white" stroke-width="2"/>
<path d="M22.8688 41.4562C20.8225 37.4782 19.0716 33.3849 17.6161 29.1762C16.5699 26.1476 15.9166 23.2434 15.6561 20.4634C15.3726 17.4385 15.6427 13.9338 18.0001 11.8064C18.0133 11.7963 18.0223 11.7818 18.0254 11.7655C18.0285 11.7492 18.0254 11.7324 18.0168 11.7182C18.0082 11.7041 17.9947 11.6936 17.9788 11.6888C17.9629 11.6841 17.9459 11.6854 17.9309 11.6925C16.3683 12.2952 14.8659 12.9649 13.4238 13.7016C7.64429 16.655 1.68842 21.6108 1.09238 28.5399C0.686097 33.2479 1.64154 37.8421 3.53233 42.3938" stroke="white" stroke-width="2"/>
<path d="M22.8688 41.4562C20.4088 41.1333 17.5767 41.0239 14.3726 41.1281C11.7354 41.2129 9.38032 41.3714 7.30723 41.6036C6.15385 41.7316 4.89556 41.995 3.53235 42.3938" stroke="white" stroke-width="2"/>
<path d="M294.589 82.7857C294.589 82.7699 294.593 82.7544 294.601 82.7405C294.608 82.7267 294.619 82.7149 294.632 82.7063C294.646 82.6977 294.661 82.6925 294.677 82.6912C294.692 82.6898 294.708 82.6924 294.723 82.6986C300.69 85.2681 307.681 85.3239 313.916 84.038C316.4 83.5261 318.801 82.5759 321.12 81.1873C324.885 78.9327 327.441 75.8223 328.788 71.8562C329.47 69.853 329.811 68.0493 329.813 66.445C329.826 52.1953 329.831 44.4014 329.828 43.0635C329.817 36.9 327.752 31.6697 322.674 27.9238C318.432 24.7941 313.09 23.7984 307.927 23.7806C301.992 23.7598 296.587 25.4184 291.711 28.7565C291.697 28.766 291.682 28.7723 291.665 28.7749C291.648 28.7775 291.631 28.7763 291.615 28.7713C291.599 28.7664 291.584 28.7579 291.572 28.7464C291.56 28.7349 291.55 28.7208 291.544 28.7051L290.187 25.1825C290.171 25.1443 290.145 25.1116 290.111 25.0885C290.077 25.0655 290.036 25.0531 289.995 25.053H279.884C279.86 25.053 279.837 25.0627 279.82 25.0798C279.802 25.097 279.793 25.1203 279.793 25.1445V105.79C279.793 105.827 279.807 105.862 279.833 105.888C279.859 105.914 279.895 105.928 279.931 105.928H294.437C294.457 105.928 294.477 105.924 294.495 105.917C294.513 105.909 294.53 105.898 294.544 105.884C294.558 105.87 294.57 105.853 294.577 105.835C294.585 105.816 294.589 105.796 294.589 105.777V82.7857Z" stroke="white" stroke-width="2"/>
<path d="M381.491 28.6605C378.161 26.9386 374.655 25.6565 370.973 24.8142C369.275 24.4257 367.297 24.1437 365.041 23.9681C358.257 23.4413 351.009 23.9123 345.325 27.8836C340.345 31.3616 338.986 36.9737 339.503 42.7688C339.843 46.566 341.321 50.5842 344.196 53.0688C345.977 54.6091 348.082 55.7781 350.511 56.5758C353.263 57.4807 358.037 58.9927 364.834 61.1119C367.086 61.8151 368.818 63.2996 369.214 65.6659C369.678 68.4295 369.051 71.6128 366.649 73.2201C365.012 74.314 362.925 74.5908 361.005 74.5439C354.565 74.3899 348.167 72.7558 342.236 70.231C342.219 70.2237 342.2 70.2202 342.182 70.2206C342.163 70.2209 342.145 70.2253 342.128 70.2333C342.111 70.2413 342.096 70.2528 342.084 70.267C342.072 70.2812 342.063 70.2979 342.057 70.3159L339.166 80.06C339.15 80.1159 339.154 80.1758 339.177 80.2291C339.2 80.2825 339.242 80.3261 339.294 80.3524C344.638 83.0312 350.527 84.3014 356.545 84.6675C362.686 85.0403 369.787 85.1609 375.19 81.6472C379.235 79.0153 382.085 74.6377 382.733 69.8047C383.429 64.6055 382.442 57.596 378.174 53.8993C376.137 52.1327 373.721 50.7933 370.928 49.8811C366.154 48.3229 361.876 46.9671 358.094 45.8137C357.323 45.5786 356.629 45.2862 356.012 44.9364C353.944 43.7645 353.406 41.262 353.75 39.0408C354.279 35.6209 356.746 34.4824 360.063 34.2279C361.679 34.1029 363.31 34.1379 364.954 34.3328C369.354 34.8552 374.044 35.9111 378.022 37.8889C378.037 37.8963 378.053 37.9004 378.069 37.9012C378.085 37.902 378.101 37.8993 378.117 37.8934C378.132 37.8876 378.146 37.8785 378.157 37.867C378.168 37.8555 378.177 37.8416 378.183 37.8264L381.574 28.8748C381.589 28.8355 381.589 28.792 381.574 28.7525C381.558 28.713 381.529 28.6802 381.491 28.6605Z" stroke="white" stroke-width="2"/>
<path d="M457.299 28.6606C453.969 26.9387 450.462 25.6566 446.78 24.8142C445.082 24.4258 443.105 24.1438 440.849 23.9682C434.065 23.4436 426.817 23.9146 421.133 27.8859C416.153 31.3639 414.796 36.976 415.313 42.7712C415.653 46.5684 417.131 50.5866 420.006 53.0712C421.787 54.6115 423.892 55.7797 426.321 56.5759C429.073 57.4808 433.847 58.9928 440.644 61.112C442.896 61.8152 444.628 63.2997 445.024 65.666C445.488 68.4296 444.861 71.6129 442.459 73.2202C440.822 74.3141 438.737 74.5909 436.818 74.544C430.377 74.39 423.979 72.7559 418.048 70.2334C418.031 70.2261 418.013 70.2225 417.994 70.2229C417.976 70.2233 417.957 70.2276 417.94 70.2356C417.924 70.2436 417.909 70.2551 417.896 70.2693C417.884 70.2836 417.875 70.3002 417.869 70.3182L414.979 80.0623C414.962 80.1183 414.966 80.1781 414.99 80.2315C415.013 80.2849 415.054 80.3285 415.106 80.3548C420.45 83.0313 426.339 84.3015 432.357 84.6676C438.498 85.0404 445.6 85.1588 451.002 81.6451C455.045 79.0131 457.895 74.6355 458.543 69.8025C459.239 64.6034 458.252 57.5939 453.984 53.8994C451.947 52.1328 449.531 50.7934 446.738 49.8812C441.964 48.323 437.686 46.9672 433.904 45.8138C433.133 45.5787 432.439 45.2863 431.822 44.9365C429.754 43.7668 429.216 41.2643 429.558 39.0432C430.087 35.6232 432.554 34.4847 435.871 34.228C437.487 34.103 439.118 34.138 440.762 34.3329C445.162 34.8553 449.852 35.9112 453.83 37.889C453.845 37.8964 453.861 37.9005 453.877 37.9013C453.893 37.9021 453.909 37.8994 453.924 37.8935C453.94 37.8877 453.953 37.8786 453.965 37.8671C453.976 37.8556 453.985 37.8417 453.991 37.8265L457.382 28.8749C457.397 28.8356 457.397 28.792 457.381 28.7526C457.366 28.7131 457.337 28.6803 457.299 28.6606Z" stroke="white" stroke-width="2"/>
<path d="M267.578 25.1826C267.578 25.1647 267.574 25.147 267.567 25.1305C267.56 25.1139 267.55 25.0989 267.538 25.0863C267.525 25.0736 267.51 25.0636 267.493 25.0568C267.477 25.0499 267.459 25.0464 267.441 25.0464H252.958C252.94 25.0464 252.922 25.0499 252.906 25.0568C252.889 25.0636 252.874 25.0736 252.862 25.0863C252.849 25.0989 252.839 25.1139 252.832 25.1305C252.825 25.147 252.822 25.1647 252.822 25.1826V83.4421C252.822 83.4782 252.836 83.5128 252.862 83.5384C252.887 83.5639 252.922 83.5782 252.958 83.5782H267.441C267.477 83.5782 267.512 83.5639 267.538 83.5384C267.563 83.5128 267.578 83.4782 267.578 83.4421V25.1826Z" stroke="white" stroke-width="2"/>
<path d="M405.563 25.1737C405.563 25.1393 405.549 25.1064 405.525 25.0821C405.501 25.0578 405.468 25.0442 405.433 25.0442H390.954C390.92 25.0442 390.887 25.0578 390.863 25.0821C390.838 25.1064 390.825 25.1393 390.825 25.1737V83.451C390.825 83.4854 390.838 83.5183 390.863 83.5426C390.887 83.5669 390.92 83.5805 390.954 83.5805H405.433C405.468 83.5805 405.501 83.5669 405.525 83.5426C405.549 83.5183 405.563 83.4854 405.563 83.451V25.1737Z" stroke="white" stroke-width="2"/>
<path d="M23.3868 78.9685C29.3761 83.9377 38.6046 88.7104 46.3017 85.0851C51.0744 82.8371 54.7265 79.2743 57.9389 74.8989C60.0894 71.9701 62.3105 68.5933 64.6024 64.7686C70.7904 54.4433 75.5007 46.6264 78.7331 41.3179C78.7458 41.2969 78.7536 41.2732 78.7557 41.2488C78.7579 41.2243 78.7544 41.1998 78.7455 41.177C78.7366 41.1543 78.7226 41.134 78.7046 41.1178C78.6865 41.1015 78.665 41.0898 78.6416 41.0835L59.9234 36.0697C59.867 36.0546 59.807 36.0597 59.7537 36.0841C59.7003 36.1085 59.657 36.1508 59.631 36.2036C55.2444 45.2111 50.4896 54.0199 45.036 62.0563C42.7813 65.3795 40.3548 68.4772 37.7563 71.3495C35.8216 73.4881 33.7567 75.3112 31.5616 76.8187C30.4499 77.5822 29.2444 78.1983 27.9452 78.6671C26.3937 79.2274 24.9673 79.2922 23.4426 78.8658C23.429 78.8615 23.4143 78.8621 23.4009 78.8675C23.3876 78.8728 23.3766 78.8825 23.3698 78.8949C23.3631 78.9073 23.3611 78.9215 23.3642 78.935C23.3673 78.9485 23.3753 78.9604 23.3868 78.9685Z" stroke="white" stroke-width="2"/>
<path d="M294.772 72.1018C297.165 73.3698 299.277 74.1712 302 74.4301C306.411 74.8476 313.184 74.4658 314.619 69.0681C314.865 68.1454 314.988 67.3276 314.988 66.6147C314.997 52.798 314.995 44.6686 314.983 42.2264C314.977 40.5299 314.631 38.8913 313.666 37.4716C312.367 35.5585 309.742 34.5785 307.429 34.3016C302.893 33.7614 298.876 34.6908 295.379 37.0898C294.994 37.3547 294.753 37.5601 294.658 37.706C294.614 37.7745 294.591 37.8543 294.591 37.9359L294.589 71.8004C294.589 71.8624 294.606 71.9233 294.638 71.9764C294.67 72.0295 294.717 72.0729 294.772 72.1018Z" stroke="white" stroke-width="2"/>
<path d="M184.671 1.00854L199.185 1.01078C199.232 1.01078 199.277 1.02912 199.31 1.06178C199.343 1.09443 199.362 1.13872 199.362 1.1849C199.362 2.86213 199.359 24.041 199.353 64.7216C199.351 65.25 199.463 66.1295 199.688 67.3603C200.382 71.1552 203.018 72.5661 206.568 73.0282C208.081 73.2231 209.73 73.2849 211.512 73.2135C211.533 73.2127 211.554 73.2164 211.573 73.2243C211.592 73.2321 211.61 73.244 211.624 73.2591C211.638 73.2741 211.649 73.292 211.655 73.3114C211.662 73.3309 211.664 73.3516 211.662 73.372L210.537 84.0961C210.534 84.128 210.519 84.1576 210.495 84.179C210.472 84.2005 210.441 84.2123 210.41 84.2122C203.956 84.2457 198.096 84.6497 192.549 81.8526C185.381 78.2362 184.53 70.4476 184.53 63.3175C184.53 30.0081 184.534 9.28158 184.541 1.13802C184.541 1.10368 184.555 1.07075 184.579 1.04647C184.604 1.02219 184.636 1.00854 184.671 1.00854Z" fill="white"/>
<path d="M219.89 1.01074H234.405C234.452 1.01074 234.497 1.02909 234.53 1.06174C234.563 1.0944 234.581 1.13868 234.581 1.18486C234.581 2.86209 234.581 24.0418 234.581 64.7239C234.581 65.2522 234.694 66.1317 234.918 67.3625C235.613 71.1552 238.249 72.5661 241.798 73.0281C243.312 73.2231 244.96 73.2849 246.743 73.2134C246.764 73.2127 246.785 73.2164 246.804 73.2243C246.823 73.2321 246.84 73.244 246.855 73.259C246.869 73.2741 246.88 73.2919 246.886 73.3114C246.893 73.3309 246.895 73.3515 246.893 73.3719L245.77 84.0961C245.766 84.128 245.752 84.1576 245.728 84.179C245.705 84.2005 245.674 84.2123 245.643 84.2121C239.189 84.2456 233.329 84.6519 227.782 81.8548C220.611 78.2406 219.761 70.452 219.759 63.3219C219.753 30.011 219.753 9.28378 219.761 1.14022C219.761 1.10588 219.774 1.07295 219.799 1.04866C219.823 1.02438 219.856 1.01074 219.89 1.01074Z" fill="white"/>
<path d="M267.446 1.00623H252.878C252.777 1.00623 252.695 1.08818 252.695 1.18928V15.2887C252.695 15.3898 252.777 15.4718 252.878 15.4718H267.446C267.547 15.4718 267.629 15.3898 267.629 15.2887V1.18928C267.629 1.08818 267.547 1.00623 267.446 1.00623Z" fill="white"/>
<path d="M405.434 1.00024L390.852 1.02569C390.755 1.02586 390.676 1.10496 390.676 1.20236L390.701 15.3152C390.701 15.4126 390.78 15.4914 390.878 15.4912L405.459 15.4658C405.557 15.4656 405.635 15.3865 405.635 15.2891L405.611 1.17629C405.61 1.07889 405.531 1.00007 405.434 1.00024Z" fill="white"/>
<path d="M172.058 71.5057V83.433C172.058 83.4739 172.042 83.5131 172.013 83.5419C171.984 83.5708 171.945 83.5871 171.904 83.5871H118.902C118.861 83.5871 118.822 83.5708 118.793 83.5419C118.764 83.5131 118.748 83.4739 118.748 83.433V3.2877C118.748 3.24685 118.764 3.20767 118.793 3.17878C118.822 3.1499 118.861 3.13367 118.902 3.13367H171.335C171.376 3.13367 171.415 3.1499 171.444 3.17878C171.473 3.20767 171.489 3.24685 171.489 3.2877V15.2039C171.489 15.2448 171.473 15.2839 171.444 15.3128C171.415 15.3417 171.376 15.3579 171.335 15.3579H135.055C135.035 15.3579 135.015 15.3619 134.996 15.3697C134.977 15.3774 134.96 15.3888 134.946 15.4031C134.932 15.4174 134.92 15.4343 134.913 15.453C134.905 15.4717 134.901 15.4917 134.901 15.512V36.5428C134.901 36.5837 134.917 36.6228 134.946 36.6517C134.975 36.6806 135.014 36.6968 135.055 36.6968H167.167C167.208 36.6968 167.247 36.7131 167.276 36.742C167.305 36.7708 167.321 36.81 167.321 36.8509V48.2023C167.321 48.2431 167.305 48.2823 167.276 48.3112C167.247 48.3401 167.208 48.3563 167.167 48.3563H135.05C135.01 48.3563 134.97 48.3726 134.942 48.4014C134.913 48.4303 134.896 48.4695 134.896 48.5104V71.1976C134.896 71.2384 134.913 71.2776 134.942 71.3065C134.97 71.3354 135.01 71.3516 135.05 71.3516H171.904C171.945 71.3516 171.984 71.3679 172.013 71.3967C172.042 71.4256 172.058 71.4648 172.058 71.5057Z" fill="white"/>
<path d="M78.6192 40.5499C78.6173 40.5634 78.6108 40.5756 78.6007 40.5845C78.5906 40.5934 78.5776 40.5984 78.5639 40.5987C78.5501 40.599 78.5366 40.5945 78.5255 40.586C78.5144 40.5775 78.5065 40.5655 78.5031 40.5522C78.1102 39.0185 77.34 37.8153 76.081 36.7527C75.0244 35.8613 73.8874 35.1253 72.67 34.5449C70.268 33.3975 67.6569 32.5209 64.8367 31.9152C61.0507 31.1012 57.1553 30.5483 53.1504 30.2566C43.4643 29.5534 33.4568 29.8392 23.4648 30.5446C23.406 30.5488 23.3476 30.5327 23.2995 30.4989C23.2515 30.4651 23.2168 30.4157 23.2014 30.3593L18.1854 11.6412C18.1792 11.6178 18.1785 11.5934 18.1835 11.5697C18.1885 11.546 18.1989 11.5238 18.2141 11.5048C18.2292 11.4857 18.2486 11.4704 18.2708 11.46C18.2929 11.4496 18.3171 11.4443 18.3416 11.4447C24.555 11.5906 33.6793 11.761 45.7145 11.9559C50.1733 12.0288 54.2086 12.264 57.8205 12.6613C63.2161 13.2574 68.1272 14.637 72.4602 17.6462C79.4474 22.4992 79.9296 32.8774 78.6192 40.5499Z" fill="white"/>
<path d="M22.8688 41.4562C20.4088 41.1333 17.5767 41.0239 14.3726 41.1281C11.7354 41.2129 9.3803 41.3714 7.30721 41.6036C6.15383 41.7316 4.89554 41.995 3.53233 42.3938C1.64154 37.8421 0.686097 33.2479 1.09238 28.5399C1.68842 21.6108 7.64429 16.655 13.4238 13.7016C14.8659 12.9649 16.3683 12.2952 17.9309 11.6925C17.9459 11.6854 17.9629 11.6841 17.9788 11.6888C17.9947 11.6936 18.0082 11.7041 18.0168 11.7182C18.0254 11.7324 18.0285 11.7492 18.0254 11.7655C18.0223 11.7818 18.0133 11.7963 18.0001 11.8064C15.6427 13.9338 15.3726 17.4385 15.6561 20.4634C15.9166 23.2434 16.5699 26.1476 17.6161 29.1762C19.0716 33.3849 20.8225 37.4782 22.8688 41.4562Z" fill="white"/>
<path d="M294.589 82.7857V105.777C294.589 105.796 294.585 105.816 294.577 105.835C294.57 105.853 294.558 105.87 294.544 105.884C294.53 105.898 294.513 105.909 294.495 105.917C294.477 105.924 294.457 105.928 294.437 105.928H279.931C279.895 105.928 279.859 105.914 279.833 105.888C279.807 105.862 279.793 105.827 279.793 105.79V25.1445C279.793 25.1203 279.802 25.097 279.82 25.0798C279.837 25.0627 279.86 25.053 279.884 25.053H289.995C290.036 25.0531 290.077 25.0655 290.111 25.0885C290.145 25.1116 290.171 25.1443 290.187 25.1825L291.544 28.7051C291.55 28.7208 291.56 28.7349 291.572 28.7464C291.584 28.7579 291.599 28.7664 291.615 28.7713C291.631 28.7763 291.648 28.7775 291.665 28.7749C291.682 28.7723 291.697 28.766 291.711 28.7565C296.587 25.4184 301.992 23.7598 307.927 23.7806C313.09 23.7984 318.432 24.7941 322.674 27.9238C327.752 31.6697 329.817 36.9 329.828 43.0635C329.831 44.4014 329.826 52.1953 329.813 66.445C329.811 68.0493 329.47 69.853 328.788 71.8562C327.441 75.8223 324.885 78.9327 321.12 81.1873C318.801 82.5759 316.4 83.5261 313.916 84.038C307.681 85.3239 300.69 85.2681 294.723 82.6986C294.708 82.6924 294.692 82.6898 294.677 82.6912C294.661 82.6925 294.646 82.6977 294.632 82.7063C294.619 82.7149 294.608 82.7267 294.601 82.7405C294.593 82.7544 294.589 82.7699 294.589 82.7857ZM294.772 72.1017C297.165 73.3697 299.277 74.1711 302 74.4301C306.411 74.8475 313.184 74.4658 314.62 69.068C314.865 68.1453 314.988 67.3275 314.988 66.6147C314.997 52.798 314.995 44.6686 314.983 42.2264C314.977 40.5298 314.631 38.8913 313.666 37.4715C312.367 35.5584 309.742 34.5784 307.429 34.3016C302.893 33.7614 298.876 34.6908 295.379 37.0898C294.994 37.3547 294.753 37.5601 294.658 37.7059C294.614 37.7745 294.591 37.8543 294.591 37.9358L294.589 71.8004C294.589 71.8624 294.606 71.9232 294.638 71.9763C294.67 72.0294 294.717 72.0728 294.772 72.1017Z" fill="white"/>
<path d="M381.491 28.6605C381.529 28.6802 381.558 28.713 381.574 28.7525C381.589 28.792 381.589 28.8355 381.574 28.8748L378.183 37.8264C378.177 37.8416 378.168 37.8555 378.157 37.867C378.146 37.8785 378.132 37.8876 378.117 37.8934C378.101 37.8993 378.085 37.902 378.069 37.9012C378.053 37.9004 378.037 37.8963 378.022 37.8889C374.044 35.9111 369.354 34.8552 364.954 34.3328C363.31 34.1379 361.679 34.1029 360.063 34.2279C356.746 34.4824 354.279 35.6209 353.75 39.0408C353.406 41.262 353.944 43.7645 356.012 44.9364C356.629 45.2862 357.323 45.5786 358.094 45.8137C361.876 46.9671 366.154 48.3229 370.928 49.8811C373.721 50.7933 376.137 52.1327 378.174 53.8993C382.442 57.596 383.429 64.6055 382.733 69.8047C382.085 74.6377 379.235 79.0153 375.19 81.6472C369.787 85.1609 362.686 85.0403 356.545 84.6675C350.527 84.3014 344.638 83.0312 339.294 80.3524C339.242 80.3261 339.2 80.2825 339.177 80.2291C339.154 80.1758 339.15 80.1159 339.166 80.06L342.057 70.3159C342.063 70.2979 342.072 70.2812 342.084 70.267C342.096 70.2528 342.111 70.2413 342.128 70.2333C342.145 70.2253 342.163 70.2209 342.182 70.2206C342.2 70.2202 342.219 70.2237 342.236 70.231C348.167 72.7558 354.565 74.3899 361.005 74.5439C362.925 74.5908 365.012 74.314 366.649 73.2201C369.051 71.6128 369.678 68.4295 369.214 65.6659C368.818 63.2996 367.086 61.8151 364.834 61.1119C358.037 58.9927 353.263 57.4807 350.511 56.5758C348.082 55.7781 345.977 54.6091 344.196 53.0688C341.321 50.5842 339.843 46.566 339.503 42.7688C338.986 36.9737 340.345 31.3616 345.325 27.8836C351.009 23.9123 358.257 23.4413 365.041 23.9681C367.297 24.1437 369.275 24.4257 370.973 24.8142C374.655 25.6565 378.161 26.9386 381.491 28.6605Z" fill="white"/>
<path d="M457.299 28.6604C457.337 28.6802 457.366 28.7129 457.381 28.7524C457.397 28.7919 457.397 28.8354 457.382 28.8747L453.991 37.8264C453.985 37.8416 453.976 37.8554 453.965 37.867C453.953 37.8785 453.94 37.8875 453.924 37.8934C453.909 37.8993 453.893 37.902 453.877 37.9012C453.861 37.9004 453.845 37.8962 453.83 37.8889C449.852 35.9111 445.162 34.8552 440.762 34.3328C439.118 34.1378 437.487 34.1029 435.871 34.2279C432.554 34.4846 430.087 35.6231 429.558 39.043C429.216 41.2642 429.754 43.7667 431.822 44.9364C432.439 45.2861 433.133 45.5786 433.904 45.8137C437.686 46.9671 441.964 48.3229 446.738 49.881C449.531 50.7933 451.947 52.1327 453.984 53.8992C458.252 57.5938 459.239 64.6033 458.543 69.8024C457.895 74.6354 455.045 79.013 451.002 81.6449C445.6 85.1586 438.498 85.0403 432.357 84.6675C426.339 84.3014 420.45 83.0312 415.106 80.3546C415.054 80.3283 415.013 80.2847 414.99 80.2314C414.966 80.178 414.962 80.1181 414.979 80.0622L417.869 70.3181C417.875 70.3001 417.884 70.2834 417.896 70.2692C417.909 70.255 417.924 70.2435 417.94 70.2355C417.957 70.2275 417.976 70.2231 417.994 70.2228C418.013 70.2224 418.031 70.2259 418.048 70.2332C423.979 72.7558 430.377 74.3898 436.818 74.5439C438.737 74.5908 440.822 74.3139 442.459 73.2201C444.861 71.6128 445.488 68.4295 445.024 65.6659C444.628 63.2996 442.896 61.8151 440.644 61.1119C433.847 58.9927 429.073 57.4806 426.321 56.5758C423.892 55.7796 421.787 54.6113 420.006 53.071C417.131 50.5864 415.653 46.5682 415.313 42.771C414.796 36.9759 416.153 31.3638 421.133 27.8858C426.817 23.9145 434.065 23.4435 440.849 23.9681C443.105 24.1437 445.082 24.4257 446.78 24.8141C450.462 25.6565 453.969 26.9386 457.299 28.6604Z" fill="white"/>
<path d="M267.441 25.0463H252.958C252.883 25.0463 252.822 25.1072 252.822 25.1824V83.442C252.822 83.5172 252.883 83.5781 252.958 83.5781H267.441C267.517 83.5781 267.578 83.5172 267.578 83.442V25.1824C267.578 25.1072 267.517 25.0463 267.441 25.0463Z" fill="white"/>
<path d="M405.433 25.0441H390.954C390.883 25.0441 390.825 25.102 390.825 25.1735V83.4509C390.825 83.5224 390.883 83.5804 390.954 83.5804H405.433C405.505 83.5804 405.563 83.5224 405.563 83.4509V25.1735C405.563 25.102 405.505 25.0441 405.433 25.0441Z" fill="white"/>
<path d="M23.3868 78.9684C23.3753 78.9603 23.3673 78.9484 23.3642 78.9349C23.3611 78.9214 23.3631 78.9072 23.3698 78.8948C23.3766 78.8824 23.3876 78.8727 23.4009 78.8673C23.4143 78.862 23.429 78.8614 23.4426 78.8657C24.9673 79.2921 26.3937 79.2273 27.9452 78.667C29.2444 78.1982 30.4499 77.5821 31.5616 76.8186C33.7567 75.3111 35.8216 73.488 37.7563 71.3494C40.3548 68.4771 42.7813 65.3794 45.036 62.0562C50.4896 54.0198 55.2444 45.211 59.631 36.2035C59.657 36.1506 59.7003 36.1084 59.7537 36.084C59.807 36.0595 59.867 36.0544 59.9234 36.0696L78.6416 41.0834C78.665 41.0897 78.6865 41.1014 78.7046 41.1176C78.7226 41.1339 78.7366 41.1542 78.7455 41.1769C78.7544 41.1996 78.7579 41.2242 78.7557 41.2486C78.7536 41.2731 78.7458 41.2968 78.7331 41.3178C75.5007 46.6263 70.7904 54.4432 64.6024 64.7685C62.3105 68.5932 60.0894 71.97 57.9389 74.8988C54.7265 79.2742 51.0744 82.837 46.3017 85.085C38.6046 88.7103 29.3761 83.9375 23.3868 78.9684Z" fill="white"/>
<path d="M22.8688 41.4562C27.0031 49.4123 31.6241 57.0915 36.7317 64.4939C36.7731 64.5541 36.792 64.6269 36.7851 64.6995C36.7781 64.7722 36.7458 64.8401 36.6937 64.8913L22.9827 78.6023C22.9697 78.6153 22.9539 78.6251 22.9364 78.6309C22.919 78.6368 22.9004 78.6384 22.8822 78.6358C22.864 78.6332 22.8467 78.6264 22.8316 78.616C22.8165 78.6055 22.804 78.5916 22.7952 78.5755C19.1029 71.8279 15.081 64.5564 10.7294 56.7611C8.01488 51.8969 5.49904 47.3005 3.53235 42.3938C4.89556 41.995 6.15385 41.7316 7.30723 41.6036C9.38032 41.3714 11.7354 41.2129 14.3726 41.1281C17.5767 41.0239 20.4088 41.1333 22.8688 41.4562Z" fill="white"/>
</svg>
