<svg width="274" height="65" viewBox="0 0 274 65" fill="none" xmlns="http://www.w3.org/2000/svg">
<path d="M43.2378 15.3005C43.5328 15.3449 43.6698 15.6915 43.4843 15.9254L41.2613 18.734C38.6053 22.0897 37.1603 26.2441 37.1603 30.5238V31.9402C37.1603 32.2396 36.9868 32.5118 36.7158 32.6384L35.8196 33.0566C32.2731 34.7114 29.4224 37.5621 27.7671 41.109L27.3489 42.0051C27.2224 42.2763 26.9501 42.4497 26.6508 42.4497H25.2343C20.9547 42.4497 16.8003 43.8948 13.4446 46.5508L10.6364 48.7738C10.4025 48.9588 10.0559 48.8218 10.0114 48.5268L8.22376 36.6592C7.14076 29.4694 4.59646 22.5775 0.747712 16.4087C0.404312 15.8582 0.486011 15.1437 0.944711 14.685L9.39596 6.23379C9.85466 5.77504 10.5692 5.69339 11.1197 6.03679C17.2885 9.88549 24.1804 12.4298 31.3702 13.5128L43.2378 15.3005Z" fill="#B8D9FF"/>
<path d="M25.2353 46.6353C25.4115 46.6353 25.556 46.7753 25.5619 46.9513L25.6342 49.0928C25.7765 53.2873 25.9182 57.4823 26.0598 61.6773C26.0853 62.4333 25.1201 62.7693 24.6703 62.1613C22.7391 59.5503 20.8078 56.9388 18.8759 54.3283L15.9681 50.3963C15.837 50.2193 15.8701 49.9698 16.043 49.8333C17.1915 48.9243 18.4674 48.1953 19.8204 47.6648C20.1842 47.5218 20.5544 47.3928 20.9292 47.2793C22.319 46.8558 23.7717 46.6353 25.2353 46.6353Z" fill="#B8D9FF"/>
<path d="M41.9907 31.0674V31.0637L41.8647 31.0595C41.5757 31.0497 41.3467 30.8127 41.3467 30.5237C41.3467 29.0601 41.5672 27.6074 41.9907 26.2176C42.1042 25.8428 42.2327 25.4731 42.3757 25.1092L42.3767 25.1083C42.8182 23.9827 43.4467 22.8473 44.1682 21.8364C44.4102 21.4981 44.8817 21.4366 45.2157 21.6838L49.7772 25.0578C52.0757 26.7584 54.3742 28.4584 56.6727 30.1586C57.2807 30.6083 56.9447 31.5735 56.1887 31.548C51.4557 31.3881 46.7232 31.2279 41.9907 31.0674Z" fill="#B8D9FF"/>
<path d="M39.6232 35.9016C39.9957 35.7276 40.4397 35.8771 40.6307 36.2413C43.8202 42.3099 47.0097 48.3788 50.1992 54.4473C50.5507 55.1168 49.8282 55.8398 49.1587 55.4878C46.7942 54.2453 44.4292 53.0023 42.0647 51.7598L30.9522 45.9198C30.588 45.7288 30.4385 45.2848 30.6125 44.9123L31.5612 42.8795C32.1782 41.5576 33.0134 40.3645 34.0444 39.3335C35.0754 38.3025 36.2689 37.4669 37.5902 36.8503L39.6232 35.9016Z" fill="#B8D9FF"/>
<path d="M85.5958 64.9849C76.1458 64.9849 70.3358 60.3649 69.6358 53.0149H76.7058C77.1258 56.8649 80.2758 59.3149 85.7358 59.3149C91.7558 59.3149 95.1158 56.3749 95.1158 49.7949V43.7049C92.5958 47.9749 88.8158 50.3549 83.7058 50.3549C75.2358 50.3549 68.6558 43.9849 68.6558 32.6449C68.6558 21.2349 75.2358 14.8649 83.7058 14.8649C88.8158 14.8649 92.6658 17.3149 95.1858 21.6549V15.5649H102.256V49.3749C102.256 59.3149 96.0958 64.9849 85.5958 64.9849ZM76.0058 33.5549C76.0058 40.5549 79.7158 44.4049 85.5958 44.4049C91.6158 44.4049 95.1158 40.3449 95.1158 34.0449V31.2449C95.1158 24.8049 91.6158 20.6749 85.5958 20.6749C79.7158 20.6749 76.0058 24.5949 76.0058 31.7349V33.5549ZM106.973 50.5649V15.5649H113.973V21.5849C116.143 16.7549 119.573 15.2149 123.843 15.2149H125.243V22.2849H120.833C116.283 22.2849 114.113 24.3849 114.113 29.4249V50.5649H106.973ZM142.761 51.2649C132.401 51.2649 125.331 44.1249 125.331 33.0649C125.331 22.0049 132.401 14.8649 142.481 14.8649C152.141 14.8649 158.721 21.3749 158.721 33.0649V35.0949H132.681C132.751 41.6049 136.811 45.4549 142.761 45.4549C147.521 45.4549 150.251 42.9349 151.091 39.9249H158.161C156.761 46.5749 151.161 51.2649 142.761 51.2649ZM132.681 29.8449H151.441C151.441 24.1749 147.731 20.6749 142.341 20.6749C137.021 20.6749 133.101 24.0349 132.681 29.8449ZM161.734 64.5649V15.5649H168.734V21.9349C171.254 17.3849 175.104 14.8649 180.354 14.8649C188.824 14.8649 195.264 21.3049 195.264 33.0649C195.264 44.8249 188.824 51.2649 180.354 51.2649C175.174 51.2649 171.394 48.8149 168.874 44.4749V64.5649H161.734ZM168.874 34.7449C168.874 41.1849 172.304 45.3849 178.324 45.3849C184.204 45.3849 187.984 41.4649 187.984 34.0449V32.1549C187.984 24.5949 184.204 20.6049 178.324 20.6049C172.304 20.6049 168.874 24.8749 168.874 31.4549V34.7449ZM208.129 50.5649C201.689 50.5649 199.379 47.8349 199.379 42.0949V21.7249H194.689V15.5649H199.379V6.81489L206.519 5.76489V15.5649H213.449V21.7249H206.519V41.3949C206.519 43.8449 207.219 44.4049 209.529 44.4049H213.449V50.5649H208.129ZM216.222 50.5649V15.5649H223.362V50.5649H216.222ZM215.942 9.40489H223.572V1.84489H215.942V9.40489ZM228.119 50.5649V0.514893H235.259V44.5449H238.549V50.5649H228.119ZM257.14 51.2649C246.78 51.2649 239.71 44.1249 239.71 33.0649C239.71 22.0049 246.78 14.8649 256.86 14.8649C266.52 14.8649 273.1 21.3749 273.1 33.0649V35.0949H247.06C247.13 41.6049 251.19 45.4549 257.14 45.4549C261.9 45.4549 264.63 42.9349 265.47 39.9249H272.54C271.14 46.5749 265.54 51.2649 257.14 51.2649ZM247.06 29.8449H265.82C265.82 24.1749 262.11 20.6749 256.72 20.6749C251.4 20.6749 247.48 24.0349 247.06 29.8449Z" fill="#B8D9FF"/>
</svg>
