<svg width="653" height="191" viewBox="0 0 653 191" fill="none" xmlns="http://www.w3.org/2000/svg">
<g clip-path="url(#clip0_561_7528)">
<path d="M87.9404 0.194557C60.8948 2.36837 36.0447 15.9653 19.4424 37.6608C17.7374 39.8983 13.6667 45.9296 13.6667 46.228C13.6667 46.3346 18.867 46.4198 25.7722 46.4198C32.5708 46.4198 38.6875 46.5264 39.7744 46.6331C45.3796 47.2725 49.855 49.3823 53.4355 53.0694C56.6753 56.394 58.5933 59.9955 59.9147 65.1744C61.0014 69.3939 61.044 70.2041 61.1721 84.9942L61.2999 98.9535L65.6475 80.5189C68.0346 70.3744 70.2725 61.1463 70.6135 60.017C72.8084 52.6217 76.3252 47.6135 80.5236 45.9725C81.5041 45.5889 82.1861 45.4823 83.8912 45.4823C85.8092 45.4608 86.1502 45.5249 87.2158 46.0577C89.4537 47.1444 91.1584 49.5315 92.0962 52.8561C93.2896 57.0545 93.247 55.6904 93.3751 92.2403C93.4814 123.59 93.5244 126.105 93.8654 127.128C94.6536 129.472 96.3376 130.261 97.5521 128.854C98.3197 127.938 99.5556 125.252 100.387 122.716C100.749 121.608 104.266 107.393 108.187 91.1536C112.109 74.8927 115.604 60.656 115.945 59.5053C118.779 50.0002 123.745 44.9921 129.926 45.3971C134.273 45.6952 136.788 49.1053 138.067 56.4365C138.387 58.2268 138.451 61.8072 138.557 88.0844L138.685 117.708L139.154 119.498C140.411 124.272 143.246 127.171 147.295 127.831C148.212 127.98 154.776 128.044 167.009 128.001L185.338 127.938L186.041 125.913C187.022 123.078 188.322 118.241 189.068 114.724C191.22 104.324 191.583 93.0715 190.133 82.3731C186.425 55.3283 171.165 31.0541 148.254 15.7948C134.913 6.90777 118.993 1.45196 102.667 0.173245C99.513 -0.0611845 91.0947 -0.0611845 87.9404 0.194557Z" fill="white"/>
<path d="M82.8049 54.6655C81.4412 55.2623 79.9916 57.7131 78.5854 61.8264C78.1588 63.0623 73.9819 80.197 69.2928 99.9106C64.6042 119.645 60.5975 136.14 60.3632 136.567C60.1288 137.014 59.596 137.718 59.1698 138.123C58.4448 138.826 58.296 138.869 57.0386 138.869C55.7382 138.869 55.6319 138.826 54.8218 138.037C53.0741 136.332 53.2233 139.231 53.0956 102.958C52.9679 71.2037 52.9679 70.6279 52.5202 68.7525C51.2202 63.1264 48.5136 59.269 44.5066 57.3721C41.0113 55.7311 40.1804 55.6459 23.0878 55.6459L8.6593 55.6244L7.46579 58.4592C0.858976 74.1017 -1.44276 91.5563 0.880288 108.563C4.58866 135.608 19.8483 159.882 42.7589 175.141C49.6855 179.745 58.3811 183.922 66.4159 186.479C79.949 190.805 94.4204 192.041 108.572 190.123C137.386 186.159 162.918 169.152 177.837 143.941C178.626 142.619 179.734 140.573 180.33 139.401L181.396 137.27H164.815C154.457 137.27 147.573 137.185 146.444 137.036C139.027 136.119 133.976 131.495 131.759 123.588C130.566 119.368 130.609 120.221 130.459 87.6138C130.374 66.7705 130.246 57.2018 130.097 56.6475C129.479 54.4952 129.159 54.1967 128.051 54.6655C126.453 55.326 124.684 58.2459 123.405 62.2525C123.064 63.3607 119.569 77.4478 115.647 93.5594C111.726 109.65 108.124 123.993 107.655 125.4C105.993 130.365 103.99 133.946 101.645 136.119C99.4927 138.08 97.4892 138.762 94.8251 138.357C90.6693 137.718 87.9837 134.947 86.4709 129.79C85.3838 126.039 85.4263 126.955 85.2771 90.9169C85.1494 55.2198 85.1709 56.1787 84.1904 54.9213C83.7002 54.2819 83.6787 54.2819 82.8049 54.6655Z" fill="white"/>
<path d="M269.692 140.162C266.297 140.162 264.599 138.38 264.599 134.814V81.7163C264.599 78.2357 266.254 76.4956 269.565 76.4956C272.961 76.4956 274.658 78.2357 274.658 81.7163V87.8283C276.526 84.0931 279.115 81.2495 282.426 79.297C285.736 77.2596 289.599 76.241 294.013 76.241C303.69 76.241 309.887 80.443 312.604 88.847C314.471 84.9422 317.23 81.8862 320.88 79.679C324.531 77.387 328.733 76.241 333.486 76.241C347.238 76.241 354.114 84.3903 354.114 100.689V134.814C354.114 138.38 352.374 140.162 348.894 140.162C345.498 140.162 343.8 138.38 343.8 134.814V101.198C343.8 95.5109 342.782 91.3511 340.744 88.7196C338.792 86.0031 335.524 84.645 330.94 84.645C325.931 84.645 321.942 86.4276 318.97 89.993C315.999 93.5583 314.514 98.3122 314.514 104.254V134.814C314.514 138.38 312.774 140.162 309.293 140.162C305.898 140.162 304.2 138.38 304.2 134.814V101.198C304.2 95.5109 303.181 91.3511 301.144 88.7196C299.191 86.0031 295.923 84.645 291.339 84.645C286.246 84.645 282.214 86.4276 279.242 89.993C276.356 93.5583 274.913 98.3122 274.913 104.254V134.814C274.913 138.38 273.173 140.162 269.692 140.162Z" fill="white"/>
<path d="M397.847 140.417C391.82 140.417 386.599 139.101 382.185 136.47C377.77 133.838 374.332 130.146 371.871 125.392C369.494 120.553 368.305 114.866 368.305 108.329C368.305 101.792 369.494 96.1475 371.871 91.3936C374.332 86.555 377.77 82.8197 382.185 80.1883C386.599 77.5569 391.82 76.241 397.847 76.241C403.79 76.241 408.967 77.5569 413.38 80.1883C417.88 82.8197 421.318 86.555 423.694 91.3936C426.157 96.1475 427.387 101.792 427.387 108.329C427.387 114.866 426.157 120.553 423.694 125.392C421.318 130.146 417.88 133.838 413.38 136.47C408.967 139.101 403.79 140.417 397.847 140.417ZM397.847 132.14C403.619 132.14 408.247 130.103 411.725 126.028C415.206 121.869 416.945 115.969 416.945 108.329C416.945 100.604 415.206 94.7043 411.725 90.6296C408.247 86.555 403.619 84.5176 397.847 84.5176C391.989 84.5176 387.32 86.555 383.84 90.6296C380.444 94.7043 378.747 100.604 378.747 108.329C378.747 115.969 380.444 121.869 383.84 126.028C387.32 130.103 391.989 132.14 397.847 132.14Z" fill="white"/>
<path d="M465.813 140.417C458.515 140.417 453.04 138.507 449.387 134.687C445.738 130.782 443.912 125.18 443.912 117.879V85.4091H435.38C432.412 85.4091 430.924 84.051 430.924 81.3344C430.924 78.703 432.412 77.3871 435.38 77.3871H443.912V62.7437C443.912 59.2632 445.654 57.5231 449.132 57.5231C452.53 57.5231 454.226 59.2632 454.226 62.7437V77.3871H470.27C473.242 77.3871 474.726 78.703 474.726 81.3344C474.726 84.051 473.242 85.4091 470.27 85.4091H454.226V116.86C454.226 121.699 455.244 125.392 457.282 127.938C459.319 130.4 462.63 131.631 467.214 131.631C468.829 131.631 470.186 131.461 471.288 131.122C472.394 130.782 473.369 130.612 474.217 130.612C474.981 130.528 475.618 130.782 476.127 131.376C476.636 131.97 476.891 132.989 476.891 134.432C476.891 135.451 476.68 136.385 476.254 137.234C475.916 138.082 475.279 138.677 474.344 139.016C473.326 139.356 471.969 139.653 470.27 139.908C468.658 140.247 467.174 140.417 465.813 140.417Z" fill="white"/>
<path d="M490.066 62.4889C485.569 62.4889 483.317 60.3668 483.317 56.1223C483.317 51.9628 485.569 49.8829 490.066 49.8829C494.566 49.8829 496.814 51.9628 496.814 56.1223C496.814 60.3668 494.566 62.4889 490.066 62.4889ZM490.066 139.908C486.672 139.908 484.972 138.04 484.972 134.305V82.2256C484.972 78.5755 486.672 76.7503 490.066 76.7503C493.548 76.7503 495.286 78.5755 495.286 82.2256V134.305C495.286 138.04 493.548 139.908 490.066 139.908Z" fill="white"/>
<path d="M539.017 140.417C532.989 140.417 527.768 139.101 523.355 136.47C518.943 133.838 515.505 130.146 513.041 125.392C510.666 120.553 509.476 114.866 509.476 108.329C509.476 101.792 510.666 96.1475 513.041 91.3936C515.505 86.555 518.943 82.8197 523.355 80.1883C527.768 77.5569 532.989 76.241 539.017 76.241C544.958 76.241 550.139 77.5569 554.552 80.1883C559.053 82.8197 562.491 86.555 564.866 91.3936C567.329 96.1475 568.559 101.792 568.559 108.329C568.559 114.866 567.329 120.553 564.866 125.392C562.491 130.146 559.053 133.838 554.552 136.47C550.139 139.101 544.958 140.417 539.017 140.417ZM539.017 132.14C544.791 132.14 549.415 130.103 552.897 126.028C556.379 121.869 558.117 115.969 558.117 108.329C558.117 100.604 556.379 94.7043 552.897 90.6296C549.415 86.555 544.791 84.5176 539.017 84.5176C533.16 84.5176 528.493 86.555 525.011 90.6296C521.617 94.7043 519.917 100.604 519.917 108.329C519.917 115.969 521.617 121.869 525.011 126.028C528.493 130.103 533.16 132.14 539.017 132.14Z" fill="white"/>
<path d="M587.87 140.162C584.476 140.162 582.777 138.38 582.777 134.814V81.7163C582.777 78.2357 584.432 76.4956 587.743 76.4956C591.137 76.4956 592.836 78.2357 592.836 81.7163V87.9556C594.874 84.0509 597.758 81.1222 601.495 79.1696C605.231 77.2171 609.433 76.241 614.101 76.241C628.788 76.241 636.13 84.3903 636.13 100.689V134.814C636.13 138.38 634.43 140.162 631.036 140.162C627.554 140.162 625.815 138.38 625.815 134.814V101.326C625.815 95.5531 624.67 91.3511 622.378 88.7196C620.169 86.0031 616.604 84.645 611.681 84.645C605.995 84.645 601.451 86.4276 598.057 89.993C594.746 93.4735 593.091 98.1423 593.091 104V134.814C593.091 138.38 591.352 140.162 587.87 140.162Z" fill="white"/>
</g>
<defs>
<clipPath id="clip0_561_7528">
<rect width="652.583" height="191" fill="white"/>
</clipPath>
</defs>
</svg>
