<svg width="327" height="96" viewBox="0 0 327 96" fill="none" xmlns="http://www.w3.org/2000/svg">
<g clip-path="url(#clip0_561_7528)">
<path d="M44.4444 0.0972785C30.9216 1.18419 18.4966 7.98266 10.1954 18.8304C9.34294 19.9492 7.30762 22.9648 7.30762 23.114C7.30762 23.1673 9.90772 23.2099 13.3603 23.2099C16.7597 23.2099 19.818 23.2632 20.3615 23.3165C23.1641 23.6363 25.4017 24.6911 27.192 26.5347C28.8119 28.197 29.7709 29.9978 30.4316 32.5872C30.975 34.6969 30.9963 35.102 31.0603 42.4971L31.1242 49.4768L33.298 40.2594C34.4916 35.1872 35.6105 30.5731 35.781 30.0085C36.8785 26.3109 38.6368 23.8068 40.7361 22.9863C41.2263 22.7945 41.5673 22.7411 42.4198 22.7411C43.3788 22.7304 43.5493 22.7624 44.0821 23.0288C45.2011 23.5722 46.0534 24.7657 46.5224 26.428C47.119 28.5273 47.0978 27.8452 47.1618 46.1201C47.2149 61.7951 47.2364 63.0525 47.4069 63.5638C47.8011 64.7361 48.6431 65.1304 49.2503 64.4271C49.6341 63.9689 50.252 62.6261 50.6677 61.3582C50.8487 60.8041 52.6071 53.6965 54.5678 45.5768C56.5286 37.4464 58.2762 30.328 58.4467 29.7526C59.8639 25.0001 62.3469 22.496 65.4371 22.6986C67.611 22.8476 68.8684 24.5527 69.5078 28.2183C69.6676 29.1134 69.6996 30.9036 69.7529 44.0422L69.8168 58.8541L70.0512 59.749C70.6799 62.1361 72.0973 63.5853 74.1219 63.9156C74.5801 63.9902 77.8623 64.022 83.9789 64.0007L93.1433 63.9689L93.4948 62.9566C93.9851 61.5392 94.6351 59.1205 95.0081 57.3621C96.0843 52.1621 96.2655 46.5358 95.5409 41.1866C93.6866 27.6642 86.0568 15.527 74.6013 7.8974C67.9307 3.45389 59.9706 0.725982 51.8079 0.0866225C50.2308 -0.0305922 46.0216 -0.0305922 44.4444 0.0972785Z" fill="#B8D9FF"/>
<path d="M41.8766 27.3328C41.1947 27.6312 40.4699 28.8566 39.7668 30.9132C39.5535 31.5312 37.465 40.0986 35.1205 49.9554C32.7762 59.8227 30.7729 68.0703 30.6557 68.2834C30.5385 68.5072 30.2721 68.859 30.059 69.0613C29.6965 69.4131 29.6221 69.4344 28.9934 69.4344C28.3432 69.4344 28.2901 69.4131 27.885 69.0187C27.0112 68.1662 27.0858 69.6154 27.0219 51.4792C26.9581 35.6019 26.9581 35.314 26.7342 34.3763C26.0842 31.5632 24.7309 29.6345 22.7274 28.6861C20.9798 27.8656 20.5643 27.823 12.018 27.823L4.80377 27.8123L4.20702 29.2297C0.903609 37.0509 -0.247257 45.7782 0.914265 54.2817C2.76845 67.8039 10.3983 79.941 21.8536 87.5706C25.3169 89.8724 29.6647 91.961 33.6821 93.2397C40.4486 95.4028 47.6843 96.0208 54.7599 95.0618C69.1671 93.0798 81.9332 84.5763 89.3926 71.9705C89.7869 71.3097 90.341 70.2867 90.6393 69.7008L91.1721 68.6352H82.8817C77.7028 68.6352 74.2608 68.5926 73.696 68.518C69.9876 68.0598 67.4622 65.7475 66.3538 61.794C65.7571 59.6842 65.7784 60.1104 65.7038 43.8069C65.6612 33.3853 65.5974 28.601 65.5228 28.3238C65.2138 27.2476 65.0538 27.0984 64.4997 27.3328C63.7005 27.6631 62.8161 29.123 62.1767 31.1263C62.0062 31.6804 60.2585 38.724 58.2978 46.7798C56.337 54.8251 54.5363 61.9965 54.3017 62.6998C53.4707 65.1826 52.4689 66.9729 51.2966 68.0598C50.2205 69.04 49.2187 69.3811 47.8867 69.1785C45.8088 68.859 44.466 67.4736 43.7096 64.8949C43.166 63.0195 43.1873 63.4778 43.1127 45.4585C43.0488 27.6099 43.0596 28.0894 42.5693 27.4607C42.3242 27.141 42.3135 27.141 41.8766 27.3328Z" fill="#B8D9FF"/>
<path d="M135.32 70.0813C133.622 70.0813 132.773 69.1899 132.773 67.4073V40.8583C132.773 39.118 133.601 38.2479 135.256 38.2479C136.954 38.2479 137.803 39.118 137.803 40.8583V43.9143C138.737 42.0467 140.031 40.6249 141.687 39.6486C143.342 38.6299 145.273 38.1206 147.48 38.1206C152.319 38.1206 155.417 40.2216 156.776 44.4236C157.709 42.4712 159.089 40.9432 160.914 39.8396C162.739 38.6936 164.84 38.1206 167.217 38.1206C174.093 38.1206 177.531 42.1953 177.531 50.3446V67.4073C177.531 69.1899 176.661 70.0813 174.921 70.0813C173.223 70.0813 172.374 69.1899 172.374 67.4073V50.5993C172.374 47.7556 171.865 45.6756 170.846 44.3599C169.87 43.0016 168.236 42.3226 165.944 42.3226C163.439 42.3226 161.445 43.2139 159.959 44.9966C158.473 46.7793 157.731 49.1562 157.731 52.1273V67.4073C157.731 69.1899 156.861 70.0813 155.12 70.0813C153.423 70.0813 152.574 69.1899 152.574 67.4073V50.5993C152.574 47.7556 152.064 45.6756 151.046 44.3599C150.069 43.0016 148.435 42.3226 146.143 42.3226C143.597 42.3226 141.581 43.2139 140.095 44.9966C138.652 46.7793 137.93 49.1562 137.93 52.1273V67.4073C137.93 69.1899 137.06 70.0813 135.32 70.0813Z" fill="#B8D9FF"/>
<path d="M199.398 70.2086C196.384 70.2086 193.774 69.5507 191.567 68.2349C189.36 66.9192 187.641 65.0729 186.41 62.6959C185.221 60.2766 184.627 57.4329 184.627 54.1646C184.627 50.8963 185.221 48.0739 186.41 45.6969C187.641 43.2776 189.36 41.41 191.567 40.0943C193.774 38.7786 196.384 38.1206 199.398 38.1206C202.369 38.1206 204.958 38.7786 207.164 40.0943C209.415 41.41 211.134 43.2776 212.321 45.6969C213.553 48.0739 214.168 50.8963 214.168 54.1646C214.168 57.4329 213.553 60.2766 212.321 62.6959C211.134 65.0729 209.415 66.9192 207.164 68.2349C204.958 69.5507 202.369 70.2086 199.398 70.2086ZM199.398 66.0703C202.284 66.0703 204.598 65.0516 206.337 63.0143C208.078 60.9346 208.947 57.9846 208.947 54.1646C208.947 50.3022 208.078 47.3523 206.337 45.3149C204.598 43.2776 202.284 42.2589 199.398 42.2589C196.469 42.2589 194.135 43.2776 192.394 45.3149C190.697 47.3523 189.848 50.3022 189.848 54.1646C189.848 57.9846 190.697 60.9346 192.394 63.0143C194.135 65.0516 196.469 66.0703 199.398 66.0703Z" fill="#B8D9FF"/>
<path d="M233.38 70.2085C229.731 70.2085 226.994 69.2535 225.167 67.3435C223.343 65.3911 222.43 62.5898 222.43 58.9395V42.7045H218.164C216.68 42.7045 215.936 42.0254 215.936 40.6671C215.936 39.3514 216.68 38.6935 218.164 38.6935H222.43V31.3718C222.43 29.6315 223.301 28.7615 225.04 28.7615C226.739 28.7615 227.587 29.6315 227.587 31.3718V38.6935H235.609C237.095 38.6935 237.837 39.3514 237.837 40.6671C237.837 42.0254 237.095 42.7045 235.609 42.7045H227.587V58.4301C227.587 60.8495 228.096 62.6958 229.115 63.9691C230.133 65.2001 231.789 65.8155 234.081 65.8155C234.888 65.8155 235.567 65.7305 236.118 65.5608C236.671 65.3911 237.158 65.3061 237.582 65.3061C237.964 65.2638 238.283 65.3911 238.537 65.6881C238.792 65.9852 238.919 66.4945 238.919 67.2161C238.919 67.7255 238.814 68.1924 238.601 68.6168C238.432 69.0412 238.113 69.3384 237.646 69.5081C237.137 69.6779 236.458 69.8265 235.609 69.9538C234.803 70.1235 234.061 70.2085 233.38 70.2085Z" fill="#B8D9FF"/>
<path d="M245.507 31.2444C243.259 31.2444 242.133 30.1834 242.133 28.0611C242.133 25.9814 243.259 24.9414 245.507 24.9414C247.757 24.9414 248.881 25.9814 248.881 28.0611C248.881 30.1834 247.757 31.2444 245.507 31.2444ZM245.507 69.9537C243.81 69.9537 242.96 69.02 242.96 67.1524V41.1127C242.96 39.2877 243.81 38.3751 245.507 38.3751C247.248 38.3751 248.117 39.2877 248.117 41.1127V67.1524C248.117 69.02 247.248 69.9537 245.507 69.9537Z" fill="#B8D9FF"/>
<path d="M269.983 70.2086C266.968 70.2086 264.358 69.5507 262.152 68.2349C259.945 66.9192 258.226 65.0729 256.995 62.6959C255.807 60.2766 255.212 57.4329 255.212 54.1646C255.212 50.8963 255.807 48.0739 256.995 45.6969C258.226 43.2776 259.945 41.41 262.152 40.0943C264.358 38.7786 266.968 38.1206 269.983 38.1206C272.953 38.1206 275.543 38.7786 277.75 40.0943C280 41.41 281.719 43.2776 282.907 45.6969C284.138 48.0739 284.753 50.8963 284.753 54.1646C284.753 57.4329 284.138 60.2766 282.907 62.6959C281.719 65.0729 280 66.9192 277.75 68.2349C275.543 69.5507 272.953 70.2086 269.983 70.2086ZM269.983 66.0703C272.869 66.0703 275.181 65.0516 276.922 63.0143C278.663 60.9346 279.533 57.9846 279.533 54.1646C279.533 50.3022 278.663 47.3523 276.922 45.3149C275.181 43.2776 272.869 42.2589 269.983 42.2589C267.054 42.2589 264.72 43.2776 262.979 45.3149C261.282 47.3523 260.433 50.3022 260.433 54.1646C260.433 57.9846 261.282 60.9346 262.979 63.0143C264.72 65.0516 267.054 66.0703 269.983 66.0703Z" fill="#B8D9FF"/>
<path d="M294.409 70.0813C292.712 70.0813 291.862 69.1899 291.862 67.4073V40.8583C291.862 39.118 292.69 38.2479 294.345 38.2479C296.042 38.2479 296.892 39.118 296.892 40.8583V43.9779C297.911 42.0256 299.353 40.5612 301.221 39.5849C303.09 38.6087 305.191 38.1206 307.524 38.1206C314.868 38.1206 318.539 42.1953 318.539 50.3446V67.4073C318.539 69.1899 317.689 70.0813 315.992 70.0813C314.251 70.0813 313.382 69.1899 313.382 67.4073V50.6629C313.382 47.7767 312.809 45.6756 311.663 44.3599C310.558 43.0016 308.776 42.3226 306.315 42.3226C303.472 42.3226 301.199 43.2139 299.502 44.9966C297.847 46.7369 297.019 49.0713 297.019 51.9999V67.4073C297.019 69.1899 296.15 70.0813 294.409 70.0813Z" fill="#B8D9FF"/>
</g>
<defs>
<clipPath id="clip0_561_7528">
<rect width="326.292" height="95.5" fill="white" transform="translate(0.474121)"/>
</clipPath>
</defs>
</svg>
