<svg width="1190" height="200" viewBox="0 0 1190 200" fill="none" xmlns="http://www.w3.org/2000/svg">
<path d="M104.15 0C118.023 1.07333 130.387 5.46667 141.24 13.18C145.387 16.1267 150.423 20.6667 156.35 26.8C161.797 32.4267 166.61 37.2367 170.79 41.23C179.33 49.39 185.263 56.0933 188.59 61.34C204.39 86.23 203.69 117.67 186.77 141.28C183.79 145.433 179.263 150.447 173.19 156.32C167.937 161.4 163.137 166.2 158.79 170.72C150.723 179.113 144.113 185.007 138.96 188.4C130.92 193.693 121.76 197.193 111.48 198.9C109.067 199.3 106.653 199.667 104.24 200H96.53C82.2433 199.033 69.5433 194.553 58.43 186.56C54.4167 183.673 49.51 179.233 43.71 173.24C39.0967 168.467 34.4 163.777 29.62 159.17C21.1067 150.957 15.1467 144.27 11.74 139.11C4.86 128.697 0.946667 116.923 0 103.79V95.85C0.986667 82.9567 4.85667 71.35 11.61 61.03C14.9033 56.0033 20.28 49.88 27.74 42.66C32.8467 37.7267 37.87 32.7133 42.81 27.62C49.2367 21 54.4833 16.2333 58.55 13.32C69.3167 5.6 81.6167 1.16 95.45 0H104.15ZM171.49 128.9C179.937 116.16 182.38 102.407 178.82 87.64C176.647 78.6 172.537 71.0333 166.49 64.94C149.09 47.4 138.887 37.16 135.88 34.22C129.767 28.2467 122.867 24.1333 115.18 21.88C71.76 9.15 35.12 52.21 53.46 92.97C55.91 98.41 59.9 103.82 64.07 107.98C80.4233 124.313 89.3433 133.25 90.83 134.79C94.41 138.48 98.41 140.58 103.05 139.03C108.98 137.06 112.19 130.9 109.96 125.02C109.473 123.74 108.153 122.01 106 119.83C96.9467 110.663 89.2433 102.993 82.89 96.82C77.9767 92.04 74.73 88.0733 73.15 84.92C66.12 70.89 70.84 52.67 84.88 44.91C97.28 38.06 111.63 39.92 121.83 50.17C135.53 63.93 143.497 71.8933 145.73 74.06C152.17 80.3 156.787 85.6033 159.58 89.97C167 101.543 170.843 114.48 171.11 128.78C171.111 128.824 171.125 128.867 171.152 128.902C171.178 128.938 171.215 128.964 171.257 128.977C171.299 128.99 171.344 128.99 171.386 128.976C171.428 128.962 171.464 128.936 171.49 128.9ZM28.53 71.15C20.09 83.8967 17.6567 97.6533 21.23 112.42C23.4033 121.46 27.5167 129.023 33.57 135.11C50.9833 152.637 61.1933 162.87 64.2 165.81C70.32 171.783 77.2233 175.893 84.91 178.14C128.35 190.84 164.96 147.75 146.59 107C144.14 101.56 140.14 96.16 135.97 92C119.603 75.6733 110.677 66.74 109.19 65.2C105.61 61.52 101.61 59.42 96.97 60.97C91.04 62.95 87.83 69.11 90.07 74.99C90.5567 76.27 91.8767 78 94.03 80.18C103.09 89.34 110.8 97.0033 117.16 103.17C122.073 107.95 125.323 111.917 126.91 115.07C133.95 129.09 129.24 147.32 115.2 155.09C102.8 161.95 88.45 160.1 78.24 149.85C64.5333 136.097 56.5633 128.14 54.33 125.98C47.8833 119.74 43.2633 114.437 40.47 110.07C33.0367 98.5033 29.1833 85.57 28.91 71.27C28.9093 71.2259 28.8948 71.1832 28.8684 71.1478C28.8421 71.1124 28.8053 71.0863 28.7633 71.073C28.7212 71.0597 28.6761 71.06 28.6342 71.0738C28.5923 71.0877 28.5559 71.1143 28.53 71.15Z" fill="white"/>
<path d="M784.74 52.38V74.17C784.74 74.2575 784.705 74.3414 784.643 74.4033C784.582 74.4652 784.498 74.5 784.41 74.5H762.78C762.679 74.5 762.583 74.54 762.511 74.6113C762.44 74.6826 762.4 74.7792 762.4 74.88C762.34 91.9933 762.353 106.62 762.44 118.76C762.48 124.173 765.17 126.973 770.51 127.16C774.923 127.32 779.883 127.333 785.39 127.2C785.454 127.199 785.518 127.21 785.577 127.234C785.636 127.257 785.69 127.292 785.736 127.337C785.782 127.382 785.818 127.435 785.843 127.494C785.867 127.553 785.88 127.616 785.88 127.68V149.39C785.88 149.542 785.82 149.688 785.714 149.797C785.607 149.905 785.462 149.967 785.31 149.97C775.843 150.043 767.413 150.017 760.02 149.89C754.347 149.797 749.33 148.253 744.97 145.26C738.38 140.74 735.63 131.83 735.58 124.4C735.48 110.367 735.46 93.8767 735.52 74.93C735.52 74.8735 735.509 74.8176 735.488 74.7654C735.467 74.7133 735.436 74.6659 735.397 74.6259C735.358 74.586 735.312 74.5543 735.261 74.5327C735.21 74.5111 735.155 74.5 735.1 74.5H719.7C719.546 74.5 719.399 74.4389 719.29 74.3301C719.181 74.2213 719.12 74.0738 719.12 73.92V52.36C719.12 52.1982 719.184 52.0431 719.299 51.9287C719.413 51.8143 719.568 51.75 719.73 51.75H734.95C735.062 51.75 735.168 51.7057 735.247 51.627C735.326 51.5482 735.37 51.4414 735.37 51.33V24.64C735.37 24.5875 735.38 24.5354 735.401 24.4869C735.421 24.4384 735.45 24.3943 735.487 24.3571C735.524 24.32 735.569 24.2905 735.617 24.2704C735.666 24.2503 735.718 24.24 735.77 24.24H761.95C762.005 24.24 762.06 24.2509 762.111 24.272C762.162 24.2931 762.208 24.324 762.247 24.363C762.286 24.402 762.317 24.4483 762.338 24.4993C762.359 24.5502 762.37 24.6048 762.37 24.66V51.2C762.37 51.3459 762.429 51.4858 762.534 51.5889C762.639 51.692 762.782 51.75 762.93 51.75H784.11C784.277 51.75 784.437 51.8164 784.556 51.9345C784.674 52.0527 784.74 52.2129 784.74 52.38Z" fill="white"/>
<path d="M1122.39 51.75H1137.62C1137.67 51.75 1137.72 51.7404 1137.77 51.7218C1137.81 51.7033 1137.85 51.676 1137.89 51.6416C1137.92 51.6073 1137.95 51.5665 1137.97 51.5216C1137.99 51.4767 1138 51.4286 1138 51.38V24.57C1138 24.4878 1138.03 24.4089 1138.09 24.3508C1138.15 24.2927 1138.24 24.26 1138.32 24.26H1164.41C1164.57 24.26 1164.72 24.3222 1164.83 24.4328C1164.94 24.5435 1165 24.6935 1165 24.85V51.22C1165 51.3606 1165.06 51.4954 1165.16 51.5948C1165.26 51.6942 1165.4 51.75 1165.54 51.75H1186.82C1186.97 51.75 1187.11 51.809 1187.22 51.914C1187.32 52.0191 1187.38 52.1615 1187.38 52.31V73.88C1187.38 73.9614 1187.36 74.042 1187.33 74.1173C1187.3 74.1925 1187.26 74.2608 1187.2 74.3184C1187.14 74.376 1187.07 74.4217 1187 74.4528C1186.92 74.484 1186.84 74.5 1186.76 74.5H1165.32C1165.23 74.5 1165.14 74.5369 1165.07 74.6025C1165.01 74.6682 1164.97 74.7572 1164.97 74.85C1165.01 89.0967 1165.01 103.417 1164.98 117.81C1164.96 124.283 1168.29 127.453 1174.98 127.32C1181.61 127.187 1185.93 127.173 1187.93 127.28C1188.08 127.288 1188.23 127.354 1188.33 127.466C1188.44 127.578 1188.5 127.726 1188.5 127.88V149.36C1188.5 149.522 1188.44 149.677 1188.32 149.791C1188.21 149.906 1188.05 149.97 1187.89 149.97C1176.81 150.03 1166.82 150.51 1158.13 149.53C1156.98 149.397 1155.77 149.163 1154.48 148.83C1146.81 146.843 1141.78 142.12 1139.37 134.66C1138.42 131.713 1137.95 127.913 1137.97 123.26C1138.06 101.62 1138.05 85.55 1137.95 75.05C1137.95 74.9033 1137.89 74.7634 1137.79 74.6605C1137.68 74.5577 1137.54 74.5 1137.4 74.5H1122.34C1122.26 74.5 1122.19 74.4847 1122.11 74.4551C1122.04 74.4254 1121.98 74.382 1121.92 74.3272C1121.87 74.2724 1121.82 74.2074 1121.79 74.1358C1121.77 74.0642 1121.75 73.9875 1121.75 73.91V52.39C1121.75 52.306 1121.77 52.2227 1121.8 52.1451C1121.83 52.0674 1121.88 51.9969 1121.94 51.9375C1122 51.878 1122.07 51.8309 1122.15 51.7987C1122.22 51.7666 1122.31 51.75 1122.39 51.75Z" fill="white"/>
<path d="M250.15 118.1C250.143 118.008 250.155 117.915 250.186 117.828C250.217 117.741 250.265 117.661 250.328 117.594C250.391 117.526 250.467 117.472 250.552 117.435C250.636 117.399 250.728 117.38 250.82 117.38H275.29C275.387 117.381 275.481 117.416 275.554 117.478C275.628 117.54 275.676 117.626 275.69 117.72C276.85 125.16 282.77 129.84 290 131.21C297.51 132.63 315.27 132.52 315.25 121.05C315.23 115.4 311.06 113.58 305.97 112.58C289.24 109.29 256.02 110.24 252.5 87.13C251.633 81.49 252.293 76.0933 254.48 70.94C264.36 47.67 299.56 46.79 319.15 54.81C330.67 59.52 339.13 68.89 339.91 81.69C339.913 81.7468 339.904 81.8036 339.885 81.857C339.865 81.9103 339.836 81.959 339.797 82.0001C339.759 82.0413 339.713 82.074 339.662 82.0963C339.611 82.1186 339.556 82.1301 339.5 82.13H314.78C314.662 82.1295 314.548 82.0873 314.457 82.0108C314.366 81.9342 314.303 81.8279 314.28 81.71C312.11 70.42 298.27 68.26 288.8 70.17C283.73 71.19 278.38 73.93 278.03 79.52C277.64 85.95 284.46 87.58 289.35 88.17C303.17 89.83 319.09 90.75 331.38 98.25C336.193 101.183 339.25 105.503 340.55 111.21C344.12 126.88 337.16 139.21 323.37 145.85C300 157.09 252.1 152.18 250.15 118.1Z" fill="white"/>
<path d="M794.32 117.38H818.8C818.897 117.381 818.991 117.416 819.064 117.478C819.137 117.54 819.186 117.626 819.2 117.72C820.36 125.16 826.28 129.84 833.51 131.22C841.02 132.64 858.78 132.53 858.76 121.06C858.74 115.4 854.57 113.58 849.48 112.58C832.75 109.29 799.52 110.24 796 87.13C795.14 81.49 795.803 76.0933 797.99 70.94C807.87 47.67 843.07 46.79 862.66 54.81C874.18 59.52 882.65 68.89 883.42 81.69C883.422 81.7468 883.414 81.8036 883.395 81.857C883.375 81.9103 883.345 81.959 883.307 82.0001C883.269 82.0413 883.223 82.074 883.171 82.0963C883.12 82.1186 883.065 82.1301 883.01 82.13H858.29C858.172 82.1295 858.058 82.0873 857.966 82.0108C857.875 81.9342 857.813 81.8279 857.79 81.71C855.62 70.42 841.78 68.26 832.31 70.17C827.24 71.19 821.89 73.93 821.54 79.52C821.15 85.95 827.97 87.58 832.86 88.17C846.68 89.83 862.6 90.75 874.89 98.25C879.703 101.183 882.76 105.507 884.06 111.22C887.63 126.89 880.67 139.22 866.88 145.86C843.51 157.1 795.6 152.19 793.65 118.1C793.643 118.008 793.655 117.915 793.686 117.828C793.716 117.741 793.765 117.661 793.827 117.594C793.89 117.526 793.967 117.472 794.051 117.435C794.136 117.399 794.227 117.38 794.32 117.38Z" fill="white"/>
<path d="M602.13 117.48C597.91 138.56 580.84 149.94 559.98 151.09C522.99 153.12 499.04 128.62 504.26 91.52C507.72 66.96 525.63 52.11 549.99 50.69C583.51 48.74 608.09 72.46 603.1 106.44C603.078 106.595 603.001 106.737 602.881 106.84C602.762 106.942 602.609 106.999 602.45 107H532.07C532.007 107 531.945 107.013 531.888 107.038C531.831 107.063 531.779 107.099 531.737 107.146C531.694 107.192 531.662 107.246 531.642 107.305C531.622 107.365 531.614 107.428 531.62 107.49C532.77 122.15 541.59 131.85 557.37 130.61C566.02 129.94 573.05 125.96 575.48 117.33C575.529 117.163 575.63 117.016 575.767 116.912C575.904 116.807 576.07 116.75 576.24 116.75H601.53C601.62 116.75 601.71 116.77 601.792 116.808C601.873 116.847 601.946 116.903 602.003 116.973C602.061 117.043 602.102 117.124 602.124 117.212C602.146 117.3 602.148 117.391 602.13 117.48ZM532.57 89.34L576.41 89.42C576.414 89.42 576.418 89.4192 576.421 89.4177C576.425 89.4162 576.428 89.414 576.431 89.4112C576.434 89.4084 576.436 89.4051 576.438 89.4014C576.439 89.3978 576.44 89.3939 576.44 89.39V89.25C576.449 84.331 574.157 79.6092 570.067 76.123C565.977 72.6369 560.424 70.6718 554.63 70.66H554.43C551.56 70.6541 548.717 71.1283 546.064 72.0554C543.411 72.9825 540.999 74.3443 538.966 76.0632C536.933 77.7821 535.32 79.8243 534.217 82.0732C533.114 84.322 532.544 86.7335 532.54 89.17V89.31C532.54 89.3179 532.543 89.3256 532.549 89.3312C532.554 89.3368 532.562 89.34 532.57 89.34Z" fill="white"/>
<path d="M712.61 116.75C712.7 116.75 712.79 116.769 712.871 116.808C712.953 116.847 713.026 116.903 713.083 116.973C713.14 117.042 713.182 117.124 713.204 117.212C713.225 117.3 713.228 117.391 713.21 117.48C708.99 138.56 691.91 149.94 671.05 151.09C634.06 153.12 610.1 128.62 615.32 91.51C618.79 66.95 636.7 52.0999 661.06 50.6799C694.59 48.7299 719.17 72.45 714.18 106.44C714.158 106.595 714.08 106.737 713.961 106.84C713.842 106.942 713.689 106.999 713.53 107H643.14C643.077 107 643.015 107.013 642.958 107.038C642.9 107.063 642.849 107.099 642.807 107.146C642.764 107.192 642.732 107.246 642.712 107.305C642.692 107.365 642.684 107.428 642.69 107.49C643.84 122.15 652.66 131.85 668.44 130.61C677.09 129.94 684.12 125.96 686.55 117.33C686.599 117.163 686.7 117.016 686.837 116.912C686.974 116.807 687.14 116.75 687.31 116.75H712.61ZM643.62 89.33L687.46 89.41C687.465 89.41 687.47 89.4078 687.474 89.4041C687.478 89.4003 687.48 89.3953 687.48 89.3899V89.26C687.489 84.3357 685.192 79.6088 681.095 76.1189C676.997 72.629 671.434 70.6618 665.63 70.65H665.53C662.655 70.6441 659.807 71.1188 657.149 72.0469C654.49 72.975 652.074 74.3383 650.038 76.059C648.001 77.7798 646.384 79.8242 645.28 82.0755C644.175 84.3268 643.604 86.7409 643.6 89.18V89.3099C643.6 89.3153 643.602 89.3203 643.606 89.3241C643.609 89.3278 643.614 89.33 643.62 89.33Z" fill="white"/>
<path d="M926.92 64.6501C927.173 64.3301 928.75 62.7534 931.65 59.9201C943.16 48.6501 962.98 48.5101 976.87 54.8701C990.18 60.9701 998.85 74.4101 1001.42 88.8001C1004.71 107.32 1001.03 128.57 985.75 141.19C977.183 148.277 966.867 151.59 954.8 151.13C943.933 150.717 934.96 146.453 927.88 138.34C927.841 138.295 927.79 138.263 927.732 138.248C927.675 138.233 927.614 138.237 927.559 138.257C927.503 138.278 927.455 138.315 927.422 138.364C927.388 138.413 927.37 138.471 927.37 138.53V187.91C927.37 188 927.335 188.087 927.273 188.15C927.212 188.214 927.128 188.25 927.04 188.25H900.95C900.796 188.25 900.649 188.189 900.54 188.08C900.431 187.971 900.37 187.824 900.37 187.67V52.1001C900.37 52.0072 900.407 51.9182 900.473 51.8526C900.538 51.7869 900.627 51.7501 900.72 51.7501H923.33C923.493 51.7492 923.652 51.8054 923.78 51.9092C923.907 52.013 923.996 52.1581 924.03 52.3201L926.42 64.5201C926.428 64.573 926.452 64.6222 926.488 64.6617C926.523 64.7012 926.571 64.7295 926.623 64.7432C926.676 64.7568 926.731 64.7553 926.784 64.7388C926.837 64.7223 926.884 64.6915 926.92 64.6501ZM975.21 100.83C975.19 85.9701 967.41 72.6701 951.07 72.6901C934.73 72.7101 926.98 86.0301 927 100.88C927.02 115.74 934.79 129.03 951.14 129.02C967.48 129 975.22 115.68 975.21 100.83Z" fill="white"/>
<path d="M1065.63 50.6601C1096.19 50.8001 1117.29 70.0401 1117.14 101.14C1116.99 132.24 1095.71 151.28 1065.15 151.13C1034.6 150.99 1013.5 131.75 1013.64 100.65C1013.79 69.5501 1035.07 50.5101 1065.63 50.6601ZM1041.22 100.87C1041.21 115.81 1049.01 129.21 1065.45 129.22C1081.9 129.23 1089.72 115.85 1089.73 100.9C1089.74 85.9501 1081.93 72.5601 1065.49 72.5501C1049.05 72.5401 1041.23 85.9201 1041.22 100.87Z" fill="white"/>
<path d="M435.37 52.01L452.95 119.99C452.971 120.062 453.014 120.126 453.074 120.172C453.133 120.217 453.206 120.243 453.281 120.244C453.356 120.245 453.43 120.222 453.491 120.178C453.552 120.134 453.597 120.072 453.62 120L473.25 52C473.271 51.9287 473.315 51.8659 473.374 51.821C473.433 51.776 473.506 51.7512 473.58 51.75H500.36C500.415 51.7504 500.47 51.7638 500.519 51.7891C500.568 51.8145 500.61 51.8511 500.642 51.896C500.674 51.9408 500.695 51.9927 500.704 52.0472C500.712 52.1018 500.707 52.1576 500.69 52.21L468.64 149.76C468.617 149.829 468.573 149.89 468.514 149.933C468.454 149.976 468.383 150 468.31 150H439.93C439.856 149.999 439.783 149.974 439.724 149.929C439.665 149.884 439.621 149.821 439.6 149.75L422.96 91.16C422.939 91.0878 422.896 91.0241 422.836 90.9784C422.777 90.9327 422.704 90.9074 422.629 90.9063C422.554 90.9052 422.48 90.9282 422.419 90.9721C422.358 91.016 422.313 91.0784 422.29 91.15L405.38 149.75C405.359 149.821 405.315 149.884 405.256 149.929C405.197 149.974 405.124 149.999 405.05 150H376.63C376.557 150 376.486 149.976 376.426 149.933C376.367 149.89 376.323 149.829 376.3 149.76L344.4 52.21C344.383 52.1576 344.378 52.1018 344.386 52.0472C344.395 51.9927 344.416 51.9408 344.448 51.896C344.48 51.8511 344.522 51.8145 344.571 51.7891C344.621 51.7638 344.675 51.7504 344.73 51.75H372.54C372.615 51.7512 372.687 51.776 372.746 51.821C372.805 51.8659 372.849 51.9287 372.87 52L392.12 119.81C392.14 119.886 392.184 119.953 392.247 120C392.309 120.048 392.386 120.073 392.464 120.072C392.542 120.071 392.618 120.043 392.679 119.994C392.74 119.945 392.783 119.876 392.8 119.8L410.93 52.01C410.95 51.9352 410.994 51.869 411.056 51.822C411.117 51.7749 411.193 51.7496 411.27 51.75H435.03C435.108 51.7496 435.183 51.7749 435.244 51.822C435.306 51.869 435.35 51.9352 435.37 52.01Z" fill="white"/>
</svg>
