<svg width="595" height="101" viewBox="0 0 595 101" fill="none" xmlns="http://www.w3.org/2000/svg">
<g clip-path="url(#clip0_561_7538)">
<path d="M52.075 0.122314C59.0117 0.658981 65.1933 2.85565 70.62 6.71231C72.6933 8.18565 75.2117 10.4556 78.175 13.5223C80.8983 16.3356 83.305 18.7406 85.395 20.7373C89.665 24.8173 92.6317 28.169 94.295 30.7923C102.195 43.2373 101.845 58.9573 93.385 70.7623C91.895 72.839 89.6317 75.3456 86.595 78.2823C83.9683 80.8223 81.5683 83.2223 79.395 85.4823C75.3617 89.679 72.0567 92.6256 69.48 94.3223C65.46 96.969 60.88 98.719 55.74 99.5723C54.5333 99.7723 53.3267 99.9557 52.12 100.122H48.265C41.1217 99.639 34.7717 97.399 29.215 93.4023C27.2083 91.959 24.755 89.739 21.855 86.7423C19.5483 84.3557 17.2 82.0107 14.81 79.7073C10.5533 75.6006 7.57333 72.2573 5.87 69.6773C2.43 64.4706 0.473333 58.584 0 52.0173V48.0473C0.493333 41.6006 2.42833 35.7973 5.805 30.6373C7.45167 28.124 10.14 25.0623 13.87 21.4523C16.4233 18.9856 18.935 16.479 21.405 13.9323C24.6183 10.6223 27.2417 8.23898 29.275 6.78231C34.6583 2.92231 40.8083 0.702314 47.725 0.122314H52.075ZM85.745 64.5723C89.9683 58.2023 91.19 51.3256 89.41 43.9423C88.3233 39.4223 86.2683 35.639 83.245 32.5923C74.545 23.8223 69.4433 18.7023 67.94 17.2323C64.8833 14.2456 61.4333 12.189 57.59 11.0623C35.88 4.69731 17.56 26.2273 26.73 46.6073C27.955 49.3273 29.95 52.0323 32.035 54.1123C40.2117 62.279 44.6717 66.7473 45.415 67.5173C47.205 69.3623 49.205 70.4123 51.525 69.6373C54.49 68.6523 56.095 65.5723 54.98 62.6323C54.7367 61.9923 54.0767 61.1273 53 60.0373C48.4733 55.454 44.6217 51.619 41.445 48.5323C38.9883 46.1423 37.365 44.159 36.575 42.5823C33.06 35.5673 35.42 26.4573 42.44 22.5773C48.64 19.1523 55.815 20.0823 60.915 25.2073C67.765 32.0873 71.7483 36.069 72.865 37.1523C76.085 40.2723 78.3933 42.924 79.79 45.1073C83.5 50.894 85.4217 57.3623 85.555 64.5123C85.5553 64.5344 85.5626 64.5557 85.5758 64.5734C85.589 64.5911 85.6074 64.6042 85.6284 64.6108C85.6494 64.6175 85.672 64.6173 85.6929 64.6104C85.7138 64.6035 85.7321 64.5902 85.745 64.5723ZM14.265 35.6973C10.045 42.0706 8.82833 48.949 10.615 56.3323C11.7017 60.8523 13.7583 64.634 16.785 67.6773C25.4917 76.4407 30.5967 81.5573 32.1 83.0273C35.16 86.014 38.6117 88.069 42.455 89.1923C64.175 95.5423 82.48 73.9973 73.295 53.6223C72.07 50.9023 70.07 48.2023 67.985 46.1223C59.8017 37.959 55.3383 33.4923 54.595 32.7223C52.805 30.8823 50.805 29.8323 48.485 30.6073C45.52 31.5973 43.915 34.6773 45.035 37.6173C45.2783 38.2573 45.9383 39.1223 47.015 40.2123C51.545 44.7923 55.4 48.624 58.58 51.7073C61.0367 54.0973 62.6617 56.0806 63.455 57.6573C66.975 64.6673 64.62 73.7823 57.6 77.6673C51.4 81.0973 44.225 80.1723 39.12 75.0473C32.2667 68.1707 28.2817 64.1923 27.165 63.1123C23.9417 59.9923 21.6317 57.3406 20.235 55.1573C16.5183 49.374 14.5917 42.9073 14.455 35.7573C14.4547 35.7353 14.4474 35.7139 14.4342 35.6962C14.4211 35.6785 14.4027 35.6655 14.3816 35.6588C14.3606 35.6522 14.338 35.6523 14.3171 35.6592C14.2962 35.6661 14.2779 35.6795 14.265 35.6973Z" fill="#B8D9FF"/>
<path d="M392.37 26.3124V37.2074C392.37 37.2512 392.353 37.2932 392.322 37.3241C392.291 37.355 392.249 37.3724 392.205 37.3724H381.39C381.34 37.3724 381.291 37.3925 381.256 37.4281C381.22 37.4637 381.2 37.512 381.2 37.5624C381.17 46.1191 381.177 53.4324 381.22 59.5024C381.24 62.2091 382.585 63.6091 385.255 63.7024C387.462 63.7824 389.942 63.7891 392.695 63.7224C392.727 63.7218 392.759 63.7275 392.788 63.7392C392.818 63.751 392.845 63.7686 392.868 63.7909C392.891 63.8133 392.909 63.84 392.921 63.8694C392.934 63.8989 392.94 63.9305 392.94 63.9624V74.8174C392.94 74.8935 392.91 74.9665 392.857 75.0207C392.804 75.075 392.731 75.1061 392.655 75.1074C387.922 75.1441 383.707 75.1308 380.01 75.0674C377.173 75.0208 374.665 74.2491 372.485 72.7524C369.19 70.4924 367.815 66.0374 367.79 62.3224C367.74 55.3058 367.73 47.0608 367.76 37.5874C367.76 37.5592 367.755 37.5312 367.744 37.5052C367.734 37.4791 367.718 37.4554 367.699 37.4354C367.679 37.4154 367.656 37.3996 367.63 37.3888C367.605 37.378 367.578 37.3724 367.55 37.3724H359.85C359.773 37.3724 359.699 37.3419 359.645 37.2875C359.591 37.2331 359.56 37.1593 359.56 37.0824V26.3024C359.56 26.2215 359.592 26.144 359.649 26.0868C359.707 26.0296 359.784 25.9974 359.865 25.9974H367.475C367.531 25.9974 367.584 25.9753 367.624 25.9359C367.663 25.8965 367.685 25.8431 367.685 25.7874V12.4424C367.685 12.4162 367.69 12.3902 367.7 12.3659C367.71 12.3416 367.725 12.3196 367.744 12.301C367.762 12.2824 367.784 12.2677 367.809 12.2577C367.833 12.2476 367.859 12.2424 367.885 12.2424H380.975C381.003 12.2424 381.03 12.2479 381.055 12.2584C381.081 12.269 381.104 12.2844 381.124 12.3039C381.143 12.3234 381.159 12.3466 381.169 12.3721C381.18 12.3975 381.185 12.4249 381.185 12.4524V25.7224C381.185 25.7954 381.215 25.8653 381.267 25.9169C381.32 25.9685 381.391 25.9974 381.465 25.9974H392.055C392.139 25.9974 392.219 26.0306 392.278 26.0897C392.337 26.1488 392.37 26.2289 392.37 26.3124Z" fill="#B8D9FF"/>
<path d="M561.195 25.9974H568.81C568.835 25.9974 568.86 25.9927 568.883 25.9834C568.906 25.9741 568.927 25.9604 568.944 25.9433C568.962 25.9261 568.976 25.9057 568.986 25.8832C568.995 25.8608 569 25.8367 569 25.8124V12.4074C569 12.3663 569.017 12.3269 569.047 12.2978C569.077 12.2688 569.118 12.2524 569.16 12.2524H582.205C582.283 12.2524 582.358 12.2835 582.414 12.3388C582.469 12.3942 582.5 12.4692 582.5 12.5474V25.7324C582.5 25.8027 582.528 25.8701 582.579 25.9198C582.63 25.9695 582.698 25.9974 582.77 25.9974H593.41C593.484 25.9974 593.555 26.0269 593.608 26.0795C593.66 26.132 593.69 26.2032 593.69 26.2774V37.0624C593.69 37.1031 593.682 37.1435 593.666 37.1811C593.651 37.2187 593.628 37.2529 593.599 37.2816C593.57 37.3104 593.536 37.3333 593.499 37.3488C593.461 37.3644 593.421 37.3724 593.38 37.3724H582.66C582.614 37.3724 582.569 37.3909 582.536 37.4237C582.503 37.4565 582.485 37.501 582.485 37.5474C582.505 44.6708 582.507 51.8308 582.49 59.0274C582.48 62.2641 584.147 63.8491 587.49 63.7824C590.807 63.7158 592.965 63.7091 593.965 63.7624C594.042 63.7663 594.114 63.7996 594.167 63.8554C594.221 63.9113 594.25 63.9854 594.25 64.0624V74.8024C594.25 74.8833 594.218 74.9609 594.161 75.0181C594.103 75.0753 594.026 75.1074 593.945 75.1074C588.405 75.1374 583.41 75.3774 579.065 74.8874C578.492 74.8208 577.883 74.7041 577.24 74.5374C573.407 73.5441 570.888 71.1824 569.685 67.4524C569.208 65.9791 568.975 64.0791 568.985 61.7524C569.028 50.9324 569.025 42.8974 568.975 37.6474C568.974 37.5741 568.944 37.5041 568.893 37.4527C568.841 37.4013 568.772 37.3725 568.7 37.3724H561.17C561.131 37.3724 561.093 37.3648 561.057 37.35C561.021 37.3352 560.989 37.3134 560.961 37.286C560.934 37.2586 560.912 37.2261 560.897 37.1903C560.883 37.1545 560.875 37.1162 560.875 37.0774V26.3174C560.875 26.2754 560.883 26.2338 560.899 26.195C560.915 26.1562 560.939 26.1209 560.969 26.0912C560.998 26.0615 561.034 26.0379 561.073 26.0218C561.111 26.0057 561.153 25.9974 561.195 25.9974Z" fill="#B8D9FF"/>
<path d="M125.075 59.1724C125.072 59.1264 125.078 59.0801 125.093 59.0365C125.108 58.993 125.133 58.953 125.164 58.9192C125.195 58.8854 125.234 58.8585 125.276 58.8401C125.318 58.8217 125.364 58.8123 125.41 58.8124H137.645C137.694 58.8129 137.741 58.8303 137.777 58.8614C137.814 58.8926 137.838 58.9354 137.845 58.9824C138.425 62.7024 141.385 65.0424 145 65.7274C148.755 66.4374 157.635 66.3824 157.625 60.6474C157.615 57.8224 155.53 56.9124 152.985 56.4124C144.62 54.7674 128.01 55.2424 126.25 43.6874C125.817 40.8674 126.147 38.1691 127.24 35.5924C132.18 23.9574 149.78 23.5174 159.575 27.5274C165.335 29.8824 169.565 34.5674 169.955 40.9674C169.957 40.9958 169.952 41.0243 169.943 41.0509C169.933 41.0776 169.918 41.1019 169.899 41.1225C169.88 41.1431 169.857 41.1594 169.831 41.1706C169.805 41.1818 169.778 41.1875 169.75 41.1874H157.39C157.331 41.1872 157.274 41.1661 157.228 41.1278C157.183 41.0895 157.152 41.0364 157.14 40.9774C156.055 35.3324 149.135 34.2524 144.4 35.2074C141.865 35.7174 139.19 37.0874 139.015 39.8824C138.82 43.0974 142.23 43.9124 144.675 44.2074C151.585 45.0374 159.545 45.4974 165.69 49.2474C168.097 50.7141 169.625 52.8741 170.275 55.7274C172.06 63.5624 168.58 69.7274 161.685 73.0474C150 78.6674 126.05 76.2124 125.075 59.1724Z" fill="#B8D9FF"/>
<path d="M397.16 58.8124H409.4C409.449 58.8129 409.496 58.8303 409.532 58.8614C409.569 58.8926 409.593 58.9354 409.6 58.9824C410.18 62.7024 413.14 65.0424 416.755 65.7324C420.51 66.4424 429.39 66.3874 429.38 60.6524C429.37 57.8224 427.285 56.9124 424.74 56.4124C416.375 54.7674 399.76 55.2424 398 43.6874C397.57 40.8674 397.902 38.1691 398.995 35.5924C403.935 23.9574 421.535 23.5174 431.33 27.5274C437.09 29.8824 441.325 34.5674 441.71 40.9674C441.711 40.9958 441.707 41.0243 441.697 41.0509C441.688 41.0776 441.673 41.1019 441.654 41.1225C441.635 41.1431 441.612 41.1594 441.586 41.1706C441.56 41.1818 441.533 41.1875 441.505 41.1874H429.145C429.086 41.1872 429.029 41.1661 428.983 41.1278C428.938 41.0895 428.907 41.0364 428.895 40.9774C427.81 35.3324 420.89 34.2524 416.155 35.2074C413.62 35.7174 410.945 37.0874 410.77 39.8824C410.575 43.0974 413.985 43.9124 416.43 44.2074C423.34 45.0374 431.3 45.4974 437.445 49.2474C439.852 50.7141 441.38 52.8758 442.03 55.7324C443.815 63.5674 440.335 69.7324 433.44 73.0524C421.755 78.6724 397.8 76.2174 396.825 59.1724C396.822 59.1264 396.828 59.0801 396.843 59.0365C396.858 58.993 396.883 58.953 396.914 58.9192C396.945 58.8854 396.984 58.8585 397.026 58.8401C397.068 58.8217 397.114 58.8123 397.16 58.8124Z" fill="#B8D9FF"/>
<path d="M301.065 58.8624C298.955 69.4024 290.42 75.0924 279.99 75.6674C261.495 76.6824 249.52 64.4324 252.13 45.8824C253.86 33.6024 262.815 26.1774 274.995 25.4674C291.755 24.4924 304.045 36.3524 301.55 53.3424C301.539 53.4198 301.501 53.4907 301.441 53.5422C301.381 53.5936 301.305 53.6221 301.225 53.6224H266.035C266.004 53.6222 265.973 53.6286 265.944 53.6412C265.916 53.6537 265.89 53.6721 265.869 53.6952C265.847 53.7182 265.831 53.7455 265.821 53.7751C265.811 53.8048 265.807 53.8362 265.81 53.8674C266.385 61.1974 270.795 66.0474 278.685 65.4274C283.01 65.0924 286.525 63.1024 287.74 58.7874C287.765 58.7038 287.815 58.6304 287.884 58.5782C287.952 58.5259 288.035 58.4976 288.12 58.4974H300.765C300.81 58.4972 300.855 58.5071 300.896 58.5264C300.937 58.5456 300.973 58.5738 301.002 58.6087C301.031 58.6436 301.051 58.6845 301.062 58.7284C301.073 58.7723 301.074 58.818 301.065 58.8624ZM266.285 44.7924L288.205 44.8324C288.207 44.8324 288.209 44.832 288.211 44.8312C288.213 44.8305 288.214 44.8294 288.216 44.828C288.217 44.8266 288.218 44.8249 288.219 44.8231C288.22 44.8213 288.22 44.8193 288.22 44.8174V44.7474C288.225 42.2879 287.079 39.927 285.034 38.1839C282.989 36.4408 280.212 35.4583 277.315 35.4524H277.215C275.78 35.4494 274.359 35.6865 273.032 36.1501C271.706 36.6136 270.5 37.2945 269.483 38.154C268.467 39.0134 267.66 40.0345 267.109 41.159C266.557 42.2834 266.272 43.4892 266.27 44.7074V44.7774C266.27 44.7813 266.272 44.7852 266.275 44.788C266.277 44.7908 266.281 44.7924 266.285 44.7924Z" fill="#B8D9FF"/>
<path d="M356.305 58.4975C356.35 58.4973 356.395 58.5072 356.436 58.5265C356.477 58.5458 356.513 58.5739 356.541 58.6088C356.57 58.6437 356.591 58.6846 356.602 58.7285C356.613 58.7724 356.614 58.8181 356.605 58.8625C354.495 69.4025 345.955 75.0925 335.525 75.6675C317.03 76.6825 305.05 64.4325 307.66 45.8775C309.395 33.5975 318.35 26.1725 330.53 25.4625C347.295 24.4875 359.585 36.3475 357.09 53.3425C357.079 53.4199 357.04 53.4909 356.981 53.5423C356.921 53.5937 356.844 53.6222 356.765 53.6225H321.57C321.539 53.6223 321.508 53.6288 321.479 53.6413C321.45 53.6538 321.424 53.6722 321.403 53.6953C321.382 53.7183 321.366 53.7456 321.356 53.7752C321.346 53.8049 321.342 53.8363 321.345 53.8675C321.92 61.1975 326.33 66.0475 334.22 65.4275C338.545 65.0925 342.06 63.1025 343.275 58.7875C343.3 58.7039 343.35 58.6305 343.418 58.5783C343.487 58.526 343.57 58.4977 343.655 58.4975H356.305ZM321.81 44.7875L343.73 44.8275C343.733 44.8275 343.735 44.8264 343.737 44.8245C343.739 44.8227 343.74 44.8201 343.74 44.8175V44.7525C343.744 42.2903 342.596 39.9269 340.547 38.1819C338.499 36.437 335.717 35.4534 332.815 35.4475H332.765C331.327 35.4445 329.903 35.6819 328.574 36.1459C327.245 36.61 326.037 37.2917 325.019 38.152C324.001 39.0124 323.192 40.0346 322.64 41.1602C322.088 42.2859 321.802 43.493 321.8 44.7125V44.7775C321.8 44.7801 321.801 44.7827 321.803 44.7845C321.805 44.7864 321.807 44.7875 321.81 44.7875Z" fill="#B8D9FF"/>
<path d="M463.46 32.4473C463.587 32.2873 464.375 31.499 465.825 30.0823C471.58 24.4473 481.49 24.3773 488.435 27.5573C495.09 30.6073 499.425 37.3273 500.71 44.5223C502.355 53.7823 500.515 64.4073 492.875 70.7173C488.592 74.2607 483.433 75.9173 477.4 75.6873C471.967 75.4807 467.48 73.349 463.94 69.2923C463.921 69.2698 463.895 69.2538 463.866 69.2464C463.838 69.239 463.807 69.2406 463.779 69.2509C463.752 69.2613 463.728 69.2799 463.711 69.3043C463.694 69.3287 463.685 69.3577 463.685 69.3873V94.0773C463.685 94.1224 463.668 94.1657 463.637 94.1976C463.606 94.2294 463.564 94.2473 463.52 94.2473H450.475C450.398 94.2473 450.324 94.2168 450.27 94.1624C450.216 94.108 450.185 94.0343 450.185 93.9573V26.1723C450.185 26.1259 450.204 26.0814 450.236 26.0486C450.269 26.0158 450.314 25.9973 450.36 25.9973H461.665C461.747 25.9969 461.826 26.025 461.89 26.0769C461.954 26.1288 461.998 26.2014 462.015 26.2823L463.21 32.3823C463.214 32.4088 463.226 32.4334 463.244 32.4532C463.262 32.4729 463.285 32.4871 463.312 32.4939C463.338 32.5007 463.366 32.5 463.392 32.4917C463.418 32.4835 463.442 32.4681 463.46 32.4473ZM487.605 50.5373C487.595 43.1073 483.705 36.4573 475.535 36.4673C467.365 36.4773 463.49 43.1373 463.5 50.5623C463.51 57.9923 467.395 64.6373 475.57 64.6323C483.74 64.6223 487.61 57.9623 487.605 50.5373Z" fill="#B8D9FF"/>
<path d="M532.815 25.4523C548.095 25.5223 558.645 35.1423 558.57 50.6923C558.495 66.2423 547.855 75.7623 532.575 75.6873C517.3 75.6173 506.75 65.9973 506.82 50.4473C506.895 34.8973 517.535 25.3773 532.815 25.4523ZM520.61 50.5573C520.605 58.0273 524.505 64.7273 532.725 64.7323C540.95 64.7373 544.86 58.0473 544.865 50.5723C544.87 43.0973 540.965 36.4023 532.745 36.3973C524.525 36.3923 520.615 43.0823 520.61 50.5573Z" fill="#B8D9FF"/>
<path d="M217.685 26.1273L226.475 60.1173C226.485 60.1534 226.507 60.1853 226.537 60.2081C226.566 60.231 226.603 60.2436 226.64 60.2442C226.678 60.2447 226.715 60.2332 226.745 60.2113C226.776 60.1893 226.798 60.1581 226.81 60.1223L236.625 26.1223C236.635 26.0866 236.657 26.0553 236.687 26.0328C236.716 26.0103 236.753 25.9979 236.79 25.9973H250.18C250.207 25.9975 250.235 26.0042 250.259 26.0169C250.284 26.0296 250.305 26.0479 250.321 26.0703C250.337 26.0927 250.347 26.1187 250.352 26.1459C250.356 26.1732 250.353 26.2011 250.345 26.2273L234.32 75.0023C234.308 75.0371 234.286 75.0673 234.257 75.0888C234.227 75.1104 234.191 75.1221 234.155 75.1223H219.965C219.928 75.1217 219.891 75.1093 219.862 75.0868C219.832 75.0644 219.81 75.033 219.8 74.9973L211.48 45.7023C211.469 45.6662 211.448 45.6343 211.418 45.6115C211.388 45.5886 211.352 45.576 211.314 45.5755C211.277 45.5749 211.24 45.5864 211.209 45.6084C211.179 45.6303 211.156 45.6615 211.145 45.6973L202.69 74.9973C202.679 75.033 202.657 75.0644 202.628 75.0868C202.598 75.1093 202.562 75.1217 202.525 75.1223H188.315C188.278 75.1221 188.243 75.1104 188.213 75.0888C188.183 75.0673 188.161 75.0371 188.15 75.0023L172.2 26.2273C172.191 26.2011 172.189 26.1732 172.193 26.1459C172.197 26.1187 172.208 26.0927 172.224 26.0703C172.24 26.0479 172.261 26.0296 172.285 26.0169C172.31 26.0042 172.337 25.9975 172.365 25.9973H186.27C186.307 25.9979 186.343 26.0103 186.373 26.0328C186.402 26.0553 186.424 26.0866 186.435 26.1223L196.06 60.0273C196.07 60.0653 196.092 60.0988 196.123 60.1226C196.154 60.1463 196.193 60.1589 196.232 60.1583C196.271 60.1578 196.309 60.1441 196.339 60.1194C196.37 60.0947 196.391 60.0605 196.4 60.0223L205.465 26.1273C205.475 26.0899 205.497 26.0568 205.528 26.0333C205.558 26.0098 205.596 25.9971 205.635 25.9973H217.515C217.554 25.9971 217.591 26.0098 217.622 26.0333C217.653 26.0568 217.675 26.0899 217.685 26.1273Z" fill="#B8D9FF"/>
</g>
<defs>
<clipPath id="clip0_561_7538">
<rect width="595" height="100" fill="white" transform="translate(0 0.122314)"/>
</clipPath>
</defs>
</svg>
