<svg width="340" height="258" viewBox="0 0 340 258" fill="none" xmlns="http://www.w3.org/2000/svg">
<rect x="251" y="5.00037" width="46" height="46" rx="22" stroke="#0A1029" stroke-width="1.5"/>
<path d="M256 28.0004H292" stroke="#0A1029" stroke-width="1.5"/>
<path d="M274 46.0004L274 10.0004" stroke="#0A1029" stroke-width="1.5"/>
<path d="M190 90H6V227" stroke="#0A1029" stroke-width="1.5" stroke-linecap="square" stroke-dasharray="4 4"/>
<rect x="194" y="88" width="4" height="4" fill="#0A1029"/>
<rect x="4" y="231" width="4" height="4" fill="#0A1029"/>
<path d="M190 116H29V227" stroke="#0A1029" stroke-width="1.5" stroke-linecap="square" stroke-dasharray="4 4"/>
<rect x="194" y="114" width="4" height="4" fill="#0A1029"/>
<rect x="27" y="231" width="4" height="4" fill="#0A1029"/>
<path d="M190 142H52V227" stroke="#0A1029" stroke-width="1.5" stroke-linecap="square" stroke-dasharray="4 4"/>
<rect x="194" y="140" width="4" height="4" fill="#0A1029"/>
<rect x="50" y="231" width="4" height="4" fill="#0A1029"/>
<path d="M190 168H75V227" stroke="#0A1029" stroke-width="1.5" stroke-linecap="square" stroke-dasharray="4 4"/>
<rect x="194" y="166" width="4" height="4" fill="#0A1029"/>
<rect x="73" y="231" width="4" height="4" fill="#0A1029"/>
<path d="M190 194H98V227" stroke="#0A1029" stroke-width="1.5" stroke-linecap="square" stroke-dasharray="4 4"/>
<rect x="194" y="192" width="4" height="4" fill="#0A1029"/>
<rect x="96" y="231" width="4" height="4" fill="#0A1029"/>
<path d="M190 220H121V227" stroke="#0A1029" stroke-width="1.5" stroke-linecap="square" stroke-dasharray="4 4"/>
<rect x="194" y="218" width="4" height="4" fill="#0A1029"/>
<rect x="119" y="231" width="4" height="4" fill="#0A1029"/>
<path d="M22.5373 19.7044C21.54 19.7044 20.69 19.4494 19.9873 18.9394C19.296 18.4294 18.7633 17.7154 18.3893 16.7974C18.0267 15.868 17.8453 14.7914 17.8453 13.5674C17.8453 12.332 18.0267 11.2554 18.3893 10.3374C18.7633 9.40803 19.3017 8.68837 20.0043 8.17837C20.707 7.65703 21.5513 7.39637 22.5373 7.39637C23.818 7.39637 24.838 7.7477 25.5973 8.45037C26.3567 9.1417 26.7987 10.0824 26.9233 11.2724H24.9343C24.8323 10.649 24.5773 10.1334 24.1693 9.72537C23.7727 9.30603 23.223 9.09637 22.5203 9.09637C21.625 9.09637 20.928 9.49303 20.4293 10.2864C19.9307 11.0797 19.6813 12.1734 19.6813 13.5674C19.6813 14.95 19.9307 16.038 20.4293 16.8314C20.928 17.6134 21.625 18.0044 22.5203 18.0044C23.2457 18.0044 23.801 17.8174 24.1863 17.4434C24.5717 17.058 24.821 16.5537 24.9343 15.9304H26.9233C26.742 17.0977 26.283 18.0214 25.5463 18.7014C24.8097 19.37 23.8067 19.7044 22.5373 19.7044Z" fill="#0A1029"/>
<path d="M6.75 26.2504H38.25V5.25037H39.75V27.7504H5.25V5.25037H6.75V26.2504Z" fill="#0A1029"/>
<path d="M55.5033 19.7044C54.54 19.7044 53.707 19.455 53.0043 18.9564C52.3017 18.4577 51.7633 17.7494 51.3893 16.8314C51.0153 15.9134 50.8283 14.8197 50.8283 13.5504C50.8283 12.281 51.0153 11.1874 51.3893 10.2694C51.7633 9.35137 52.3017 8.64303 53.0043 8.14437C53.707 7.6457 54.54 7.39637 55.5033 7.39637C56.478 7.39637 57.311 7.6457 58.0023 8.14437C58.705 8.64303 59.2433 9.35137 59.6173 10.2694C59.9913 11.1874 60.1783 12.281 60.1783 13.5504C60.1783 14.8197 59.9913 15.9134 59.6173 16.8314C59.2433 17.7494 58.705 18.4577 58.0023 18.9564C57.311 19.455 56.478 19.7044 55.5033 19.7044ZM55.5033 18.0044C56.3533 18.0044 57.039 17.6247 57.5603 16.8654C58.0817 16.0947 58.3423 14.9897 58.3423 13.5504C58.3423 12.111 58.0817 11.0117 57.5603 10.2524C57.039 9.4817 56.3533 9.09637 55.5033 9.09637C54.642 9.09637 53.9507 9.4817 53.4293 10.2524C52.9193 11.0117 52.6643 12.111 52.6643 13.5504C52.6643 14.9897 52.9193 16.0947 53.4293 16.8654C53.9507 17.6247 54.642 18.0044 55.5033 18.0044Z" fill="#0A1029"/>
<path d="M39.75 26.2504H71.25V5.25037H72.75V27.7504H38.25V5.25037H39.75V26.2504Z" fill="#0A1029"/>
<path d="M84.6783 19.5004V7.60037H88.5713C89.5007 7.60037 90.2657 7.75903 90.8663 8.07637C91.4783 8.3937 91.9317 8.82437 92.2263 9.36837C92.5323 9.90103 92.6853 10.5074 92.6853 11.1874C92.6853 11.958 92.487 12.6437 92.0903 13.2444C91.705 13.8337 91.11 14.2644 90.3053 14.5364L92.8043 19.5004H90.7133L88.4353 14.7914H86.4803V19.5004H84.6783ZM86.4803 13.1594H88.4693C89.2853 13.1594 89.8803 12.978 90.2543 12.6154C90.6397 12.2527 90.8323 11.7767 90.8323 11.1874C90.8323 10.5867 90.6453 10.1107 90.2713 9.75937C89.8973 9.3967 89.291 9.21537 88.4523 9.21537H86.4803V13.1594Z" fill="#0A1029"/>
<path d="M72.75 26.2504H104.25V5.25037H105.75V27.7504H71.25V5.25037H72.75V26.2504Z" fill="#0A1029"/>
<path d="M117.763 19.5004V7.60037H125.362V9.21537H119.565V12.6834H124.852V14.2814H119.565V17.8854H125.362V19.5004H117.763Z" fill="#0A1029"/>
<path d="M105.75 26.2504H137.25V5.25037H138.75V27.7504H104.25V5.25037H105.75V26.2504Z" fill="#0A1029"/>
<path d="M18.6103 46.5004V34.6004H22.6393C23.546 34.6004 24.294 34.759 24.8833 35.0764C25.4727 35.3824 25.909 35.8074 26.1923 36.3514C26.4757 36.8954 26.6173 37.5187 26.6173 38.2214C26.6173 38.924 26.4757 39.5474 26.1923 40.0914C25.909 40.6354 25.4727 41.066 24.8833 41.3834C24.294 41.6894 23.546 41.8424 22.6393 41.8424H20.4123V46.5004H18.6103ZM20.4123 40.2274H22.5543C23.325 40.2274 23.886 40.046 24.2373 39.6834C24.6 39.3207 24.7813 38.8334 24.7813 38.2214C24.7813 37.6207 24.6 37.139 24.2373 36.7764C23.886 36.4024 23.325 36.2154 22.5543 36.2154H20.4123V40.2274Z" fill="#0A1029"/>
<path d="M39.75 26.2504V48.7504H38.25V27.7504H6.75V48.7504H5.25V26.2504H39.75Z" fill="#0A1029"/>
<path d="M55.5033 46.7044C54.6873 46.7044 53.9677 46.5514 53.3443 46.2454C52.7323 45.9394 52.2507 45.52 51.8993 44.9874C51.548 44.4547 51.3723 43.8427 51.3723 43.1514C51.3723 42.4147 51.565 41.797 51.9503 41.2984C52.347 40.7884 52.789 40.437 53.2763 40.2444V40.1424C52.8117 39.9044 52.432 39.57 52.1373 39.1394C51.8427 38.7087 51.6953 38.1874 51.6953 37.5754C51.6953 36.9974 51.8483 36.4704 52.1543 35.9944C52.4603 35.507 52.8967 35.1217 53.4633 34.8384C54.03 34.5437 54.71 34.3964 55.5033 34.3964C56.2853 34.3964 56.9597 34.5437 57.5263 34.8384C58.093 35.1217 58.5293 35.507 58.8353 35.9944C59.1527 36.4704 59.3113 36.9974 59.3113 37.5754C59.3113 38.1874 59.164 38.7087 58.8693 39.1394C58.5747 39.57 58.195 39.9044 57.7303 40.1424V40.2444C58.229 40.437 58.671 40.7884 59.0563 41.2984C59.4417 41.797 59.6343 42.4147 59.6343 43.1514C59.6343 43.8427 59.4587 44.4547 59.1073 44.9874C58.7673 45.52 58.2857 45.9394 57.6623 46.2454C57.039 46.5514 56.3193 46.7044 55.5033 46.7044ZM55.5033 39.5134C56.138 39.5134 56.6367 39.349 56.9993 39.0204C57.3733 38.6917 57.5603 38.2667 57.5603 37.7454C57.5603 37.224 57.3733 36.799 56.9993 36.4704C56.6367 36.1417 56.138 35.9774 55.5033 35.9774C54.8687 35.9774 54.3643 36.1417 53.9903 36.4704C53.6277 36.799 53.4463 37.224 53.4463 37.7454C53.4463 38.2667 53.6277 38.6917 53.9903 39.0204C54.3643 39.349 54.8687 39.5134 55.5033 39.5134ZM55.5033 45.0724C56.206 45.0724 56.7727 44.8967 57.2033 44.5454C57.634 44.1827 57.8493 43.6784 57.8493 43.0324C57.8493 42.3864 57.634 41.8877 57.2033 41.5364C56.7727 41.1737 56.206 40.9924 55.5033 40.9924C54.8007 40.9924 54.234 41.1737 53.8033 41.5364C53.3727 41.8877 53.1573 42.3864 53.1573 43.0324C53.1573 43.6784 53.3727 44.1827 53.8033 44.5454C54.234 44.8967 54.8007 45.0724 55.5033 45.0724Z" fill="#0A1029"/>
<path d="M72.75 26.2504V48.7504H71.25V27.7504H39.75V48.7504H38.25V26.2504H72.75Z" fill="#0A1029"/>
<path d="M84.7803 46.5004V34.6004H86.5823V44.8854H92.4473V46.5004H84.7803Z" fill="#0A1029"/>
<path d="M105.75 26.2504V48.7504H104.25V27.7504H72.75V48.7504H71.25V26.2504H105.75Z" fill="#0A1029"/>
<path d="M117.712 46.5004L118.205 43.3384H116.607V41.7744H118.443L118.817 39.3264H117.27V37.7624H119.055L119.548 34.6004H121.231L120.738 37.7624H123.118L123.611 34.6004H125.294L124.801 37.7624H126.399V39.3264H124.563L124.189 41.7744H125.736V43.3384H123.951L123.458 46.5004H121.775L122.268 43.3384H119.888L119.395 46.5004H117.712ZM120.126 41.7744H122.506L122.88 39.3264H120.5L120.126 41.7744Z" fill="#0A1029"/>
<path d="M138.75 26.2504V48.7504H137.25V27.7504H105.75V48.7504H104.25V26.2504H138.75Z" fill="#0A1029"/>
<rect x="207" y="74.0004" width="132" height="160" stroke="#0A1029" stroke-width="1.5"/>
<path d="M223.622 93.5377C222.784 93.5377 222.047 93.3847 221.412 93.0787C220.789 92.7727 220.296 92.3364 219.933 91.7697C219.582 91.2031 219.401 90.5287 219.389 89.7467H221.293C221.305 90.3474 221.509 90.8631 221.905 91.2937C222.313 91.7131 222.88 91.9227 223.605 91.9227C224.274 91.9227 224.795 91.7697 225.169 91.4637C225.543 91.1464 225.73 90.7384 225.73 90.2397C225.73 89.8204 225.617 89.4747 225.39 89.2027C225.175 88.9194 224.835 88.6701 224.37 88.4547C223.906 88.2281 223.305 87.9957 222.568 87.7577C221.582 87.4404 220.857 87.0041 220.392 86.4487C219.928 85.8821 219.695 85.1907 219.695 84.3747C219.695 83.4341 220.035 82.6747 220.715 82.0967C221.395 81.5187 222.33 81.2297 223.52 81.2297C224.676 81.2297 225.606 81.5301 226.308 82.1307C227.011 82.7201 227.374 83.5417 227.396 84.5957H225.475C225.475 84.3124 225.396 84.0404 225.237 83.7797C225.079 83.5077 224.852 83.2867 224.557 83.1167C224.263 82.9354 223.9 82.8447 223.469 82.8447C222.937 82.8334 222.489 82.9637 222.126 83.2357C221.764 83.4964 221.582 83.8534 221.582 84.3067C221.582 84.8621 221.803 85.2984 222.245 85.6157C222.687 85.9217 223.407 86.2391 224.404 86.5677C225.028 86.7717 225.577 87.0211 226.053 87.3157C226.541 87.5991 226.92 87.9674 227.192 88.4207C227.476 88.8627 227.617 89.4294 227.617 90.1207C227.617 90.7554 227.459 91.3334 227.141 91.8547C226.824 92.3647 226.365 92.7727 225.764 93.0787C225.175 93.3847 224.461 93.5377 223.622 93.5377Z" fill="#0A1029"/>
<path d="M207.75 100.25H239.25V79.2504H240.75V101.75H206.25V79.2504H207.75V100.25Z" fill="#0A1029"/>
<path d="M252.763 93.3337V81.4337H260.362V83.0487H254.565V86.5167H259.852V88.1147H254.565V91.7187H260.362V93.3337H252.763Z" fill="#0A1029"/>
<path d="M240.75 100.25H272.25V79.2504H273.75V101.75H239.25V79.2504H240.75V100.25Z" fill="#0A1029"/>
<path d="M219.134 120V108.1H221.038L223.503 113.472L225.968 108.1H227.872V120H226.155V111.534L224.217 115.784H222.789L220.851 111.551V120H219.134Z" fill="#0A1029"/>
<path d="M207.75 122.417H206.25V105.917H207.75V122.417ZM240.75 122.417H239.25V105.917H240.75V122.417Z" fill="#0A1029"/>
<path d="M253.018 120V118.402H255.602V109.698H253.052V108.1H259.954V109.698H257.404V118.402H259.988V120H253.018Z" fill="#0A1029"/>
<path d="M240.75 122.417H239.25V105.917H240.75V122.417ZM273.75 122.417H272.25V105.917H273.75V122.417Z" fill="#0A1029"/>
<path d="M318.559 94.9487V93.3337H326.447V94.9487H318.559Z" fill="#0A1029"/>
<path d="M306.75 100.25H338.25V79.2504H339.75V101.75H305.25V79.2504H306.75V100.25Z" fill="#0A1029"/>
<path d="M318.559 121.615V120H326.447V121.615H318.559Z" fill="#0A1029"/>
<path d="M306.75 122.417H305.25V105.917H306.75V122.417ZM339.75 122.417H338.25V105.917H339.75V122.417Z" fill="#0A1029"/>
<path d="M289.537 93.5377C288.54 93.5377 287.69 93.2827 286.987 92.7727C286.296 92.2627 285.763 91.5487 285.389 90.6307C285.027 89.7014 284.845 88.6247 284.845 87.4007C284.845 86.1654 285.027 85.0887 285.389 84.1707C285.763 83.2414 286.302 82.5217 287.004 82.0117C287.707 81.4904 288.551 81.2297 289.537 81.2297C290.818 81.2297 291.838 81.5811 292.597 82.2837C293.357 82.9751 293.799 83.9157 293.923 85.1057H291.934C291.832 84.4824 291.577 83.9667 291.169 83.5587C290.773 83.1394 290.223 82.9297 289.52 82.9297C288.625 82.9297 287.928 83.3264 287.429 84.1197C286.931 84.9131 286.681 86.0067 286.681 87.4007C286.681 88.7834 286.931 89.8714 287.429 90.6647C287.928 91.4467 288.625 91.8377 289.52 91.8377C290.246 91.8377 290.801 91.6507 291.186 91.2767C291.572 90.8914 291.821 90.3871 291.934 89.7637H293.923C293.742 90.9311 293.283 91.8547 292.546 92.5347C291.81 93.2034 290.807 93.5377 289.537 93.5377Z" fill="#0A1029"/>
<path d="M273.75 100.25H305.25V79.2504H306.75V101.75H272.25V79.2504H273.75V100.25Z" fill="#0A1029"/>
<path d="M285.27 120V108.1H287.038L292.019 116.821V108.1H293.736V120H291.968L286.987 111.279V120H285.27Z" fill="#0A1029"/>
<path d="M273.75 122.417H272.25V105.917H273.75V122.417ZM306.75 122.417H305.25V105.917H306.75V122.417Z" fill="#0A1029"/>
<path d="M219.1 146.667V134.767H220.902V139.697H226.104V134.767H227.906V146.667H226.104V141.346H220.902V146.667H219.1Z" fill="#0A1029"/>
<path d="M207.75 149.084H206.25V132.584H207.75V149.084ZM240.75 149.084H239.25V132.584H240.75V149.084ZM240.75 128.084H206.25V126.584H240.75V128.084Z" fill="#0A1029"/>
<path d="M256.503 146.871C255.54 146.871 254.707 146.622 254.004 146.123C253.302 145.624 252.763 144.916 252.389 143.998C252.015 143.08 251.828 141.986 251.828 140.717C251.828 139.448 252.015 138.354 252.389 137.436C252.763 136.518 253.302 135.81 254.004 135.311C254.707 134.812 255.54 134.563 256.503 134.563C257.478 134.563 258.311 134.812 259.002 135.311C259.705 135.81 260.243 136.518 260.617 137.436C260.991 138.354 261.178 139.448 261.178 140.717C261.178 141.986 260.991 143.08 260.617 143.998C260.243 144.916 259.705 145.624 259.002 146.123C258.311 146.622 257.478 146.871 256.503 146.871ZM256.503 145.171C257.353 145.171 258.039 144.791 258.56 144.032C259.082 143.261 259.342 142.156 259.342 140.717C259.342 139.278 259.082 138.178 258.56 137.419C258.039 136.648 257.353 136.263 256.503 136.263C255.642 136.263 254.951 136.648 254.429 137.419C253.919 138.178 253.664 139.278 253.664 140.717C253.664 142.156 253.919 143.261 254.429 144.032C254.951 144.791 255.642 145.171 256.503 145.171Z" fill="#0A1029"/>
<path d="M240.75 149.084H239.25V132.584H240.75V149.084ZM273.75 149.084H272.25V132.584H273.75V149.084ZM273.75 128.084H239.25V126.584H273.75V128.084Z" fill="#0A1029"/>
<path d="M289.469 146.871C288.665 146.871 287.945 146.707 287.31 146.378C286.687 146.049 286.194 145.551 285.831 144.882C285.469 144.202 285.287 143.346 285.287 142.315V134.767H287.089V142.417C287.089 143.324 287.305 144.026 287.735 144.525C288.166 145.012 288.755 145.256 289.503 145.256C290.251 145.256 290.841 145.012 291.271 144.525C291.702 144.026 291.917 143.324 291.917 142.417V134.767H293.719V142.315C293.719 143.346 293.532 144.202 293.158 144.882C292.784 145.551 292.274 146.049 291.628 146.378C290.994 146.707 290.274 146.871 289.469 146.871Z" fill="#0A1029"/>
<path d="M273.75 149.084H272.25V132.584H273.75V149.084ZM306.75 149.084H305.25V132.584H306.75V149.084ZM306.75 128.084H272.25V126.584H306.75V128.084Z" fill="#0A1029"/>
<path d="M318.678 146.667V134.767H322.571C323.501 134.767 324.266 134.926 324.866 135.243C325.478 135.56 325.932 135.991 326.226 136.535C326.532 137.068 326.685 137.674 326.685 138.354C326.685 139.125 326.487 139.81 326.09 140.411C325.705 141 325.11 141.431 324.305 141.703L326.804 146.667H324.713L322.435 141.958H320.48V146.667H318.678ZM320.48 140.326H322.469C323.285 140.326 323.88 140.145 324.254 139.782C324.64 139.419 324.832 138.943 324.832 138.354C324.832 137.753 324.645 137.277 324.271 136.926C323.897 136.563 323.291 136.382 322.452 136.382H320.48V140.326Z" fill="#0A1029"/>
<path d="M306.75 149.084H305.25V132.584H306.75V149.084ZM339.75 149.084H338.25V132.584H339.75V149.084ZM339.75 128.084H305.25V126.584H339.75V128.084Z" fill="#0A1029"/>
<path d="M219.134 200V188.1H221.038L223.503 193.472L225.968 188.1H227.872V200H226.155V191.534L224.217 195.784H222.789L220.851 191.551V200H219.134Z" fill="#0A1029"/>
<path d="M207.75 202.417H206.25V185.917H207.75V202.417ZM240.75 202.417H239.25V185.917H240.75V202.417ZM240.75 181.417H206.25V179.917H240.75V181.417Z" fill="#0A1029"/>
<path d="M256.503 200.204C255.54 200.204 254.707 199.955 254.004 199.456C253.302 198.958 252.763 198.249 252.389 197.331C252.015 196.413 251.828 195.32 251.828 194.05C251.828 192.781 252.015 191.687 252.389 190.769C252.763 189.851 253.302 189.143 254.004 188.644C254.707 188.146 255.54 187.896 256.503 187.896C257.478 187.896 258.311 188.146 259.002 188.644C259.705 189.143 260.243 189.851 260.617 190.769C260.991 191.687 261.178 192.781 261.178 194.05C261.178 195.32 260.991 196.413 260.617 197.331C260.243 198.249 259.705 198.958 259.002 199.456C258.311 199.955 257.478 200.204 256.503 200.204ZM256.503 198.504C257.353 198.504 258.039 198.125 258.56 197.365C259.082 196.595 259.342 195.49 259.342 194.05C259.342 192.611 259.082 191.512 258.56 190.752C258.039 189.982 257.353 189.596 256.503 189.596C255.642 189.596 254.951 189.982 254.429 190.752C253.919 191.512 253.664 192.611 253.664 194.05C253.664 195.49 253.919 196.595 254.429 197.365C254.951 198.125 255.642 198.504 256.503 198.504Z" fill="#0A1029"/>
<path d="M240.75 202.417H239.25V185.917H240.75V202.417ZM273.75 202.417H272.25V185.917H273.75V202.417ZM273.75 181.417H239.25V179.917H273.75V181.417Z" fill="#0A1029"/>
<path d="M285.27 200V188.1H287.038L292.019 196.821V188.1H293.736V200H291.968L286.987 191.279V200H285.27Z" fill="#0A1029"/>
<path d="M273.75 202.417H272.25V185.917H273.75V202.417ZM306.75 202.417H305.25V185.917H306.75V202.417ZM306.75 181.417H272.25V179.917H306.75V181.417Z" fill="#0A1029"/>
<path d="M318.559 201.615V200H326.447V201.615H318.559Z" fill="#0A1029"/>
<path d="M306.75 202.417H305.25V185.917H306.75V202.417ZM339.75 202.417H338.25V185.917H339.75V202.417ZM339.75 181.417H305.25V179.917H339.75V181.417Z" fill="#0A1029"/>
<path d="M219.134 226.667V214.767H221.038L223.503 220.139L225.968 214.767H227.872V226.667H226.155V218.201L224.217 222.451H222.789L220.851 218.218V226.667H219.134Z" fill="#0A1029"/>
<path d="M240.75 206.584V229.084H239.25V208.084H207.75V229.084H206.25V206.584H240.75Z" fill="#0A1029"/>
<path d="M256.503 226.871C255.54 226.871 254.707 226.622 254.004 226.123C253.302 225.624 252.763 224.916 252.389 223.998C252.015 223.08 251.828 221.986 251.828 220.717C251.828 219.448 252.015 218.354 252.389 217.436C252.763 216.518 253.302 215.81 254.004 215.311C254.707 214.812 255.54 214.563 256.503 214.563C257.478 214.563 258.311 214.812 259.002 215.311C259.705 215.81 260.243 216.518 260.617 217.436C260.991 218.354 261.178 219.448 261.178 220.717C261.178 221.986 260.991 223.08 260.617 223.998C260.243 224.916 259.705 225.624 259.002 226.123C258.311 226.622 257.478 226.871 256.503 226.871ZM256.503 225.171C257.353 225.171 258.039 224.791 258.56 224.032C259.082 223.261 259.342 222.156 259.342 220.717C259.342 219.278 259.082 218.178 258.56 217.419C258.039 216.648 257.353 216.263 256.503 216.263C255.642 216.263 254.951 216.648 254.429 217.419C253.919 218.178 253.664 219.278 253.664 220.717C253.664 222.156 253.919 223.261 254.429 224.032C254.951 224.791 255.642 225.171 256.503 225.171Z" fill="#0A1029"/>
<path d="M273.75 206.584V229.084H272.25V208.084H240.75V229.084H239.25V206.584H273.75Z" fill="#0A1029"/>
<path d="M285.27 226.667V214.767H287.038L292.019 223.488V214.767H293.736V226.667H291.968L286.987 217.946V226.667H285.27Z" fill="#0A1029"/>
<path d="M306.75 206.584V229.084H305.25V208.084H273.75V229.084H272.25V206.584H306.75Z" fill="#0A1029"/>
<path d="M318.559 228.282V226.667H326.447V228.282H318.559Z" fill="#0A1029"/>
<path d="M339.75 206.584V229.084H338.25V208.084H306.75V229.084H305.25V206.584H339.75Z" fill="#0A1029"/>
<path d="M219.372 173.334V161.434H222.228C224.144 161.434 225.566 161.966 226.495 163.032C227.425 164.086 227.889 165.536 227.889 167.384C227.889 169.231 227.425 170.687 226.495 171.753C225.566 172.807 224.144 173.334 222.228 173.334H219.372ZM221.174 171.668H222.16C223.543 171.668 224.54 171.282 225.152 170.512C225.764 169.73 226.07 168.687 226.07 167.384C226.07 166.08 225.764 165.043 225.152 164.273C224.54 163.491 223.543 163.1 222.16 163.1H221.174V171.668Z" fill="#0A1029"/>
<path d="M207.75 175.75H206.25V159.25H207.75V175.75ZM240.75 175.75H239.25V159.25H240.75V175.75ZM240.75 154.75H206.25V153.25H240.75V154.75Z" fill="#0A1029"/>
<path d="M251.879 173.334L255.432 161.434H257.574L261.127 173.334H259.172L258.373 170.478H254.633L253.834 173.334H251.879ZM256.452 163.984L255.041 169.033H257.965L256.554 163.984H256.452Z" fill="#0A1029"/>
<path d="M240.75 175.75H239.25V159.25H240.75V175.75ZM273.75 175.75H272.25V159.25H273.75V175.75ZM273.75 154.75H239.25V153.25H273.75V154.75Z" fill="#0A1029"/>
<path d="M288.602 173.334V168.812L284.675 161.434H286.732L289.503 166.908L292.274 161.434H294.331L290.404 168.812V173.334H288.602Z" fill="#0A1029"/>
<path d="M273.75 175.75H272.25V159.25H273.75V175.75ZM306.75 175.75H305.25V159.25H306.75V175.75ZM306.75 154.75H272.25V153.25H306.75V154.75Z" fill="#0A1029"/>
<path d="M318.559 174.949V173.334H326.447V174.949H318.559Z" fill="#0A1029"/>
<path d="M306.75 175.75H305.25V159.25H306.75V175.75ZM339.75 175.75H338.25V159.25H339.75V175.75ZM339.75 154.75H305.25V153.25H339.75V154.75Z" fill="#0A1029"/>
<line x1="338.75" y1="0.000366257" x2="338.75" y2="56.0004" stroke="#0A1029" stroke-width="1.5"/>
<path d="M316 28.5004L338 28.5004M338 28.5004L332.304 23.0004M338 28.5004L332.304 34.0004" stroke="#0A1029" stroke-width="1.5"/>
<line y1="-0.75" x2="56" y2="-0.75" transform="matrix(3.12224e-08 1 1 -6.11959e-08 210 0.000366211)" stroke="#0A1029" stroke-width="1.5"/>
<path d="M232 28.5004L210 28.5004M210 28.5004L215.696 23.0004M210 28.5004L215.696 34.0004" stroke="#0A1029" stroke-width="1.5"/>
<path d="M168 16.0004L160 16.0004L160 40.0004L168 40.0004" stroke="#0A1029" stroke-width="1.5"/>
<path d="M178 16.0004L186 16.0004L186 40.0004L178 40.0004" stroke="#0A1029" stroke-width="1.5"/>
<path d="M0 252L12 252" stroke="#0A1029" stroke-width="1.5"/>
<path d="M1.75781 256.243L10.2431 247.757" stroke="#0A1029" stroke-width="1.5"/>
<path d="M6 246V249" stroke="#0A1029" stroke-width="1.5"/>
<path d="M6 255V258" stroke="#0A1029" stroke-width="1.5"/>
<path d="M10.2422 256.243L1.75691 247.757" stroke="#0A1029" stroke-width="1.5"/>
<path d="M23 252L35 252" stroke="#0A1029" stroke-width="1.5"/>
<path d="M24.7578 256.243L33.2431 247.757" stroke="#0A1029" stroke-width="1.5"/>
<path d="M29 246V249" stroke="#0A1029" stroke-width="1.5"/>
<path d="M29 255V258" stroke="#0A1029" stroke-width="1.5"/>
<path d="M33.2422 256.243L24.7569 247.757" stroke="#0A1029" stroke-width="1.5"/>
<path d="M46 252L58 252" stroke="#0A1029" stroke-width="1.5"/>
<path d="M47.7578 256.243L56.2431 247.757" stroke="#0A1029" stroke-width="1.5"/>
<path d="M52 246V249" stroke="#0A1029" stroke-width="1.5"/>
<path d="M52 255V258" stroke="#0A1029" stroke-width="1.5"/>
<path d="M56.2422 256.243L47.7569 247.757" stroke="#0A1029" stroke-width="1.5"/>
<path d="M69 252L81 252" stroke="#0A1029" stroke-width="1.5"/>
<path d="M70.7578 256.243L79.2431 247.757" stroke="#0A1029" stroke-width="1.5"/>
<path d="M75 246V249" stroke="#0A1029" stroke-width="1.5"/>
<path d="M75 255V258" stroke="#0A1029" stroke-width="1.5"/>
<path d="M79.2422 256.243L70.7569 247.757" stroke="#0A1029" stroke-width="1.5"/>
<path d="M92 252L104 252" stroke="#0A1029" stroke-width="1.5"/>
<path d="M93.7578 256.243L102.243 247.757" stroke="#0A1029" stroke-width="1.5"/>
<path d="M98 246V249" stroke="#0A1029" stroke-width="1.5"/>
<path d="M98 255V258" stroke="#0A1029" stroke-width="1.5"/>
<path d="M102.242 256.243L93.7569 247.757" stroke="#0A1029" stroke-width="1.5"/>
<path d="M115 252L127 252" stroke="#0A1029" stroke-width="1.5"/>
<path d="M116.758 256.243L125.243 247.757" stroke="#0A1029" stroke-width="1.5"/>
<path d="M121 246V249" stroke="#0A1029" stroke-width="1.5"/>
<path d="M121 255V258" stroke="#0A1029" stroke-width="1.5"/>
<path d="M125.242 256.243L116.757 247.757" stroke="#0A1029" stroke-width="1.5"/>
</svg>
