<svg width="294" height="117" viewBox="0 0 294 117" fill="none" xmlns="http://www.w3.org/2000/svg">
<path d="M107 0.5L102 11.5L107 22.5" stroke="#3291FF" stroke-width="1.5"/>
<path d="M122 1.5V7.5" stroke="#3291FF" stroke-width="1.5"/>
<path d="M129.07 4.42773L124.828 8.67038" stroke="#3291FF" stroke-width="1.5"/>
<path d="M132 11.5L126 11.5" stroke="#3291FF" stroke-width="1.5"/>
<path d="M129.072 18.5703L124.829 14.3277" stroke="#3291FF" stroke-width="1.5"/>
<path d="M122 21.5V15.5" stroke="#3291FF" stroke-width="1.5"/>
<path d="M114.93 18.5723L119.172 14.3296" stroke="#3291FF" stroke-width="1.5"/>
<path d="M112 11.5H118" stroke="#3291FF" stroke-width="1.5"/>
<path d="M114.928 4.42969L119.171 8.67233" stroke="#3291FF" stroke-width="1.5"/>
<path d="M137.41 10V3H138.47V5.9H141.53V3H142.59V10H141.53V6.87H138.47V10H137.41ZM143.676 10L145.766 3H147.026L149.116 10H147.966L147.496 8.32H145.296L144.826 10H143.676ZM146.366 4.5L145.536 7.47H147.256L146.426 4.5H146.366ZM152.262 10V3.95H150.382V3H155.202V3.95H153.322V10H152.262ZM159.208 10.12C158.622 10.12 158.122 9.97 157.708 9.67C157.302 9.37 156.988 8.95 156.768 8.41C156.555 7.86333 156.448 7.23 156.448 6.51C156.448 5.78333 156.555 5.15 156.768 4.61C156.988 4.06333 157.305 3.64 157.718 3.34C158.132 3.03333 158.628 2.88 159.208 2.88C159.962 2.88 160.562 3.08667 161.008 3.5C161.455 3.90667 161.715 4.46 161.788 5.16H160.618C160.558 4.79333 160.408 4.49 160.168 4.25C159.935 4.00333 159.612 3.88 159.198 3.88C158.672 3.88 158.262 4.11333 157.968 4.58C157.675 5.04667 157.528 5.69 157.528 6.51C157.528 7.32333 157.675 7.96333 157.968 8.43C158.262 8.89 158.672 9.12 159.198 9.12C159.625 9.12 159.952 9.01 160.178 8.79C160.405 8.56333 160.552 8.26667 160.618 7.9H161.788C161.682 8.58667 161.412 9.13 160.978 9.53C160.545 9.92333 159.955 10.12 159.208 10.12ZM162.994 10V3H164.054V5.9H167.114V3H168.174V10H167.114V6.87H164.054V10H162.994ZM169.78 10V3H174.25V3.95H170.84V5.99H173.95V6.93H170.84V9.05H174.25V10H169.78ZM177.847 10V3.95H175.967V3H180.787V3.95H178.907V10H177.847ZM140.02 20.12C139.433 20.12 138.933 19.97 138.52 19.67C138.113 19.37 137.8 18.95 137.58 18.41C137.367 17.8633 137.26 17.23 137.26 16.51C137.26 15.7833 137.367 15.15 137.58 14.61C137.8 14.0633 138.117 13.64 138.53 13.34C138.943 13.0333 139.44 12.88 140.02 12.88C140.773 12.88 141.373 13.0867 141.82 13.5C142.267 13.9067 142.527 14.46 142.6 15.16H141.43C141.37 14.7933 141.22 14.49 140.98 14.25C140.747 14.0033 140.423 13.88 140.01 13.88C139.483 13.88 139.073 14.1133 138.78 14.58C138.487 15.0467 138.34 15.69 138.34 16.51C138.34 17.3233 138.487 17.9633 138.78 18.43C139.073 18.89 139.483 19.12 140.01 19.12C140.437 19.12 140.763 19.01 140.99 18.79C141.217 18.5633 141.363 18.2667 141.43 17.9H142.6C142.493 18.5867 142.223 19.13 141.79 19.53C141.357 19.9233 140.767 20.12 140.02 20.12ZM144.206 20V13H145.266V19.05H148.716V20H144.206ZM152.792 20.12C152.226 20.12 151.736 19.9733 151.322 19.68C150.909 19.3867 150.592 18.97 150.372 18.43C150.152 17.89 150.042 17.2467 150.042 16.5C150.042 15.7533 150.152 15.11 150.372 14.57C150.592 14.03 150.909 13.6133 151.322 13.32C151.736 13.0267 152.226 12.88 152.792 12.88C153.366 12.88 153.856 13.0267 154.262 13.32C154.676 13.6133 154.992 14.03 155.212 14.57C155.432 15.11 155.542 15.7533 155.542 16.5C155.542 17.2467 155.432 17.89 155.212 18.43C154.992 18.97 154.676 19.3867 154.262 19.68C153.856 19.9733 153.366 20.12 152.792 20.12ZM152.792 19.12C153.292 19.12 153.696 18.8967 154.002 18.45C154.309 17.9967 154.462 17.3467 154.462 16.5C154.462 15.6533 154.309 15.0067 154.002 14.56C153.696 14.1067 153.292 13.88 152.792 13.88C152.286 13.88 151.879 14.1067 151.572 14.56C151.272 15.0067 151.122 15.6533 151.122 16.5C151.122 17.3467 151.272 17.9967 151.572 18.45C151.879 18.8967 152.286 19.12 152.792 19.12ZM159.168 20.12C158.695 20.12 158.272 20.0233 157.898 19.83C157.532 19.6367 157.242 19.3433 157.028 18.95C156.815 18.55 156.708 18.0467 156.708 17.44V13H157.768V17.5C157.768 18.0333 157.895 18.4467 158.148 18.74C158.402 19.0267 158.748 19.17 159.188 19.17C159.628 19.17 159.975 19.0267 160.228 18.74C160.482 18.4467 160.608 18.0333 160.608 17.5V13H161.668V17.44C161.668 18.0467 161.558 18.55 161.338 18.95C161.118 19.3433 160.818 19.6367 160.438 19.83C160.065 20.0233 159.642 20.12 159.168 20.12ZM163.154 20V13H164.834C165.961 13 166.798 13.3133 167.344 13.94C167.891 14.56 168.164 15.4133 168.164 16.5C168.164 17.5867 167.891 18.4433 167.344 19.07C166.798 19.69 165.961 20 164.834 20H163.154ZM164.214 19.02H164.794C165.608 19.02 166.194 18.7933 166.554 18.34C166.914 17.88 167.094 17.2667 167.094 16.5C167.094 15.7333 166.914 15.1233 166.554 14.67C166.194 14.21 165.608 13.98 164.794 13.98H164.214V19.02Z" fill="#0A1029"/>
<path d="M187 0.5L192 11.5L187 22.5" stroke="#3291FF" stroke-width="1.5"/>
<path d="M2.00001 40.5L2 106.5" stroke="#3291FF" stroke-width="1.5" stroke-linecap="square" stroke-dasharray="4 4"/>
<rect y="32.5" width="4" height="4" fill="#3291FF"/>
<rect y="110.5" width="4" height="4" fill="#3291FF"/>
<path d="M292 40.5L292 106.5" stroke="#3291FF" stroke-width="1.5" stroke-linecap="square" stroke-dasharray="4 4"/>
<rect x="290" y="32.5" width="4" height="4" fill="#3291FF"/>
<rect x="290" y="110.5" width="4" height="4" fill="#3291FF"/>
<path d="M6 112.5L73 112.5" stroke="#3291FF" stroke-width="1.5" stroke-linecap="square" stroke-dasharray="4 4"/>
<rect y="114.5" width="4" height="4" transform="rotate(-90 0 114.5)" fill="#3291FF"/>
<rect x="75" y="114.5" width="4" height="4" transform="rotate(-90 75 114.5)" fill="#3291FF"/>
<path d="M88.9071 116V113.34L86.5971 109H87.8071L89.4371 112.22L91.0671 109H92.2771L89.9671 113.34V116H88.9071ZM95.8332 116.12C95.2665 116.12 94.7765 115.973 94.3632 115.68C93.9499 115.387 93.6332 114.97 93.4132 114.43C93.1932 113.89 93.0832 113.247 93.0832 112.5C93.0832 111.753 93.1932 111.11 93.4132 110.57C93.6332 110.03 93.9499 109.613 94.3632 109.32C94.7765 109.027 95.2665 108.88 95.8332 108.88C96.4065 108.88 96.8965 109.027 97.3032 109.32C97.7165 109.613 98.0332 110.03 98.2532 110.57C98.4732 111.11 98.5832 111.753 98.5832 112.5C98.5832 113.247 98.4732 113.89 98.2532 114.43C98.0332 114.97 97.7165 115.387 97.3032 115.68C96.8965 115.973 96.4065 116.12 95.8332 116.12ZM95.8332 115.12C96.3332 115.12 96.7365 114.897 97.0432 114.45C97.3499 113.997 97.5032 113.347 97.5032 112.5C97.5032 111.653 97.3499 111.007 97.0432 110.56C96.7365 110.107 96.3332 109.88 95.8332 109.88C95.3265 109.88 94.9199 110.107 94.6132 110.56C94.3132 111.007 94.1632 111.653 94.1632 112.5C94.1632 113.347 94.3132 113.997 94.6132 114.45C94.9199 114.897 95.3265 115.12 95.8332 115.12ZM102.209 116.12C101.736 116.12 101.313 116.023 100.939 115.83C100.573 115.637 100.283 115.343 100.069 114.95C99.856 114.55 99.7493 114.047 99.7493 113.44V109H100.809V113.5C100.809 114.033 100.936 114.447 101.189 114.74C101.443 115.027 101.789 115.17 102.229 115.17C102.669 115.17 103.016 115.027 103.269 114.74C103.523 114.447 103.649 114.033 103.649 113.5V109H104.709V113.44C104.709 114.047 104.599 114.55 104.379 114.95C104.159 115.343 103.859 115.637 103.479 115.83C103.106 116.023 102.683 116.12 102.209 116.12ZM106.375 116V109H108.665C109.212 109 109.662 109.093 110.015 109.28C110.375 109.467 110.642 109.72 110.815 110.04C110.995 110.353 111.085 110.71 111.085 111.11C111.085 111.563 110.969 111.967 110.735 112.32C110.509 112.667 110.159 112.92 109.685 113.08L111.155 116H109.925L108.585 113.23H107.435V116H106.375ZM107.435 112.27H108.605C109.085 112.27 109.435 112.163 109.655 111.95C109.882 111.737 109.995 111.457 109.995 111.11C109.995 110.757 109.885 110.477 109.665 110.27C109.445 110.057 109.089 109.95 108.595 109.95H107.435V112.27ZM119.368 116V115.06H120.888V109.94H119.388V109H123.448V109.94H121.948V115.06H123.468V116H119.368ZM125.324 116V109H126.364L129.294 114.13V109H130.304V116H129.264L126.334 110.87V116H125.324ZM132.05 116V109H136.54V109.99H133.11V112.13H135.99V113.06H133.11V116H132.05ZM138.356 116V109H140.646C141.193 109 141.643 109.093 141.996 109.28C142.356 109.467 142.623 109.72 142.796 110.04C142.976 110.353 143.066 110.71 143.066 111.11C143.066 111.563 142.949 111.967 142.716 112.32C142.489 112.667 142.139 112.92 141.666 113.08L143.136 116H141.906L140.566 113.23H139.416V116H138.356ZM139.416 112.27H140.586C141.066 112.27 141.416 112.163 141.636 111.95C141.863 111.737 141.976 111.457 141.976 111.11C141.976 110.757 141.866 110.477 141.646 110.27C141.426 110.057 141.069 109.95 140.576 109.95H139.416V112.27ZM144.282 116L146.372 109H147.632L149.722 116H148.572L148.102 114.32H145.902L145.432 116H144.282ZM146.972 110.5L146.142 113.47H147.862L147.032 110.5H146.972ZM153.468 116.12C152.975 116.12 152.541 116.03 152.168 115.85C151.801 115.67 151.511 115.413 151.298 115.08C151.091 114.747 150.985 114.35 150.978 113.89H152.098C152.105 114.243 152.225 114.547 152.458 114.8C152.698 115.047 153.031 115.17 153.458 115.17C153.851 115.17 154.158 115.08 154.378 114.9C154.598 114.713 154.708 114.473 154.708 114.18C154.708 113.933 154.641 113.73 154.508 113.57C154.381 113.403 154.181 113.257 153.908 113.13C153.635 112.997 153.281 112.86 152.848 112.72C152.268 112.533 151.841 112.277 151.568 111.95C151.295 111.617 151.158 111.21 151.158 110.73C151.158 110.177 151.358 109.73 151.758 109.39C152.158 109.05 152.708 108.88 153.408 108.88C154.088 108.88 154.635 109.057 155.048 109.41C155.461 109.757 155.675 110.24 155.688 110.86H154.558C154.558 110.693 154.511 110.533 154.418 110.38C154.325 110.22 154.191 110.09 154.018 109.99C153.845 109.883 153.631 109.83 153.378 109.83C153.065 109.823 152.801 109.9 152.588 110.06C152.375 110.213 152.268 110.423 152.268 110.69C152.268 111.017 152.398 111.273 152.658 111.46C152.918 111.64 153.341 111.827 153.928 112.02C154.295 112.14 154.618 112.287 154.898 112.46C155.185 112.627 155.408 112.843 155.568 113.11C155.735 113.37 155.818 113.703 155.818 114.11C155.818 114.483 155.725 114.823 155.538 115.13C155.351 115.43 155.081 115.67 154.728 115.85C154.381 116.03 153.961 116.12 153.468 116.12ZM159.264 116V109.95H157.384V109H162.204V109.95H160.324V116H159.264ZM163.94 116V109H166.23C166.777 109 167.227 109.093 167.58 109.28C167.94 109.467 168.207 109.72 168.38 110.04C168.56 110.353 168.65 110.71 168.65 111.11C168.65 111.563 168.534 111.967 168.3 112.32C168.074 112.667 167.724 112.92 167.25 113.08L168.72 116H167.49L166.15 113.23H165V116H163.94ZM165 112.27H166.17C166.65 112.27 167 112.163 167.22 111.95C167.447 111.737 167.56 111.457 167.56 111.11C167.56 110.757 167.45 110.477 167.23 110.27C167.01 110.057 166.654 109.95 166.16 109.95H165V112.27ZM172.566 116.12C172.093 116.12 171.67 116.023 171.296 115.83C170.93 115.637 170.64 115.343 170.426 114.95C170.213 114.55 170.106 114.047 170.106 113.44V109H171.166V113.5C171.166 114.033 171.293 114.447 171.546 114.74C171.8 115.027 172.146 115.17 172.586 115.17C173.026 115.17 173.373 115.027 173.626 114.74C173.88 114.447 174.006 114.033 174.006 113.5V109H175.066V113.44C175.066 114.047 174.956 114.55 174.736 114.95C174.516 115.343 174.216 115.637 173.836 115.83C173.463 116.023 173.04 116.12 172.566 116.12ZM179.002 116.12C178.416 116.12 177.916 115.97 177.502 115.67C177.096 115.37 176.782 114.95 176.562 114.41C176.349 113.863 176.242 113.23 176.242 112.51C176.242 111.783 176.349 111.15 176.562 110.61C176.782 110.063 177.099 109.64 177.512 109.34C177.926 109.033 178.422 108.88 179.002 108.88C179.756 108.88 180.356 109.087 180.802 109.5C181.249 109.907 181.509 110.46 181.582 111.16H180.412C180.352 110.793 180.202 110.49 179.962 110.25C179.729 110.003 179.406 109.88 178.992 109.88C178.466 109.88 178.056 110.113 177.762 110.58C177.469 111.047 177.322 111.69 177.322 112.51C177.322 113.323 177.469 113.963 177.762 114.43C178.056 114.89 178.466 115.12 178.992 115.12C179.419 115.12 179.746 115.01 179.972 114.79C180.199 114.563 180.346 114.267 180.412 113.9H181.582C181.476 114.587 181.206 115.13 180.772 115.53C180.339 115.923 179.749 116.12 179.002 116.12ZM184.849 116V109.95H182.969V109H187.789V109.95H185.909V116H184.849ZM191.755 116.12C191.281 116.12 190.858 116.023 190.485 115.83C190.118 115.637 189.828 115.343 189.615 114.95C189.401 114.55 189.295 114.047 189.295 113.44V109H190.355V113.5C190.355 114.033 190.481 114.447 190.735 114.74C190.988 115.027 191.335 115.17 191.775 115.17C192.215 115.17 192.561 115.027 192.815 114.74C193.068 114.447 193.195 114.033 193.195 113.5V109H194.255V113.44C194.255 114.047 194.145 114.55 193.925 114.95C193.705 115.343 193.405 115.637 193.025 115.83C192.651 116.023 192.228 116.12 191.755 116.12ZM195.921 116V109H198.211C198.757 109 199.207 109.093 199.561 109.28C199.921 109.467 200.187 109.72 200.361 110.04C200.541 110.353 200.631 110.71 200.631 111.11C200.631 111.563 200.514 111.967 200.281 112.32C200.054 112.667 199.704 112.92 199.231 113.08L200.701 116H199.471L198.131 113.23H196.981V116H195.921ZM196.981 112.27H198.151C198.631 112.27 198.981 112.163 199.201 111.95C199.427 111.737 199.541 111.457 199.541 111.11C199.541 110.757 199.431 110.477 199.211 110.27C198.991 110.057 198.634 109.95 198.141 109.95H196.981V112.27ZM202.367 116V109H206.837V109.95H203.427V111.99H206.537V112.93H203.427V115.05H206.837V116H202.367Z" fill="#0A1029"/>
<path d="M221 112.5L288 112.5" stroke="#3291FF" stroke-width="1.5" stroke-linecap="square" stroke-dasharray="4 4"/>
<rect x="215" y="114.5" width="4" height="4" transform="rotate(-90 215 114.5)" fill="#3291FF"/>
<rect x="290" y="114.5" width="4" height="4" transform="rotate(-90 290 114.5)" fill="#3291FF"/>
<path d="M231.284 96.5L230.324 89.5H231.354L231.934 94.59L232.794 89.5H233.834L234.694 94.59L235.274 89.5H236.304L235.344 96.5H234.114L233.314 91.55L232.514 96.5H231.284ZM239.71 96.62C239.143 96.62 238.653 96.4733 238.24 96.18C237.826 95.8867 237.51 95.47 237.29 94.93C237.07 94.39 236.96 93.7467 236.96 93C236.96 92.2533 237.07 91.61 237.29 91.07C237.51 90.53 237.826 90.1133 238.24 89.82C238.653 89.5267 239.143 89.38 239.71 89.38C240.283 89.38 240.773 89.5267 241.18 89.82C241.593 90.1133 241.91 90.53 242.13 91.07C242.35 91.61 242.46 92.2533 242.46 93C242.46 93.7467 242.35 94.39 242.13 94.93C241.91 95.47 241.593 95.8867 241.18 96.18C240.773 96.4733 240.283 96.62 239.71 96.62ZM239.71 95.62C240.21 95.62 240.613 95.3967 240.92 94.95C241.226 94.4967 241.38 93.8467 241.38 93C241.38 92.1533 241.226 91.5067 240.92 91.06C240.613 90.6067 240.21 90.38 239.71 90.38C239.203 90.38 238.796 90.6067 238.49 91.06C238.19 91.5067 238.04 92.1533 238.04 93C238.04 93.8467 238.19 94.4967 238.49 94.95C238.796 95.3967 239.203 95.62 239.71 95.62ZM243.856 96.5V89.5H246.146C246.693 89.5 247.143 89.5933 247.496 89.78C247.856 89.9667 248.123 90.22 248.296 90.54C248.476 90.8533 248.566 91.21 248.566 91.61C248.566 92.0633 248.449 92.4667 248.216 92.82C247.989 93.1667 247.639 93.42 247.166 93.58L248.636 96.5H247.406L246.066 93.73H244.916V96.5H243.856ZM244.916 92.77H246.086C246.566 92.77 246.916 92.6633 247.136 92.45C247.363 92.2367 247.476 91.9567 247.476 91.61C247.476 91.2567 247.366 90.9767 247.146 90.77C246.926 90.5567 246.569 90.45 246.076 90.45H244.916V92.77ZM250.262 96.5V89.5H251.322V92.7L253.802 89.5H255.112L252.372 92.97V93.03L255.172 96.5H253.832L251.322 93.36V96.5H250.262ZM256.698 96.5V89.5H261.168V90.45H257.758V92.49H260.868V93.43H257.758V95.55H261.168V96.5H256.698ZM263.044 96.5V89.5H265.334C265.881 89.5 266.331 89.5933 266.684 89.78C267.044 89.9667 267.311 90.22 267.484 90.54C267.664 90.8533 267.754 91.21 267.754 91.61C267.754 92.0633 267.637 92.4667 267.404 92.82C267.177 93.1667 266.827 93.42 266.354 93.58L267.824 96.5H266.594L265.254 93.73H264.104V96.5H263.044ZM264.104 92.77H265.274C265.754 92.77 266.104 92.6633 266.324 92.45C266.551 92.2367 266.664 91.9567 266.664 91.61C266.664 91.2567 266.554 90.9767 266.334 90.77C266.114 90.5567 265.757 90.45 265.264 90.45H264.104V92.77ZM271.76 96.62C271.267 96.62 270.834 96.53 270.46 96.35C270.094 96.17 269.804 95.9133 269.59 95.58C269.384 95.2467 269.277 94.85 269.27 94.39H270.39C270.397 94.7433 270.517 95.0467 270.75 95.3C270.99 95.5467 271.324 95.67 271.75 95.67C272.144 95.67 272.45 95.58 272.67 95.4C272.89 95.2133 273 94.9733 273 94.68C273 94.4333 272.934 94.23 272.8 94.07C272.674 93.9033 272.474 93.7567 272.2 93.63C271.927 93.4967 271.574 93.36 271.14 93.22C270.56 93.0333 270.134 92.7767 269.86 92.45C269.587 92.1167 269.45 91.71 269.45 91.23C269.45 90.6767 269.65 90.23 270.05 89.89C270.45 89.55 271 89.38 271.7 89.38C272.38 89.38 272.927 89.5567 273.34 89.91C273.754 90.2567 273.967 90.74 273.98 91.36H272.85C272.85 91.1933 272.804 91.0333 272.71 90.88C272.617 90.72 272.484 90.59 272.31 90.49C272.137 90.3833 271.924 90.33 271.67 90.33C271.357 90.3233 271.094 90.4 270.88 90.56C270.667 90.7133 270.56 90.9233 270.56 91.19C270.56 91.5167 270.69 91.7733 270.95 91.96C271.21 92.14 271.634 92.3267 272.22 92.52C272.587 92.64 272.91 92.7867 273.19 92.96C273.477 93.1267 273.7 93.3433 273.86 93.61C274.027 93.87 274.11 94.2033 274.11 94.61C274.11 94.9833 274.017 95.3233 273.83 95.63C273.644 95.93 273.374 96.17 273.02 96.35C272.674 96.53 272.254 96.62 271.76 96.62Z" fill="#0A1029"/>
<path d="M89 12H62C50.9543 12 42 20.9543 42 32V52" stroke="#3291FF" stroke-width="1.5" stroke-linecap="square"/>
<rect x="93" y="10" width="4" height="4" fill="#3291FF"/>
<rect x="40" y="56" width="4" height="4" fill="#3291FF"/>
<path d="M205 12H232C243.046 12 252 20.9543 252 32V58" stroke="#3291FF" stroke-width="1.5" stroke-linecap="square"/>
<rect width="4" height="4" transform="matrix(-1 0 0 1 201 10)" fill="#3291FF"/>
<rect width="4" height="4" transform="matrix(-1 0 0 1 254 56)" fill="#3291FF"/>
<path d="M252 51H204C201.239 51 199 53.2386 199 56" stroke="#3291FF" stroke-width="1.5" stroke-linecap="square"/>
<rect x="197" y="56" width="4" height="4" fill="#3291FF"/>
<path d="M252 44H160.5C153.596 44 148 49.5964 148 56.5" stroke="#3291FF" stroke-width="1.5" stroke-linecap="square"/>
<rect x="146" y="56" width="4" height="4" fill="#3291FF"/>
<g clip-path="url(#clip0_615_2720)">
<path d="M13 54H19" stroke="#3291FF" stroke-width="1.5"/>
<path d="M13 58H19" stroke="#3291FF" stroke-width="1.5"/>
<path d="M13 62H19" stroke="#3291FF" stroke-width="1.5"/>
<path d="M13 66H19" stroke="#3291FF" stroke-width="1.5"/>
<path d="M13 70H19" stroke="#3291FF" stroke-width="1.5"/>
<path d="M13 74H19" stroke="#3291FF" stroke-width="1.5"/>
<path d="M13 78H19" stroke="#3291FF" stroke-width="1.5"/>
<path d="M13 82H19" stroke="#3291FF" stroke-width="1.5"/>
<path d="M13 86H19" stroke="#3291FF" stroke-width="1.5"/>
<path d="M13 90H19" stroke="#3291FF" stroke-width="1.5"/>
<path d="M13 94H19" stroke="#3291FF" stroke-width="1.5"/>
</g>
<g clip-path="url(#clip1_615_2720)">
<path d="M22 100L22 94" stroke="#3291FF" stroke-width="1.5"/>
<path d="M26 100L26 94" stroke="#3291FF" stroke-width="1.5"/>
<path d="M30 100L30 94" stroke="#3291FF" stroke-width="1.5"/>
<path d="M34 100L34 94" stroke="#3291FF" stroke-width="1.5"/>
<path d="M38 100L38 94" stroke="#3291FF" stroke-width="1.5"/>
<path d="M42 100L42 94" stroke="#3291FF" stroke-width="1.5"/>
<path d="M46 100L46 94" stroke="#3291FF" stroke-width="1.5"/>
<path d="M50 100L50 94" stroke="#3291FF" stroke-width="1.5"/>
<path d="M54 100L54 94" stroke="#3291FF" stroke-width="1.5"/>
<path d="M58 100L58 94" stroke="#3291FF" stroke-width="1.5"/>
<path d="M62 100L62 94" stroke="#3291FF" stroke-width="1.5"/>
</g>
<g clip-path="url(#clip2_615_2720)">
<path d="M65 53.5H71" stroke="#3291FF" stroke-width="1.5"/>
<path d="M65 57.5H71" stroke="#3291FF" stroke-width="1.5"/>
<path d="M65 61.5H71" stroke="#3291FF" stroke-width="1.5"/>
<path d="M65 65.5H71" stroke="#3291FF" stroke-width="1.5"/>
<path d="M65 69.5H71" stroke="#3291FF" stroke-width="1.5"/>
<path d="M65 73.5H71" stroke="#3291FF" stroke-width="1.5"/>
<path d="M65 77.5H71" stroke="#3291FF" stroke-width="1.5"/>
<path d="M65 81.5H71" stroke="#3291FF" stroke-width="1.5"/>
<path d="M65 85.5H71" stroke="#3291FF" stroke-width="1.5"/>
<path d="M65 89.5H71" stroke="#3291FF" stroke-width="1.5"/>
<path d="M65 93.5H71" stroke="#3291FF" stroke-width="1.5"/>
</g>
<g clip-path="url(#clip3_615_2720)">
<path d="M22 53L22 47" stroke="#3291FF" stroke-width="1.5"/>
<path d="M26 53L26 47" stroke="#3291FF" stroke-width="1.5"/>
<path d="M30 53L30 47" stroke="#3291FF" stroke-width="1.5"/>
<path d="M34 53L34 47" stroke="#3291FF" stroke-width="1.5"/>
<path d="M38 53L38 47" stroke="#3291FF" stroke-width="1.5"/>
<path d="M42 53L42 47" stroke="#3291FF" stroke-width="1.5"/>
<path d="M46 53L46 47" stroke="#3291FF" stroke-width="1.5"/>
<path d="M50 53L50 47" stroke="#3291FF" stroke-width="1.5"/>
<path d="M54 53L54 47" stroke="#3291FF" stroke-width="1.5"/>
<path d="M58 53L58 47" stroke="#3291FF" stroke-width="1.5"/>
<path d="M62 53L62 47" stroke="#3291FF" stroke-width="1.5"/>
</g>
<rect x="23" y="57.9004" width="37.3333" height="31.2" rx="2" stroke="#3291FF" stroke-width="1.5"/>
<path d="M30.1066 78.001L32.8236 68.901H34.4616L37.1786 78.001H35.6836L35.0726 75.817H32.2126L31.6016 78.001H30.1066ZM33.6036 70.851L32.5246 74.712H34.7606L33.6816 70.851H33.6036ZM38.9805 78.001V68.901H42.0615C42.7549 68.901 43.3269 69.0223 43.7775 69.265C44.2282 69.499 44.5619 69.824 44.7785 70.24C44.9952 70.656 45.1035 71.1326 45.1035 71.67C45.1035 72.2073 44.9952 72.684 44.7785 73.1C44.5619 73.516 44.2282 73.8453 43.7775 74.088C43.3269 74.322 42.7549 74.439 42.0615 74.439H40.3585V78.001H38.9805ZM40.3585 73.204H41.9965C42.5859 73.204 43.0149 73.0653 43.2835 72.788C43.5609 72.5106 43.6995 72.138 43.6995 71.67C43.6995 71.2106 43.5609 70.8423 43.2835 70.565C43.0149 70.279 42.5859 70.136 41.9965 70.136H40.3585V73.204ZM46.6975 78.001V76.779H48.6735V70.123H46.7235V68.901H52.0015V70.123H50.0515V76.779H52.0275V78.001H46.6975Z" fill="#3291FF"/>
<path d="M132 63.5L128 63.5L128 83.5L132 83.5" stroke="#3291FF" stroke-width="1.5"/>
<path d="M135.5 63.5L135.5 83.5" stroke="#3291FF" stroke-width="1.5"/>
<path d="M139.5 63.5L139.5 83.5" stroke="#3291FF" stroke-width="1.5"/>
<path d="M143.5 63.5L143.5 83.5" stroke="#3291FF" stroke-width="1.5"/>
<path d="M147.5 63.5L147.5 83.5" stroke="#3291FF" stroke-width="1.5"/>
<path d="M151.5 63.5L151.5 83.5" stroke="#3291FF" stroke-width="1.5"/>
<path d="M155.5 68.5L155.5 78.5" stroke="#3291FF" stroke-width="1.5"/>
<path d="M159.5 72L159.5 75" stroke="#3291FF" stroke-width="1.5"/>
<path d="M163 63.5L167 63.5L167 83.5L163 83.5" stroke="#3291FF" stroke-width="1.5"/>
<path d="M184 63.5L180 63.5L180 83.5L184 83.5" stroke="#3291FF" stroke-width="1.5"/>
<path d="M187.5 63.5L187.5 83.5" stroke="#3291FF" stroke-width="1.5"/>
<path d="M191.5 63.5L191.5 83.5" stroke="#3291FF" stroke-width="1.5"/>
<path d="M195.5 63.5L195.5 83.5" stroke="#3291FF" stroke-width="1.5"/>
<path d="M199.5 63.5L199.5 83.5" stroke="#3291FF" stroke-width="1.5" stroke-dasharray="3 3"/>
<path d="M203.5 63.5L203.5 83.5" stroke="#3291FF" stroke-width="1.5" stroke-dasharray="3 3"/>
<path d="M207.5 63.5L207.5 83.5" stroke="#3291FF" stroke-width="1.5" stroke-dasharray="3 3"/>
<path d="M211.5 63.5L211.5 83.5" stroke="#3291FF" stroke-width="1.5" stroke-dasharray="3 3"/>
<path d="M215 63.5L219 63.5L219 83.5L215 83.5" stroke="#3291FF" stroke-width="1.5"/>
<path d="M236 63.5L232 63.5L232 83.5L236 83.5" stroke="#3291FF" stroke-width="1.5"/>
<path d="M235.5 67.5H268.5" stroke="#3291FF" stroke-width="1.5"/>
<path d="M235.5 71.5H268.5" stroke="#3291FF" stroke-width="1.5"/>
<path d="M235.5 75.5H268.5" stroke="#3291FF" stroke-width="1.5"/>
<path d="M235.5 79.5H268.5" stroke="#3291FF" stroke-width="1.5"/>
<path d="M268 63.5L272 63.5L272 83.5L268 83.5" stroke="#3291FF" stroke-width="1.5"/>
<path d="M6 34.5L37 34.5" stroke="#3291FF" stroke-width="1.5" stroke-linecap="square" stroke-dasharray="4 4"/>
<rect y="36.5" width="4" height="4" transform="rotate(-90 0 36.5)" fill="#3291FF"/>
<path d="M47 34.5L247 34.5" stroke="#3291FF" stroke-width="1.5" stroke-linecap="square" stroke-dasharray="4 4"/>
<path d="M257 34.5L288 34.5" stroke="#3291FF" stroke-width="1.5" stroke-linecap="square" stroke-dasharray="4 4"/>
<rect x="290" y="36.5" width="4" height="4" transform="rotate(-90 290 36.5)" fill="#3291FF"/>
<defs>
<clipPath id="clip0_615_2720">
<rect width="6" height="42" fill="white" transform="translate(13 53)"/>
</clipPath>
<clipPath id="clip1_615_2720">
<rect width="6" height="43" fill="white" transform="translate(20.5 100) rotate(-90)"/>
</clipPath>
<clipPath id="clip2_615_2720">
<rect width="6" height="42" fill="white" transform="translate(65 52.5)"/>
</clipPath>
<clipPath id="clip3_615_2720">
<rect width="6" height="43" fill="white" transform="translate(20.5 53) rotate(-90)"/>
</clipPath>
</defs>
</svg>
