<svg width="1197" height="287" viewBox="0 0 1197 287" fill="none" xmlns="http://www.w3.org/2000/svg">
<path d="M597.499 286.001L1196 286.001" stroke="#0A1029" stroke-width="1.5"/>
<path d="M601.208 278H998.686L1148.51 286H1196.21" stroke="#0A1029" stroke-width="1.5" stroke-dasharray="3 3"/>
<path d="M601.208 249H942.964C952.565 249 957.365 249 962.109 249.634C966.853 250.267 971.485 251.527 980.749 254.046L1079.7 280.954C1088.97 283.473 1093.6 284.733 1098.35 285.366C1103.09 286 1107.89 286 1117.49 286H1196.21" stroke="#0A1029" stroke-width="1.5" stroke-dasharray="3 3"/>
<path d="M601.208 265H972.452C977.677 265 980.289 265 982.892 265.189C985.495 265.378 988.08 265.755 993.25 266.51L1116.44 284.49C1121.61 285.245 1124.19 285.622 1126.79 285.811C1129.4 286 1132.01 286 1137.23 286H1196.21" stroke="#0A1029" stroke-width="1.5" stroke-dasharray="3 3"/>
<path d="M601.208 230H908.215C923.314 230 930.863 230 938.197 231.544C945.531 233.087 952.44 236.13 966.258 242.216L1037.93 273.784C1051.75 279.87 1058.66 282.913 1065.99 284.456C1073.33 286 1080.88 286 1095.97 286H1196.21" stroke="#0A1029" stroke-width="1.5" stroke-dasharray="3 3"/>
<path d="M601.208 208H867.224C888.905 208 899.745 208 909.966 211.1C920.186 214.201 929.199 220.223 947.226 232.268L991.321 261.732C1009.35 273.777 1018.36 279.799 1028.58 282.9C1038.8 286 1049.64 286 1071.32 286H1196.21" stroke="#0A1029" stroke-width="1.5" stroke-dasharray="3 3"/>
<path d="M601.208 184H821.987C850.789 184 865.191 184 878.196 189.269C891.201 194.539 901.541 204.563 922.22 224.612L943.651 245.389C964.331 265.437 974.671 275.461 987.676 280.731C1000.68 286 1015.08 286 1043.89 286L1196.21 286" stroke="#0A1029" stroke-width="1.5" stroke-dasharray="3 3"/>
<path d="M601.208 158H773.226C809.301 158 827.339 158 842.769 165.883C858.199 173.767 868.769 188.382 889.91 217.614L896.254 226.386C917.394 255.618 927.964 270.233 943.394 278.117C958.825 286 976.862 286 1012.94 286H1196.21" stroke="#0A1029" stroke-width="1.5" stroke-dasharray="3 3"/>
<path d="M601.208 130H723.949C766.087 130 787.156 130 804.234 140.224C804.686 140.494 805.135 140.77 805.581 141.05C822.431 151.646 831.972 170.431 851.056 208V208C870.139 245.569 879.681 264.354 896.531 274.95C896.977 275.23 897.426 275.506 897.877 275.776C914.955 286 936.025 286 978.163 286H1150.21" stroke="#0A1029" stroke-width="1.5" stroke-dasharray="3 3"/>
<path d="M601.208 100H675.377C721.154 100 744.042 100 761.869 111.506C763.641 112.649 765.361 113.87 767.026 115.164C783.774 128.19 791.335 149.793 806.457 193V193C821.578 236.207 829.139 257.81 845.887 270.836C847.552 272.13 849.273 273.351 851.044 274.494C868.871 286 891.759 286 937.536 286H1052.21" stroke="#0A1029" stroke-width="1.5" stroke-dasharray="3 3"/>
<path d="M601.208 69H622.153C673.877 69 699.739 69 718.757 82.9625C720.273 84.0755 721.745 85.2474 723.169 86.4756C741.035 101.884 746.826 127.089 758.409 177.5V177.5C769.991 227.911 775.782 253.116 793.648 268.524C795.073 269.753 796.544 270.925 798.06 272.037C817.078 286 842.94 286 894.664 286H946.631H1123.21" stroke="#0A1029" stroke-width="1.5" stroke-dasharray="3 3"/>
<path d="M601.208 36V36C626.359 36 638.934 36 649.474 39.3123C668.695 45.3532 684.506 59.1716 693.066 77.411C697.759 87.4121 699.443 99.8741 702.81 124.798L709.778 176.376C715.829 221.162 718.854 243.555 731.469 259.198C736.722 265.711 743.07 271.259 750.228 275.592C767.419 286 790.015 286 835.208 286V286" stroke="#0A1029" stroke-width="1.5" stroke-dasharray="3 3"/>
<path d="M601.208 1V1C627.244 1 648.784 21.2604 650.377 47.2474L661.509 228.906C663.475 260.988 690.066 286 722.208 286V286" stroke="#0A1029" stroke-width="1.5" stroke-dasharray="3 3"/>
<path d="M598.208 0.999997V286" stroke="#0A1029" stroke-width="1.5" stroke-dasharray="3 3"/>
<path d="M598.708 286.001L0.20755 286.001" stroke="#0A1029" stroke-width="1.5"/>
<path d="M594.999 278H197.521L47.6982 286H-0.00140381" stroke="#0A1029" stroke-width="1.5" stroke-dasharray="3 3"/>
<path d="M594.999 249H253.243C243.642 249 238.842 249 234.098 249.634C229.354 250.267 224.722 251.527 215.458 254.046L116.502 280.954C107.238 283.473 102.606 284.733 97.862 285.366C93.118 286 88.3177 286 78.7171 286H-0.00140381" stroke="#0A1029" stroke-width="1.5" stroke-dasharray="3 3"/>
<path d="M594.999 265H223.755C218.53 265 215.918 265 213.315 265.189C210.712 265.378 208.127 265.755 202.957 266.51L79.7714 284.49C74.6015 285.245 72.0166 285.622 69.4135 285.811C66.8103 286 64.198 286 58.9734 286H-0.00140381" stroke="#0A1029" stroke-width="1.5" stroke-dasharray="3 3"/>
<path d="M594.999 230H287.992C272.893 230 265.344 230 258.01 231.544C250.676 233.087 243.767 236.13 229.949 242.216L158.276 273.784C144.458 279.87 137.549 282.913 130.215 284.456C122.881 286 115.332 286 100.233 286H-0.00140381" stroke="#0A1029" stroke-width="1.5" stroke-dasharray="3 3"/>
<path d="M594.999 208H328.983C307.302 208 296.462 208 286.242 211.1C276.021 214.201 267.008 220.223 248.981 232.268L204.886 261.732C186.859 273.777 177.846 279.799 167.626 282.9C157.405 286 146.565 286 124.884 286H-0.00140381" stroke="#0A1029" stroke-width="1.5" stroke-dasharray="3 3"/>
<path d="M594.999 184H374.22C345.418 184 331.016 184 318.011 189.269C305.006 194.539 294.666 204.563 273.987 224.612L252.556 245.389C231.876 265.437 221.536 275.461 208.531 280.731C195.526 286 181.125 286 152.322 286L-0.00140381 286" stroke="#0A1029" stroke-width="1.5" stroke-dasharray="3 3"/>
<path d="M594.999 158H422.981C386.906 158 368.868 158 353.438 165.883C338.008 173.767 327.438 188.382 306.297 217.614L299.953 226.386C278.813 255.618 268.243 270.233 252.813 278.117C237.382 286 219.345 286 183.27 286H-0.00140381" stroke="#0A1029" stroke-width="1.5" stroke-dasharray="3 3"/>
<path d="M594.999 130H472.258C430.12 130 409.051 130 391.973 140.224C391.521 140.494 391.072 140.77 390.626 141.05C373.776 151.646 364.235 170.431 345.151 208V208C326.068 245.569 316.526 264.354 299.676 274.95C299.23 275.23 298.782 275.506 298.33 275.776C281.252 286 260.183 286 218.044 286H45.9986" stroke="#0A1029" stroke-width="1.5" stroke-dasharray="3 3"/>
<path d="M594.999 100H520.83C475.053 100 452.165 100 434.338 111.506C432.566 112.649 430.846 113.87 429.181 115.164C412.433 128.19 404.872 149.793 389.75 193V193C374.629 236.207 367.068 257.81 350.32 270.836C348.655 272.13 346.934 273.351 345.163 274.494C327.336 286 304.448 286 258.671 286H143.999" stroke="#0A1029" stroke-width="1.5" stroke-dasharray="3 3"/>
<path d="M594.999 69H574.054C522.33 69 496.468 69 477.45 82.9625C475.934 84.0755 474.462 85.2474 473.038 86.4756C455.172 101.884 449.381 127.089 437.798 177.5V177.5C426.216 227.911 420.425 253.116 402.559 268.524C401.134 269.753 399.663 270.925 398.147 272.037C379.129 286 353.267 286 301.543 286H249.576H72.9986" stroke="#0A1029" stroke-width="1.5" stroke-dasharray="3 3"/>
<path d="M594.999 36V36C569.848 36 557.273 36 546.733 39.3123C527.512 45.3532 511.701 59.1716 503.142 77.411C498.448 87.4121 496.764 99.8741 493.397 124.798L486.429 176.376C480.378 221.162 477.353 243.555 464.738 259.198C459.485 265.711 453.137 271.259 445.979 275.592C428.788 286 406.192 286 360.999 286V286" stroke="#0A1029" stroke-width="1.5" stroke-dasharray="3 3"/>
<path d="M594.999 1V1C568.963 1 547.423 21.2604 545.83 47.2474L534.698 228.906C532.732 260.988 506.141 286 473.999 286V286" stroke="#0A1029" stroke-width="1.5" stroke-dasharray="3 3"/>
</svg>
