<svg width="1197" height="287" viewBox="0 0 1197 287" fill="none" xmlns="http://www.w3.org/2000/svg">
<path d="M597.501 286.001L1196 286.001" stroke="#B8D9FF" stroke-width="1.5"/>
<path d="M601.21 278H998.688L1148.51 286H1196.21" stroke="#B8D9FF" stroke-width="1.5" stroke-dasharray="3 3"/>
<path d="M601.21 249H942.966C952.566 249 957.366 249 962.11 249.634C966.854 250.267 971.487 251.527 980.751 254.046L1079.71 280.954C1088.97 283.473 1093.6 284.733 1098.35 285.366C1103.09 286 1107.89 286 1117.49 286H1196.21" stroke="#B8D9FF" stroke-width="1.5" stroke-dasharray="3 3"/>
<path d="M601.21 265H972.453C977.678 265 980.29 265 982.894 265.189C985.497 265.378 988.082 265.755 993.251 266.51L1116.44 284.49C1121.61 285.245 1124.19 285.622 1126.8 285.811C1129.4 286 1132.01 286 1137.24 286H1196.21" stroke="#B8D9FF" stroke-width="1.5" stroke-dasharray="3 3"/>
<path d="M601.21 230H908.217C923.316 230 930.865 230 938.199 231.544C945.533 233.087 952.442 236.13 966.26 242.216L1037.93 273.784C1051.75 279.87 1058.66 282.913 1065.99 284.456C1073.33 286 1080.88 286 1095.98 286H1196.21" stroke="#B8D9FF" stroke-width="1.5" stroke-dasharray="3 3"/>
<path d="M601.21 208H867.225C888.906 208 899.747 208 909.967 211.1C920.187 214.201 929.201 220.223 947.228 232.268L991.322 261.732C1009.35 273.777 1018.36 279.799 1028.58 282.9C1038.8 286 1049.64 286 1071.32 286H1196.21" stroke="#B8D9FF" stroke-width="1.5" stroke-dasharray="3 3"/>
<path d="M601.21 184H821.988C850.791 184 865.192 184 878.197 189.269C891.202 194.539 901.542 204.563 922.222 224.612L943.653 245.389C964.333 265.437 974.672 275.461 987.677 280.731C1000.68 286 1015.08 286 1043.89 286L1196.21 286" stroke="#B8D9FF" stroke-width="1.5" stroke-dasharray="3 3"/>
<path d="M601.21 158H773.228C809.303 158 827.34 158 842.77 165.883C858.201 173.767 868.771 188.382 889.911 217.614L896.255 226.386C917.396 255.618 927.966 270.233 943.396 278.117C958.826 286 976.864 286 1012.94 286H1196.21" stroke="#B8D9FF" stroke-width="1.5" stroke-dasharray="3 3"/>
<path d="M601.21 130H723.951C766.089 130 787.158 130 804.236 140.224C804.688 140.494 805.137 140.77 805.583 141.05C822.432 151.646 831.974 170.431 851.057 208V208C870.141 245.569 879.683 264.354 896.532 274.95C896.978 275.23 897.427 275.506 897.879 275.776C914.957 286 936.026 286 978.164 286H1150.21" stroke="#B8D9FF" stroke-width="1.5" stroke-dasharray="3 3"/>
<path d="M601.21 100H675.379C721.155 100 744.044 100 761.87 111.506C763.642 112.649 765.363 113.87 767.027 115.164C783.776 128.19 791.337 149.793 806.458 193V193C821.58 236.207 829.14 257.81 845.889 270.836C847.553 272.13 849.274 273.351 851.046 274.494C868.873 286 891.761 286 937.537 286H1052.21" stroke="#B8D9FF" stroke-width="1.5" stroke-dasharray="3 3"/>
<path d="M601.21 69H622.155C673.879 69 699.741 69 718.758 82.9625C720.274 84.0755 721.746 85.2474 723.17 86.4756C741.037 101.884 746.828 127.089 758.41 177.5V177.5C769.992 227.911 775.784 253.116 793.65 268.524C795.074 269.753 796.546 270.925 798.062 272.037C817.079 286 842.941 286 894.666 286H946.632H1123.21" stroke="#B8D9FF" stroke-width="1.5" stroke-dasharray="3 3"/>
<path d="M601.21 36V36C626.36 36 638.936 36 649.475 39.3123C668.696 45.3532 684.507 59.1716 693.067 77.411C697.761 87.4121 699.444 99.8741 702.811 124.798L709.78 176.376C715.83 221.162 718.856 243.555 731.471 259.198C736.724 265.711 743.071 271.259 750.229 275.592C767.42 286 790.017 286 835.21 286V286" stroke="#B8D9FF" stroke-width="1.5" stroke-dasharray="3 3"/>
<path d="M601.21 1V1C627.246 1 648.786 21.2604 650.378 47.2474L661.51 228.906C663.476 260.988 690.068 286 722.21 286V286" stroke="#B8D9FF" stroke-width="1.5" stroke-dasharray="3 3"/>
<path d="M598.21 0.999997V286" stroke="#B8D9FF" stroke-width="1.5" stroke-dasharray="3 3"/>
<path d="M598.709 286.001L0.208984 286.001" stroke="#B8D9FF" stroke-width="1.5"/>
<path d="M595 278H197.522L47.6996 286H0" stroke="#B8D9FF" stroke-width="1.5" stroke-dasharray="3 3"/>
<path d="M595 249H253.244C243.644 249 238.844 249 234.1 249.634C229.356 250.267 224.723 251.527 215.459 254.046L116.504 280.954C107.239 283.473 102.607 284.733 97.8634 285.366C93.1194 286 88.3191 286 78.7185 286H0" stroke="#B8D9FF" stroke-width="1.5" stroke-dasharray="3 3"/>
<path d="M595 265H223.757C218.532 265 215.92 265 213.316 265.189C210.713 265.378 208.128 265.755 202.959 266.51L79.7728 284.49C74.603 285.245 72.018 285.622 69.4149 285.811C66.8117 286 64.1994 286 58.9748 286H0" stroke="#B8D9FF" stroke-width="1.5" stroke-dasharray="3 3"/>
<path d="M595 230H287.993C272.894 230 265.345 230 258.011 231.544C250.677 233.087 243.768 236.13 229.95 242.216L158.278 273.784C144.46 279.87 137.551 282.913 130.217 284.456C122.883 286 115.333 286 100.234 286H0" stroke="#B8D9FF" stroke-width="1.5" stroke-dasharray="3 3"/>
<path d="M595 208H328.984C307.304 208 296.463 208 286.243 211.1C276.023 214.201 267.009 220.223 248.982 232.268L204.888 261.732C186.861 273.777 177.847 279.799 167.627 282.9C157.407 286 146.566 286 124.885 286H0" stroke="#B8D9FF" stroke-width="1.5" stroke-dasharray="3 3"/>
<path d="M595 184H374.222C345.419 184 331.018 184 318.013 189.269C305.008 194.539 294.668 204.563 273.988 224.612L252.557 245.389C231.877 265.437 221.538 275.461 208.533 280.731C195.527 286 181.126 286 152.323 286L0 286" stroke="#B8D9FF" stroke-width="1.5" stroke-dasharray="3 3"/>
<path d="M595 158H422.982C386.907 158 368.87 158 353.439 165.883C338.009 173.767 327.439 188.382 306.299 217.614L299.955 226.386C278.814 255.618 268.244 270.233 252.814 278.117C237.384 286 219.346 286 183.271 286H0" stroke="#B8D9FF" stroke-width="1.5" stroke-dasharray="3 3"/>
<path d="M595 130H472.259C430.121 130 409.052 130 391.974 140.224C391.522 140.494 391.073 140.77 390.627 141.05C373.778 151.646 364.236 170.431 345.152 208V208C326.069 245.569 316.527 264.354 299.678 274.95C299.232 275.23 298.783 275.506 298.331 275.776C281.253 286 260.184 286 218.046 286H46" stroke="#B8D9FF" stroke-width="1.5" stroke-dasharray="3 3"/>
<path d="M595 100H520.831C475.055 100 452.166 100 434.34 111.506C432.568 112.649 430.847 113.87 429.183 115.164C412.434 128.19 404.873 149.793 389.752 193V193C374.63 236.207 367.07 257.81 350.321 270.836C348.656 272.13 346.936 273.351 345.164 274.494C327.337 286 304.449 286 258.673 286H144" stroke="#B8D9FF" stroke-width="1.5" stroke-dasharray="3 3"/>
<path d="M595 69H574.055C522.331 69 496.469 69 477.452 82.9625C475.936 84.0755 474.464 85.2474 473.04 86.4756C455.173 101.884 449.382 127.089 437.8 177.5V177.5C426.218 227.911 420.426 253.116 402.56 268.524C401.136 269.753 399.664 270.925 398.148 272.037C379.131 286 353.268 286 301.544 286H249.578H73" stroke="#B8D9FF" stroke-width="1.5" stroke-dasharray="3 3"/>
<path d="M595 36V36C569.85 36 557.274 36 546.735 39.3123C527.514 45.3532 511.703 59.1716 503.143 77.411C498.449 87.4121 496.766 99.8741 493.398 124.798L486.43 176.376C480.38 221.162 477.354 243.555 464.739 259.198C459.486 265.711 453.139 271.259 445.981 275.592C428.79 286 406.193 286 361 286V286" stroke="#B8D9FF" stroke-width="1.5" stroke-dasharray="3 3"/>
<path d="M595 1V1C568.964 1 547.424 21.2604 545.832 47.2474L534.7 228.906C532.734 260.988 506.142 286 474 286V286" stroke="#B8D9FF" stroke-width="1.5" stroke-dasharray="3 3"/>
</svg>
