<svg width="716" height="325" viewBox="0 0 716 325" fill="none" xmlns="http://www.w3.org/2000/svg" xmlns:xlink="http://www.w3.org/1999/xlink">
<path d="M411.5 317.502L411.5 248.502" stroke="url(#pattern0_525_4293)" stroke-width="5"/>
<path d="M551.5 321.502L415.5 321.502" stroke="url(#pattern1_525_4293)" stroke-width="5"/>
<path d="M555.5 317.502L555.5 248.502" stroke="url(#pattern2_525_4293)" stroke-width="5"/>
<path d="M551.5 244.502L415.5 244.502" stroke="url(#pattern3_525_4293)" stroke-width="5"/>
<path d="M308.5 158.001L311.5 158.001" stroke="#BAD61C" stroke-width="1.5"/>
<path d="M310.256 153.759L312.378 155.88" stroke="#BAD61C" stroke-width="1.5"/>
<path d="M314.5 152.001L314.5 155.001" stroke="#BAD61C" stroke-width="1.5"/>
<path d="M318.742 153.757L316.621 155.879" stroke="#BAD61C" stroke-width="1.5"/>
<path d="M320.5 158.001L317.5 158.001" stroke="#BAD61C" stroke-width="1.5"/>
<path d="M318.744 162.243L316.622 160.122" stroke="#BAD61C" stroke-width="1.5"/>
<path d="M314.5 164.001L314.5 161.001" stroke="#BAD61C" stroke-width="1.5"/>
<path d="M310.258 162.245L312.379 160.123" stroke="#BAD61C" stroke-width="1.5"/>
<rect x="323.5" y="149.001" width="18" height="18" rx="9" transform="rotate(90 323.5 149.001)" stroke="#9ECBFF" stroke-width="1.5"/>
<path d="M392.5 158.001L395.5 158.001" stroke="#BAD61C" stroke-width="1.5"/>
<path d="M394.256 153.759L396.378 155.88" stroke="#BAD61C" stroke-width="1.5"/>
<path d="M398.5 152.001L398.5 155.001" stroke="#BAD61C" stroke-width="1.5"/>
<path d="M402.742 153.757L400.621 155.879" stroke="#BAD61C" stroke-width="1.5"/>
<path d="M404.5 158.001L401.5 158.001" stroke="#BAD61C" stroke-width="1.5"/>
<path d="M402.744 162.243L400.622 160.122" stroke="#BAD61C" stroke-width="1.5"/>
<path d="M398.5 164.001L398.5 161.001" stroke="#BAD61C" stroke-width="1.5"/>
<path d="M394.258 162.245L396.379 160.123" stroke="#BAD61C" stroke-width="1.5"/>
<rect x="407.5" y="149.001" width="18" height="18" rx="9" transform="rotate(90 407.5 149.001)" stroke="#9ECBFF" stroke-width="1.5"/>
<path d="M476.5 158.001L479.5 158.001" stroke="#BAD61C" stroke-width="1.5"/>
<path d="M478.256 153.759L480.378 155.88" stroke="#BAD61C" stroke-width="1.5"/>
<path d="M482.5 152.001L482.5 155.001" stroke="#BAD61C" stroke-width="1.5"/>
<path d="M486.742 153.757L484.621 155.879" stroke="#BAD61C" stroke-width="1.5"/>
<path d="M488.5 158.001L485.5 158.001" stroke="#BAD61C" stroke-width="1.5"/>
<path d="M486.744 162.243L484.622 160.122" stroke="#BAD61C" stroke-width="1.5"/>
<path d="M482.5 164.001L482.5 161.001" stroke="#BAD61C" stroke-width="1.5"/>
<path d="M478.258 162.245L480.379 160.123" stroke="#BAD61C" stroke-width="1.5"/>
<rect x="491.5" y="149.001" width="18" height="18" rx="9" transform="rotate(90 491.5 149.001)" stroke="#9ECBFF" stroke-width="1.5"/>
<path d="M560.5 158.001L563.5 158.001" stroke="#BAD61C" stroke-width="1.5"/>
<path d="M562.256 153.759L564.378 155.88" stroke="#BAD61C" stroke-width="1.5"/>
<path d="M566.5 152.001L566.5 155.001" stroke="#BAD61C" stroke-width="1.5"/>
<path d="M570.742 153.757L568.621 155.879" stroke="#BAD61C" stroke-width="1.5"/>
<path d="M572.5 158.001L569.5 158.001" stroke="#BAD61C" stroke-width="1.5"/>
<path d="M570.744 162.243L568.622 160.122" stroke="#BAD61C" stroke-width="1.5"/>
<path d="M566.5 164.001L566.5 161.001" stroke="#BAD61C" stroke-width="1.5"/>
<path d="M562.258 162.245L564.379 160.123" stroke="#BAD61C" stroke-width="1.5"/>
<rect x="575.5" y="149.001" width="18" height="18" rx="9" transform="rotate(90 575.5 149.001)" stroke="#9ECBFF" stroke-width="1.5"/>
<path d="M644.5 158.001L647.5 158.001" stroke="#BAD61C" stroke-width="1.5"/>
<path d="M646.256 153.759L648.378 155.88" stroke="#BAD61C" stroke-width="1.5"/>
<path d="M650.5 152.001L650.5 155.001" stroke="#BAD61C" stroke-width="1.5"/>
<path d="M654.742 153.757L652.621 155.879" stroke="#BAD61C" stroke-width="1.5"/>
<path d="M656.5 158.001L653.5 158.001" stroke="#BAD61C" stroke-width="1.5"/>
<path d="M654.744 162.243L652.622 160.122" stroke="#BAD61C" stroke-width="1.5"/>
<path d="M650.5 164.001L650.5 161.001" stroke="#BAD61C" stroke-width="1.5"/>
<path d="M646.258 162.245L648.379 160.123" stroke="#BAD61C" stroke-width="1.5"/>
<rect x="659.5" y="149.001" width="18" height="18" rx="9" transform="rotate(90 659.5 149.001)" stroke="#9ECBFF" stroke-width="1.5"/>
<path d="M419.5 266.001H447.5" stroke="#BAD61C" stroke-width="1.5"/>
<path d="M419.5 270.001H547.5" stroke="#BAD61C" stroke-width="1.5"/>
<path d="M419.5 274.001H547.5" stroke="#BAD61C" stroke-width="1.5"/>
<path d="M419.5 278.001H547.5" stroke="#BAD61C" stroke-width="1.5"/>
<path d="M419.5 282.001H547.5" stroke="#BAD61C" stroke-width="1.5"/>
<path d="M419.5 286.001H547.5" stroke="#BAD61C" stroke-width="1.5"/>
<path d="M419.5 290.001H547.5" stroke="#BAD61C" stroke-width="1.5"/>
<path d="M419.5 294.001H547.5" stroke="#BAD61C" stroke-width="1.5"/>
<path d="M419.5 298.001H547.5" stroke="#BAD61C" stroke-width="1.5"/>
<path d="M419.5 302.001H547.5" stroke="#BAD61C" stroke-width="1.5"/>
<path d="M419.5 306.001H547.5" stroke="#BAD61C" stroke-width="1.5"/>
<path d="M419.5 310.001H547.5" stroke="#BAD61C" stroke-width="1.5"/>
<path d="M419.5 314.001H547.5" stroke="#BAD61C" stroke-width="1.5"/>
<path d="M402.5 103.502H357.5V121.502" stroke="#9ECBFF" stroke-width="1.5" stroke-linecap="square" stroke-dasharray="4 4"/>
<rect x="406.5" y="101.502" width="4" height="4" fill="#9ECBFF"/>
<rect x="355.5" y="125.502" width="4" height="4" fill="#9ECBFF"/>
<path d="M353.5 103.502H273.5V121.502" stroke="#9ECBFF" stroke-width="1.5" stroke-linecap="square" stroke-dasharray="4 4"/>
<rect x="271.5" y="125.502" width="4" height="4" fill="#9ECBFF"/>
<path d="M611.5 103.502H691.5V121.502" stroke="#9ECBFF" stroke-width="1.5" stroke-linecap="square" stroke-dasharray="4 4"/>
<rect width="4" height="4" transform="matrix(-1 0 0 1 693.5 125.502)" fill="#9ECBFF"/>
<path d="M402.5 211.502H357.5V193.502" stroke="#9ECBFF" stroke-width="1.5" stroke-linecap="square" stroke-dasharray="4 4"/>
<rect width="4" height="4" transform="matrix(1 0 0 -1 406.5 213.502)" fill="#9ECBFF"/>
<rect width="4" height="4" transform="matrix(1 0 0 -1 355.5 189.502)" fill="#9ECBFF"/>
<path d="M353.5 211.502H273.5V193.502" stroke="#9ECBFF" stroke-width="1.5" stroke-linecap="square" stroke-dasharray="4 4"/>
<rect width="4" height="4" transform="matrix(1 0 0 -1 271.5 189.502)" fill="#9ECBFF"/>
<path d="M611.5 211.502H691.5V193.502" stroke="#9ECBFF" stroke-width="1.5" stroke-linecap="square" stroke-dasharray="4 4"/>
<rect x="693.5" y="189.502" width="4" height="4" transform="rotate(180 693.5 189.502)" fill="#9ECBFF"/>
<path d="M562.5 103.502H607.5V121.502" stroke="#9ECBFF" stroke-width="1.5" stroke-linecap="square" stroke-dasharray="4 4"/>
<rect width="4" height="4" transform="matrix(-1 0 0 1 558.5 101.502)" fill="#9ECBFF"/>
<rect width="4" height="4" transform="matrix(-1 0 0 1 609.5 125.502)" fill="#9ECBFF"/>
<path d="M562.5 211.502H607.5V193.502" stroke="#9ECBFF" stroke-width="1.5" stroke-linecap="square" stroke-dasharray="4 4"/>
<rect x="558.5" y="213.502" width="4" height="4" transform="rotate(180 558.5 213.502)" fill="#9ECBFF"/>
<rect x="609.5" y="189.502" width="4" height="4" transform="rotate(180 609.5 189.502)" fill="#9ECBFF"/>
<line y1="-0.75" x2="7.5" y2="-0.75" transform="matrix(5.99008e-08 1 1 -3.18975e-08 536.5 30.0024)" stroke="#9ECBFF" stroke-width="1.5"/>
<rect x="533" y="26.7524" width="5.5" height="5.5" transform="rotate(-90 533 26.7524)" stroke="#9ECBFF" stroke-width="1.5"/>
<line y1="-0.75" x2="7.5" y2="-0.75" transform="matrix(5.99008e-08 1 1 -3.18975e-08 536.5 10.5024)" stroke="#9ECBFF" stroke-width="1.5"/>
<line y1="-0.75" x2="3.5" y2="-0.75" transform="matrix(4.37114e-08 1 1 -4.37114e-08 420.5 30.0024)" stroke="#9ECBFF" stroke-width="1.5"/>
<rect x="417" y="26.7524" width="5.5" height="5.5" transform="rotate(-90 417 26.7524)" stroke="#9ECBFF" stroke-width="1.5"/>
<line y1="-0.75" x2="3.5" y2="-0.75" transform="matrix(4.37114e-08 1 1 -4.37114e-08 420.5 14.5024)" stroke="#9ECBFF" stroke-width="1.5"/>
<line y1="-0.75" x2="3.5" y2="-0.75" transform="matrix(5.99008e-08 1 1 -3.18975e-08 549.5 30.0024)" stroke="#9ECBFF" stroke-width="1.5"/>
<rect x="546" y="26.7524" width="5.5" height="5.5" transform="rotate(-90 546 26.7524)" stroke="#9ECBFF" stroke-width="1.5"/>
<line y1="-0.75" x2="3.5" y2="-0.75" transform="matrix(5.99008e-08 1 1 -3.18975e-08 549.5 14.5024)" stroke="#9ECBFF" stroke-width="1.5"/>
<line y1="-0.75" x2="7.5" y2="-0.75" transform="matrix(4.37114e-08 1 1 -4.37114e-08 433.5 30.0024)" stroke="#9ECBFF" stroke-width="1.5"/>
<rect x="430" y="26.7524" width="5.5" height="5.5" transform="rotate(-90 430 26.7524)" stroke="#9ECBFF" stroke-width="1.5"/>
<line y1="-0.75" x2="7.5" y2="-0.75" transform="matrix(4.37114e-08 1 1 -4.37114e-08 433.5 10.5024)" stroke="#9ECBFF" stroke-width="1.5"/>
<path d="M510.638 41.7524V29.8524H518.237V31.4674H512.44V34.9354H517.727V36.5334H512.44V40.1374H518.237V41.7524H510.638Z" fill="#BAD61C"/>
<path d="M525 23.2524V42.7524H523.5V24.7524H505V42.7524H503.5V23.2524H525Z" fill="#9ECBFF"/>
<path d="M489.997 41.7524V29.8524H492.853C494.769 29.8524 496.191 30.3851 497.12 31.4504C498.05 32.5044 498.514 33.9551 498.514 35.8024C498.514 37.6498 498.05 39.1061 497.12 40.1714C496.191 41.2254 494.769 41.7524 492.853 41.7524H489.997ZM491.799 40.0864H492.785C494.168 40.0864 495.165 39.7011 495.777 38.9304C496.389 38.1484 496.695 37.1058 496.695 35.8024C496.695 34.4991 496.389 33.4621 495.777 32.6914C495.165 31.9094 494.168 31.5184 492.785 31.5184H491.799V40.0864Z" fill="#BAD61C"/>
<path d="M504.75 23.2524V42.7524H503.25V24.7524H484.75V42.7524H483.25V23.2524H504.75Z" fill="#9ECBFF"/>
<path d="M473.878 41.9564C472.915 41.9564 472.082 41.7071 471.379 41.2084C470.677 40.7098 470.138 40.0014 469.764 39.0834C469.39 38.1654 469.203 37.0718 469.203 35.8024C469.203 34.5331 469.39 33.4394 469.764 32.5214C470.138 31.6034 470.677 30.8951 471.379 30.3964C472.082 29.8978 472.915 29.6484 473.878 29.6484C474.853 29.6484 475.686 29.8978 476.377 30.3964C477.08 30.8951 477.618 31.6034 477.992 32.5214C478.366 33.4394 478.553 34.5331 478.553 35.8024C478.553 37.0718 478.366 38.1654 477.992 39.0834C477.618 40.0014 477.08 40.7098 476.377 41.2084C475.686 41.7071 474.853 41.9564 473.878 41.9564ZM473.878 40.2564C474.728 40.2564 475.414 39.8768 475.935 39.1174C476.457 38.3468 476.717 37.2418 476.717 35.8024C476.717 34.3631 476.457 33.2638 475.935 32.5044C475.414 31.7338 474.728 31.3484 473.878 31.3484C473.017 31.3484 472.326 31.7338 471.804 32.5044C471.294 33.2638 471.039 34.3631 471.039 35.8024C471.039 37.2418 471.294 38.3468 471.804 39.1174C472.326 39.8768 473.017 40.2564 473.878 40.2564Z" fill="#BAD61C"/>
<path d="M484.5 23.2524V42.7524H483V24.7524H464.5V42.7524H463V23.2524H484.5Z" fill="#9ECBFF"/>
<path d="M449.395 41.7524V29.8524H451.163L456.144 38.5734V29.8524H457.861V41.7524H456.093L451.112 33.0314V41.7524H449.395Z" fill="#BAD61C"/>
<path d="M464.25 23.2524V42.7524H462.75V24.7524H444.25V42.7524H442.75V23.2524H464.25Z" fill="#9ECBFF"/>
<path d="M510.655 18.2524V6.35244H512.457V16.6374H518.322V18.2524H510.655Z" fill="#9ECBFF"/>
<path d="M505 23.7524H523.5V5.75244H525V25.2524H503.5V5.75244H505V23.7524Z" fill="#9ECBFF"/>
<path d="M490.303 18.2524V6.35244H494.196C495.126 6.35244 495.891 6.51111 496.491 6.82844C497.103 7.14577 497.557 7.57644 497.851 8.12044C498.157 8.65311 498.31 9.25944 498.31 9.93944C498.31 10.7101 498.112 11.3958 497.715 11.9964C497.33 12.5858 496.735 13.0164 495.93 13.2884L498.429 18.2524H496.338L494.06 13.5434H492.105V18.2524H490.303ZM492.105 11.9114H494.094C494.91 11.9114 495.505 11.7301 495.879 11.3674C496.265 11.0048 496.457 10.5288 496.457 9.93944C496.457 9.33877 496.27 8.86277 495.896 8.51144C495.522 8.14877 494.916 7.96744 494.077 7.96744H492.105V11.9114Z" fill="#9ECBFF"/>
<path d="M484.75 23.7524H503.25V5.75244H504.75V25.2524H483.25V5.75244H484.75V23.7524Z" fill="#9ECBFF"/>
<path d="M472.977 18.2524V7.96744H469.781V6.35244H477.975V7.96744H474.779V18.2524H472.977Z" fill="#9ECBFF"/>
<path d="M464.5 23.7524H483V5.75244H484.5V25.2524H463V5.75244H464.5V23.7524Z" fill="#9ECBFF"/>
<path d="M453.662 18.4564C452.665 18.4564 451.815 18.2014 451.112 17.6914C450.421 17.1814 449.888 16.4674 449.514 15.5494C449.152 14.6201 448.97 13.5434 448.97 12.3194C448.97 11.0841 449.152 10.0074 449.514 9.08944C449.888 8.16011 450.427 7.44044 451.129 6.93044C451.832 6.40911 452.676 6.14844 453.662 6.14844C454.943 6.14844 455.963 6.49977 456.722 7.20244C457.482 7.89377 457.924 8.83444 458.048 10.0244H456.059C455.957 9.40111 455.702 8.88544 455.294 8.47744C454.898 8.05811 454.348 7.84844 453.645 7.84844C452.75 7.84844 452.053 8.24511 451.554 9.03844C451.056 9.83177 450.806 10.9254 450.806 12.3194C450.806 13.7021 451.056 14.7901 451.554 15.5834C452.053 16.3654 452.75 16.7564 453.645 16.7564C454.371 16.7564 454.926 16.5694 455.311 16.1954C455.697 15.8101 455.946 15.3058 456.059 14.6824H458.048C457.867 15.8498 457.408 16.7734 456.671 17.4534C455.935 18.1221 454.932 18.4564 453.662 18.4564Z" fill="#9ECBFF"/>
<path d="M444.25 23.7524H462.75V5.75244H464.25V25.2524H442.75V5.75244H444.25V23.7524Z" fill="#9ECBFF"/>
<path d="M452.5 65.5024V103.502L414.5 103.502" stroke="#9ECBFF" stroke-width="1.5" stroke-linecap="square" stroke-dasharray="4 4"/>
<rect x="450.5" y="57.5024" width="4" height="4" fill="#9ECBFF"/>
<rect x="406.5" y="101.502" width="4" height="4" fill="#9ECBFF"/>
<path d="M452.5 228.502V211.502L414.5 211.502" stroke="#9ECBFF" stroke-width="1.5" stroke-linecap="square" stroke-dasharray="4 4"/>
<rect width="4" height="4" transform="matrix(1 0 0 -1 450.5 236.502)" fill="#9ECBFF"/>
<rect width="4" height="4" transform="matrix(1 0 0 -1 406.5 213.502)" fill="#9ECBFF"/>
<path d="M472.5 109.502V127.502L447.5 127.502" stroke="#9ECBFF" stroke-width="1.5" stroke-linecap="square" stroke-dasharray="4 4"/>
<rect x="470.5" y="101.502" width="4" height="4" fill="#9ECBFF"/>
<rect x="439.5" y="125.502" width="4" height="4" fill="#9ECBFF"/>
<path d="M472.5 205.502V187.502L447.5 187.502" stroke="#9ECBFF" stroke-width="1.5" stroke-linecap="square" stroke-dasharray="4 4"/>
<rect width="4" height="4" transform="matrix(1 0 0 -1 470.5 213.502)" fill="#9ECBFF"/>
<rect width="4" height="4" transform="matrix(1 0 0 -1 439.5 189.502)" fill="#9ECBFF"/>
<path d="M492.5 109.502V127.502L517.5 127.502" stroke="#9ECBFF" stroke-width="1.5" stroke-linecap="square" stroke-dasharray="4 4"/>
<rect width="4" height="4" transform="matrix(-1 0 0 1 494.5 101.502)" fill="#9ECBFF"/>
<rect width="4" height="4" transform="matrix(-1 0 0 1 525.5 125.502)" fill="#9ECBFF"/>
<path d="M492.5 205.502V187.502L517.5 187.502" stroke="#9ECBFF" stroke-width="1.5" stroke-linecap="square" stroke-dasharray="4 4"/>
<rect x="494.5" y="213.502" width="4" height="4" transform="rotate(180 494.5 213.502)" fill="#9ECBFF"/>
<rect x="525.5" y="189.502" width="4" height="4" transform="rotate(180 525.5 189.502)" fill="#9ECBFF"/>
<path d="M512.5 65.5024V103.502L550.5 103.502" stroke="#9ECBFF" stroke-width="1.5" stroke-linecap="square" stroke-dasharray="4 4"/>
<rect width="4" height="4" transform="matrix(-1 0 0 1 514.5 57.5024)" fill="#9ECBFF"/>
<rect width="4" height="4" transform="matrix(-1 0 0 1 558.5 101.502)" fill="#9ECBFF"/>
<path d="M512.5 228.502V211.502L550.5 211.502" stroke="#9ECBFF" stroke-width="1.5" stroke-linecap="square" stroke-dasharray="4 4"/>
<rect x="514.5" y="236.502" width="4" height="4" transform="rotate(180 514.5 236.502)" fill="#9ECBFF"/>
<rect x="558.5" y="213.502" width="4" height="4" transform="rotate(180 558.5 213.502)" fill="#9ECBFF"/>
<path d="M472.5 65.5024L472.5 97.5024" stroke="#9ECBFF" stroke-width="1.5" stroke-linecap="square" stroke-dasharray="4 4"/>
<rect x="470.5" y="57.5024" width="4" height="4" fill="#9ECBFF"/>
<rect x="470.5" y="101.502" width="4" height="4" fill="#9ECBFF"/>
<path d="M472.5 228.502L472.5 217.502" stroke="#9ECBFF" stroke-width="1.5" stroke-linecap="square" stroke-dasharray="4 4"/>
<rect width="4" height="4" transform="matrix(1 0 0 -1 470.5 236.502)" fill="#9ECBFF"/>
<rect width="4" height="4" transform="matrix(1 0 0 -1 470.5 213.502)" fill="#9ECBFF"/>
<path d="M492.5 65.5024L492.5 97.5024" stroke="#9ECBFF" stroke-width="1.5" stroke-linecap="square" stroke-dasharray="4 4"/>
<rect x="490.5" y="57.5024" width="4" height="4" fill="#9ECBFF"/>
<rect x="490.5" y="101.502" width="4" height="4" fill="#9ECBFF"/>
<path d="M492.5 228.502L492.5 217.502" stroke="#9ECBFF" stroke-width="1.5" stroke-linecap="square" stroke-dasharray="4 4"/>
<rect width="4" height="4" transform="matrix(1 0 0 -1 490.5 236.502)" fill="#9ECBFF"/>
<rect width="4" height="4" transform="matrix(1 0 0 -1 490.5 213.502)" fill="#9ECBFF"/>
<path d="M461 140.002V175.002H420V140.002H461Z" stroke="url(#pattern4_525_4293)" stroke-width="5"/>
<rect x="424.5" y="145.502" width="32" height="24" rx="2" stroke="#9ECBFF" stroke-width="1.5"/>
<path d="M432.5 149.502L428.5 149.502L428.5 165.502L432.5 165.502" stroke="#9ECBFF" stroke-width="1.5"/>
<path d="M433.368 162.002V152.902H436.449C437.142 152.902 437.714 153.024 438.165 153.266C438.616 153.5 438.949 153.825 439.166 154.241C439.383 154.657 439.491 155.134 439.491 155.671C439.491 156.209 439.383 156.685 439.166 157.101C438.949 157.517 438.616 157.847 438.165 158.089C437.714 158.323 437.142 158.44 436.449 158.44H434.746V162.002H433.368ZM434.746 157.205H436.384C436.973 157.205 437.402 157.067 437.671 156.789C437.948 156.512 438.087 156.139 438.087 155.671C438.087 155.212 437.948 154.844 437.671 154.566C437.402 154.28 436.973 154.137 436.384 154.137H434.746V157.205ZM441.67 162.002V160.91C442.563 160.2 443.343 159.545 444.01 158.947C444.686 158.349 445.215 157.773 445.596 157.218C445.977 156.664 446.168 156.1 446.168 155.528C446.168 155.052 446.034 154.679 445.765 154.41C445.496 154.133 445.132 153.994 444.673 153.994C444.144 153.994 443.737 154.163 443.451 154.501C443.165 154.831 443.022 155.225 443.022 155.684H441.683C441.692 155.043 441.826 154.506 442.086 154.072C442.346 153.639 442.697 153.31 443.139 153.084C443.59 152.859 444.101 152.746 444.673 152.746C445.6 152.746 446.315 152.998 446.818 153.5C447.321 153.994 447.572 154.657 447.572 155.489C447.572 156.018 447.455 156.529 447.221 157.023C446.996 157.509 446.697 157.972 446.324 158.414C445.951 158.856 445.535 159.277 445.076 159.675C444.625 160.074 444.17 160.455 443.711 160.819H447.819V162.002H441.67Z" fill="#9ECBFF"/>
<path d="M448.5 149.502L452.5 149.502L452.5 165.502L448.5 165.502" stroke="#9ECBFF" stroke-width="1.5"/>
<path d="M377 140.002V175.002H336V140.002H377Z" stroke="url(#pattern5_525_4293)" stroke-width="5"/>
<rect x="340.5" y="145.502" width="32" height="24" rx="2" stroke="#9ECBFF" stroke-width="1.5"/>
<path d="M348.5 149.502L344.5 149.502L344.5 165.502L348.5 165.502" stroke="#9ECBFF" stroke-width="1.5"/>
<path d="M349.368 162.002V152.902H352.449C353.142 152.902 353.714 153.024 354.165 153.266C354.616 153.5 354.949 153.825 355.166 154.241C355.383 154.657 355.491 155.134 355.491 155.671C355.491 156.209 355.383 156.685 355.166 157.101C354.949 157.517 354.616 157.847 354.165 158.089C353.714 158.323 353.142 158.44 352.449 158.44H350.746V162.002H349.368ZM350.746 157.205H352.384C352.973 157.205 353.402 157.067 353.671 156.789C353.948 156.512 354.087 156.139 354.087 155.671C354.087 155.212 353.948 154.844 353.671 154.566C353.402 154.28 352.973 154.137 352.384 154.137H350.746V157.205ZM357.618 162.002V160.767H359.867V154.527L357.722 154.917V153.799L360.4 152.902H361.245V160.767H363.663V162.002H357.618Z" fill="#9ECBFF"/>
<path d="M364.5 149.502L368.5 149.502L368.5 165.502L364.5 165.502" stroke="#9ECBFF" stroke-width="1.5"/>
<path d="M293 140.002V175.002H252V140.002H293Z" stroke="url(#pattern6_525_4293)" stroke-width="5"/>
<rect x="256.5" y="145.502" width="32" height="24" rx="2" stroke="#9ECBFF" stroke-width="1.5"/>
<path d="M264.5 149.502L260.5 149.502L260.5 165.502L264.5 165.502" stroke="#9ECBFF" stroke-width="1.5"/>
<path d="M265.368 162.002V152.902H268.449C269.142 152.902 269.714 153.024 270.165 153.266C270.616 153.5 270.949 153.825 271.166 154.241C271.383 154.657 271.491 155.134 271.491 155.671C271.491 156.209 271.383 156.685 271.166 157.101C270.949 157.517 270.616 157.847 270.165 158.089C269.714 158.323 269.142 158.44 268.449 158.44H266.746V162.002H265.368ZM266.746 157.205H268.384C268.973 157.205 269.402 157.067 269.671 156.789C269.948 156.512 270.087 156.139 270.087 155.671C270.087 155.212 269.948 154.844 269.671 154.566C269.402 154.28 268.973 154.137 268.384 154.137H266.746V157.205ZM276.66 162.158C275.958 162.158 275.343 161.968 274.814 161.586C274.294 161.205 273.891 160.663 273.605 159.961C273.319 159.251 273.176 158.414 273.176 157.452C273.176 156.482 273.319 155.645 273.605 154.943C273.891 154.241 274.294 153.7 274.814 153.318C275.343 152.937 275.958 152.746 276.66 152.746C277.371 152.746 277.986 152.937 278.506 153.318C279.026 153.7 279.429 154.241 279.715 154.943C280.001 155.645 280.144 156.482 280.144 157.452C280.144 158.414 280.001 159.251 279.715 159.961C279.429 160.663 279.026 161.205 278.506 161.586C277.986 161.968 277.371 162.158 276.66 162.158ZM274.58 157.452C274.58 157.938 274.623 158.38 274.71 158.778C274.797 159.177 274.918 159.524 275.074 159.818L277.349 154.189C277.132 154.085 276.903 154.033 276.66 154.033C276.053 154.033 275.555 154.341 275.165 154.956C274.775 155.563 274.58 156.395 274.58 157.452ZM276.66 160.884C277.067 160.884 277.427 160.746 277.739 160.468C278.051 160.191 278.294 159.797 278.467 159.285C278.649 158.765 278.74 158.154 278.74 157.452C278.74 156.967 278.697 156.525 278.61 156.126C278.523 155.728 278.402 155.385 278.246 155.099L275.971 160.728C276.188 160.832 276.417 160.884 276.66 160.884Z" fill="#9ECBFF"/>
<path d="M280.5 149.502L284.5 149.502L284.5 165.502L280.5 165.502" stroke="#9ECBFF" stroke-width="1.5"/>
<path d="M713 140.002V175.002H672V140.002H713Z" stroke="url(#pattern7_525_4293)" stroke-width="5"/>
<rect x="676.5" y="145.502" width="32" height="24" rx="2" stroke="#9ECBFF" stroke-width="1.5"/>
<path d="M684.5 149.502L680.5 149.502L680.5 165.502L684.5 165.502" stroke="#9ECBFF" stroke-width="1.5"/>
<path d="M685.368 162.002V152.902H688.449C689.142 152.902 689.714 153.024 690.165 153.266C690.616 153.5 690.949 153.825 691.166 154.241C691.383 154.657 691.491 155.134 691.491 155.671C691.491 156.209 691.383 156.685 691.166 157.101C690.949 157.517 690.616 157.847 690.165 158.089C689.714 158.323 689.142 158.44 688.449 158.44H686.746V162.002H685.368ZM686.746 157.205H688.384C688.973 157.205 689.402 157.067 689.671 156.789C689.948 156.512 690.087 156.139 690.087 155.671C690.087 155.212 689.948 154.844 689.671 154.566C689.402 154.28 688.973 154.137 688.384 154.137H686.746V157.205ZM696.647 162.158C696.014 162.158 695.464 162.041 694.996 161.807C694.528 161.573 694.16 161.253 693.891 160.845C693.631 160.438 693.479 159.979 693.436 159.467H694.84C694.927 159.892 695.126 160.234 695.438 160.494C695.759 160.754 696.166 160.884 696.66 160.884C697.241 160.884 697.7 160.702 698.038 160.338C698.376 159.966 698.545 159.489 698.545 158.908C698.545 158.293 698.372 157.816 698.025 157.478C697.678 157.14 697.236 156.971 696.699 156.971C696.266 156.971 695.897 157.071 695.594 157.27C695.291 157.47 695.052 157.721 694.879 158.024H693.553L694.333 152.902H699.286V154.176H695.399L694.957 156.503H695.048C695.23 156.295 695.473 156.122 695.776 155.983C696.088 155.845 696.456 155.775 696.881 155.775C697.505 155.775 698.038 155.91 698.48 156.178C698.931 156.447 699.277 156.82 699.52 157.296C699.763 157.764 699.884 158.297 699.884 158.895C699.884 159.502 699.75 160.052 699.481 160.546C699.221 161.04 698.848 161.435 698.363 161.729C697.878 162.015 697.306 162.158 696.647 162.158Z" fill="#9ECBFF"/>
<path d="M700.5 149.502L704.5 149.502L704.5 165.502L700.5 165.502" stroke="#9ECBFF" stroke-width="1.5"/>
<path d="M545 140.002V175.002H504V140.002H545Z" stroke="url(#pattern8_525_4293)" stroke-width="5"/>
<rect x="508.5" y="145.502" width="32" height="24" rx="2" stroke="#9ECBFF" stroke-width="1.5"/>
<path d="M516.5 149.502L512.5 149.502L512.5 165.502L516.5 165.502" stroke="#9ECBFF" stroke-width="1.5"/>
<path d="M517.368 162.002V152.902H520.449C521.142 152.902 521.714 153.024 522.165 153.266C522.616 153.5 522.949 153.825 523.166 154.241C523.383 154.657 523.491 155.134 523.491 155.671C523.491 156.209 523.383 156.685 523.166 157.101C522.949 157.517 522.616 157.847 522.165 158.089C521.714 158.323 521.142 158.44 520.449 158.44H518.746V162.002H517.368ZM518.746 157.205H520.384C520.973 157.205 521.402 157.067 521.671 156.789C521.948 156.512 522.087 156.139 522.087 155.671C522.087 155.212 521.948 154.844 521.671 154.566C521.402 154.28 520.973 154.137 520.384 154.137H518.746V157.205ZM528.725 162.158C528.127 162.158 527.585 162.046 527.1 161.82C526.615 161.595 526.229 161.266 525.943 160.832C525.657 160.39 525.501 159.857 525.475 159.233H526.853C526.879 159.71 527.052 160.104 527.373 160.416C527.702 160.728 528.153 160.884 528.725 160.884C529.288 160.884 529.73 160.746 530.051 160.468C530.372 160.191 530.532 159.81 530.532 159.324C530.532 158.787 530.337 158.393 529.947 158.141C529.557 157.89 529.08 157.764 528.517 157.764H527.711V156.542H528.4C528.911 156.542 529.332 156.438 529.661 156.23C529.99 156.022 530.155 155.697 530.155 155.255C530.155 154.874 530.029 154.575 529.778 154.358C529.527 154.133 529.171 154.02 528.712 154.02C528.244 154.02 527.871 154.146 527.594 154.397C527.317 154.649 527.161 154.969 527.126 155.359H525.761C525.787 154.839 525.926 154.384 526.177 153.994C526.428 153.604 526.771 153.301 527.204 153.084C527.637 152.859 528.14 152.746 528.712 152.746C529.336 152.746 529.856 152.855 530.272 153.071C530.688 153.279 531 153.561 531.208 153.916C531.416 154.272 531.52 154.67 531.52 155.112C531.52 155.563 531.386 155.953 531.117 156.282C530.857 156.603 530.541 156.837 530.168 156.984V157.062C530.671 157.201 531.082 157.461 531.403 157.842C531.732 158.215 531.897 158.718 531.897 159.35C531.897 159.862 531.771 160.334 531.52 160.767C531.277 161.192 530.918 161.53 530.441 161.781C529.973 162.033 529.401 162.158 528.725 162.158Z" fill="#9ECBFF"/>
<path d="M532.5 149.502L536.5 149.502L536.5 165.502L532.5 165.502" stroke="#9ECBFF" stroke-width="1.5"/>
<path d="M629 140.002V175.002H588V140.002H629Z" stroke="url(#pattern9_525_4293)" stroke-width="5"/>
<rect x="592.5" y="145.502" width="32" height="24" rx="2" stroke="#9ECBFF" stroke-width="1.5"/>
<path d="M600.5 149.502L596.5 149.502L596.5 165.502L600.5 165.502" stroke="#9ECBFF" stroke-width="1.5"/>
<path d="M601.368 162.002V152.902H604.449C605.142 152.902 605.714 153.024 606.165 153.266C606.616 153.5 606.949 153.825 607.166 154.241C607.383 154.657 607.491 155.134 607.491 155.671C607.491 156.209 607.383 156.685 607.166 157.101C606.949 157.517 606.616 157.847 606.165 158.089C605.714 158.323 605.142 158.44 604.449 158.44H602.746V162.002H601.368ZM602.746 157.205H604.384C604.973 157.205 605.402 157.067 605.671 156.789C605.948 156.512 606.087 156.139 606.087 155.671C606.087 155.212 605.948 154.844 605.671 154.566C605.402 154.28 604.973 154.137 604.384 154.137H602.746V157.205ZM613.661 162.002V160.039H609.345V158.96L613.414 152.902H615.039V158.791H616.222V160.039H615.039V162.002H613.661ZM610.879 158.791H613.739V154.449L610.879 158.791Z" fill="#9ECBFF"/>
<path d="M616.5 149.502L620.5 149.502L620.5 165.502L616.5 165.502" stroke="#9ECBFF" stroke-width="1.5"/>
<path d="M3.5 317.502L3.5 248.502" stroke="url(#pattern10_525_4293)" stroke-width="5"/>
<path d="M143.5 321.502L7.5 321.502" stroke="url(#pattern11_525_4293)" stroke-width="5"/>
<path d="M147.5 317.502L147.5 248.502" stroke="url(#pattern12_525_4293)" stroke-width="5"/>
<path d="M143.5 244.502L7.5 244.502" stroke="url(#pattern13_525_4293)" stroke-width="5"/>
<path d="M11.5 306.001H121.5" stroke="#BAD61C" stroke-width="1.5"/>
<path d="M11.5 310.001H139.5" stroke="#BAD61C" stroke-width="1.5"/>
<path d="M11.5 314.001H139.5" stroke="#BAD61C" stroke-width="1.5"/>
<line y1="-0.75" x2="7.5" y2="-0.75" transform="matrix(5.99008e-08 1 1 -3.18975e-08 128.5 30.0024)" stroke="#9ECBFF" stroke-width="1.5"/>
<rect x="125" y="26.7524" width="5.5" height="5.5" transform="rotate(-90 125 26.7524)" stroke="#9ECBFF" stroke-width="1.5"/>
<line y1="-0.75" x2="7.5" y2="-0.75" transform="matrix(5.99008e-08 1 1 -3.18975e-08 128.5 10.5024)" stroke="#9ECBFF" stroke-width="1.5"/>
<line y1="-0.75" x2="3.5" y2="-0.75" transform="matrix(4.37114e-08 1 1 -4.37114e-08 12.5 30.0024)" stroke="#9ECBFF" stroke-width="1.5"/>
<rect x="9" y="26.7524" width="5.5" height="5.5" transform="rotate(-90 9 26.7524)" stroke="#9ECBFF" stroke-width="1.5"/>
<line y1="-0.75" x2="3.5" y2="-0.75" transform="matrix(4.37114e-08 1 1 -4.37114e-08 12.5 14.5024)" stroke="#9ECBFF" stroke-width="1.5"/>
<line y1="-0.75" x2="3.5" y2="-0.75" transform="matrix(5.99008e-08 1 1 -3.18975e-08 141.5 30.0024)" stroke="#9ECBFF" stroke-width="1.5"/>
<rect x="138" y="26.7524" width="5.5" height="5.5" transform="rotate(-90 138 26.7524)" stroke="#9ECBFF" stroke-width="1.5"/>
<line y1="-0.75" x2="3.5" y2="-0.75" transform="matrix(5.99008e-08 1 1 -3.18975e-08 141.5 14.5024)" stroke="#9ECBFF" stroke-width="1.5"/>
<line y1="-0.75" x2="7.5" y2="-0.75" transform="matrix(4.37114e-08 1 1 -4.37114e-08 25.5 30.0024)" stroke="#9ECBFF" stroke-width="1.5"/>
<rect x="22" y="26.7524" width="5.5" height="5.5" transform="rotate(-90 22 26.7524)" stroke="#9ECBFF" stroke-width="1.5"/>
<line y1="-0.75" x2="7.5" y2="-0.75" transform="matrix(4.37114e-08 1 1 -4.37114e-08 25.5 10.5024)" stroke="#9ECBFF" stroke-width="1.5"/>
<path d="M102.638 41.7524V29.8524H110.237V31.4674H104.44V34.9354H109.727V36.5334H104.44V40.1374H110.237V41.7524H102.638Z" fill="#BAD61C"/>
<path d="M117 23.2524V42.7524H115.5V24.7524H97V42.7524H95.5V23.2524H117Z" fill="#9ECBFF"/>
<path d="M81.9973 41.7524V29.8524H84.8533C86.7687 29.8524 88.191 30.3851 89.1203 31.4504C90.0497 32.5044 90.5143 33.9551 90.5143 35.8024C90.5143 37.6498 90.0497 39.1061 89.1203 40.1714C88.191 41.2254 86.7687 41.7524 84.8533 41.7524H81.9973ZM83.7993 40.0864H84.7853C86.168 40.0864 87.1653 39.7011 87.7773 38.9304C88.3893 38.1484 88.6953 37.1058 88.6953 35.8024C88.6953 34.4991 88.3893 33.4621 87.7773 32.6914C87.1653 31.9094 86.168 31.5184 84.7853 31.5184H83.7993V40.0864Z" fill="#BAD61C"/>
<path d="M96.75 23.2524V42.7524H95.25V24.7524H76.75V42.7524H75.25V23.2524H96.75Z" fill="#9ECBFF"/>
<path d="M65.8783 41.9564C64.915 41.9564 64.082 41.7071 63.3793 41.2084C62.6767 40.7098 62.1383 40.0014 61.7643 39.0834C61.3903 38.1654 61.2033 37.0718 61.2033 35.8024C61.2033 34.5331 61.3903 33.4394 61.7643 32.5214C62.1383 31.6034 62.6767 30.8951 63.3793 30.3964C64.082 29.8978 64.915 29.6484 65.8783 29.6484C66.853 29.6484 67.686 29.8978 68.3773 30.3964C69.08 30.8951 69.6183 31.6034 69.9923 32.5214C70.3663 33.4394 70.5533 34.5331 70.5533 35.8024C70.5533 37.0718 70.3663 38.1654 69.9923 39.0834C69.6183 40.0014 69.08 40.7098 68.3773 41.2084C67.686 41.7071 66.853 41.9564 65.8783 41.9564ZM65.8783 40.2564C66.7283 40.2564 67.414 39.8768 67.9353 39.1174C68.4567 38.3468 68.7173 37.2418 68.7173 35.8024C68.7173 34.3631 68.4567 33.2638 67.9353 32.5044C67.414 31.7338 66.7283 31.3484 65.8783 31.3484C65.017 31.3484 64.3257 31.7338 63.8043 32.5044C63.2943 33.2638 63.0393 34.3631 63.0393 35.8024C63.0393 37.2418 63.2943 38.3468 63.8043 39.1174C64.3257 39.8768 65.017 40.2564 65.8783 40.2564Z" fill="#BAD61C"/>
<path d="M76.5 23.2524V42.7524H75V24.7524H56.5V42.7524H55V23.2524H76.5Z" fill="#9ECBFF"/>
<path d="M41.3953 41.7524V29.8524H43.1633L48.1443 38.5734V29.8524H49.8613V41.7524H48.0933L43.1123 33.0314V41.7524H41.3953Z" fill="#BAD61C"/>
<path d="M56.25 23.2524V42.7524H54.75V24.7524H36.25V42.7524H34.75V23.2524H56.25Z" fill="#9ECBFF"/>
<path d="M102.655 18.2524V6.35244H104.457V16.6374H110.322V18.2524H102.655Z" fill="#9ECBFF"/>
<path d="M97 23.7524H115.5V5.75244H117V25.2524H95.5V5.75244H97V23.7524Z" fill="#9ECBFF"/>
<path d="M82.3033 18.2524V6.35244H86.1963C87.1257 6.35244 87.8907 6.51111 88.4913 6.82844C89.1033 7.14577 89.5567 7.57644 89.8513 8.12044C90.1573 8.65311 90.3103 9.25944 90.3103 9.93944C90.3103 10.7101 90.112 11.3958 89.7153 11.9964C89.33 12.5858 88.735 13.0164 87.9303 13.2884L90.4293 18.2524H88.3383L86.0603 13.5434H84.1053V18.2524H82.3033ZM84.1053 11.9114H86.0943C86.9103 11.9114 87.5053 11.7301 87.8793 11.3674C88.2647 11.0048 88.4573 10.5288 88.4573 9.93944C88.4573 9.33877 88.2703 8.86277 87.8963 8.51144C87.5223 8.14877 86.916 7.96744 86.0773 7.96744H84.1053V11.9114Z" fill="#9ECBFF"/>
<path d="M76.75 23.7524H95.25V5.75244H96.75V25.2524H75.25V5.75244H76.75V23.7524Z" fill="#9ECBFF"/>
<path d="M64.9773 18.2524V7.96744H61.7813V6.35244H69.9753V7.96744H66.7793V18.2524H64.9773Z" fill="#9ECBFF"/>
<path d="M56.5 23.7524H75V5.75244H76.5V25.2524H55V5.75244H56.5V23.7524Z" fill="#9ECBFF"/>
<path d="M45.6623 18.4564C44.665 18.4564 43.815 18.2014 43.1123 17.6914C42.421 17.1814 41.8883 16.4674 41.5143 15.5494C41.1517 14.6201 40.9703 13.5434 40.9703 12.3194C40.9703 11.0841 41.1517 10.0074 41.5143 9.08944C41.8883 8.16011 42.4267 7.44044 43.1293 6.93044C43.832 6.40911 44.6763 6.14844 45.6623 6.14844C46.943 6.14844 47.963 6.49977 48.7223 7.20244C49.4817 7.89377 49.9237 8.83444 50.0483 10.0244H48.0593C47.9573 9.40111 47.7023 8.88544 47.2943 8.47744C46.8977 8.05811 46.348 7.84844 45.6453 7.84844C44.75 7.84844 44.053 8.24511 43.5543 9.03844C43.0557 9.83177 42.8063 10.9254 42.8063 12.3194C42.8063 13.7021 43.0557 14.7901 43.5543 15.5834C44.053 16.3654 44.75 16.7564 45.6453 16.7564C46.3707 16.7564 46.926 16.5694 47.3113 16.1954C47.6967 15.8101 47.946 15.3058 48.0593 14.6824H50.0483C49.867 15.8498 49.408 16.7734 48.6713 17.4534C47.9347 18.1221 46.9317 18.4564 45.6623 18.4564Z" fill="#9ECBFF"/>
<path d="M36.25 23.7524H54.75V5.75244H56.25V25.2524H34.75V5.75244H36.25V23.7524Z" fill="#9ECBFF"/>
<path d="M55.5 65.5024L55.5 97.5024" stroke="#9ECBFF" stroke-width="1.5" stroke-linecap="square" stroke-dasharray="4 4"/>
<rect x="53.5" y="57.5024" width="4" height="4" fill="#9ECBFF"/>
<rect x="53.5" y="101.502" width="4" height="4" fill="#9ECBFF"/>
<path d="M94.5 65.5024L94.5 97.5024" stroke="#9ECBFF" stroke-width="1.5" stroke-linecap="square" stroke-dasharray="4 4"/>
<rect x="92.5" y="57.5024" width="4" height="4" fill="#9ECBFF"/>
<rect x="92.5" y="101.502" width="4" height="4" fill="#9ECBFF"/>
<path d="M68.5 65.5024L68.5 97.5024" stroke="#9ECBFF" stroke-width="1.5" stroke-linecap="square" stroke-dasharray="4 4"/>
<rect x="66.5" y="57.5024" width="4" height="4" fill="#9ECBFF"/>
<rect x="66.5" y="101.502" width="4" height="4" fill="#9ECBFF"/>
<path d="M81.5 65.5024L81.5 97.5024" stroke="#9ECBFF" stroke-width="1.5" stroke-linecap="square" stroke-dasharray="4 4"/>
<rect x="79.5" y="57.5024" width="4" height="4" fill="#9ECBFF"/>
<rect x="79.5" y="101.502" width="4" height="4" fill="#9ECBFF"/>
<path d="M75.5 231.501L75.5 230.501" stroke="#9ECBFF" stroke-width="1.5" stroke-linecap="square" stroke-dasharray="4 4"/>
<rect x="73.5" y="223.501" width="4" height="4" fill="#9ECBFF"/>
<rect x="73.5" y="234.501" width="4" height="4" fill="#9ECBFF"/>
<path d="M52.5 111.501H98.5V126.001H52.5V111.501Z" fill="url(#pattern14_525_4293)"/>
<path d="M96 128.501V163.501H55V128.501H96Z" stroke="url(#pattern15_525_4293)" stroke-width="5"/>
<rect x="59.5" y="134.001" width="32" height="24" rx="2" stroke="#9ECBFF" stroke-width="1.5"/>
<path d="M67.5 138.001L63.5 138.001L63.5 154.001L67.5 154.001" stroke="#9ECBFF" stroke-width="1.5"/>
<path d="M68.3681 150.501V141.401H71.4491C72.1424 141.401 72.7144 141.522 73.1651 141.765C73.6157 141.999 73.9494 142.324 74.1661 142.74C74.3827 143.156 74.4911 143.633 74.4911 144.17C74.4911 144.707 74.3827 145.184 74.1661 145.6C73.9494 146.016 73.6157 146.345 73.1651 146.588C72.7144 146.822 72.1424 146.939 71.4491 146.939H69.7461V150.501H68.3681ZM69.7461 145.704H71.3841C71.9734 145.704 72.4024 145.565 72.6711 145.288C72.9484 145.011 73.0871 144.638 73.0871 144.17C73.0871 143.711 72.9484 143.342 72.6711 143.065C72.4024 142.779 71.9734 142.636 71.3841 142.636H69.7461V145.704ZM79.66 150.657C78.958 150.657 78.3427 150.466 77.814 150.085C77.294 149.704 76.891 149.162 76.605 148.46C76.319 147.749 76.176 146.913 76.176 145.951C76.176 144.98 76.319 144.144 76.605 143.442C76.891 142.74 77.294 142.198 77.814 141.817C78.3427 141.436 78.958 141.245 79.66 141.245C80.3707 141.245 80.986 141.436 81.506 141.817C82.026 142.198 82.429 142.74 82.715 143.442C83.001 144.144 83.144 144.98 83.144 145.951C83.144 146.913 83.001 147.749 82.715 148.46C82.429 149.162 82.026 149.704 81.506 150.085C80.986 150.466 80.3707 150.657 79.66 150.657ZM77.58 145.951C77.58 146.436 77.6233 146.878 77.71 147.277C77.7967 147.676 77.918 148.022 78.074 148.317L80.349 142.688C80.1323 142.584 79.9027 142.532 79.66 142.532C79.0533 142.532 78.555 142.84 78.165 143.455C77.775 144.062 77.58 144.894 77.58 145.951ZM79.66 149.383C80.0673 149.383 80.427 149.244 80.739 148.967C81.051 148.69 81.2937 148.295 81.467 147.784C81.649 147.264 81.74 146.653 81.74 145.951C81.74 145.466 81.6967 145.024 81.61 144.625C81.5233 144.226 81.402 143.884 81.246 143.598L78.971 149.227C79.1877 149.331 79.4173 149.383 79.66 149.383Z" fill="#9ECBFF"/>
<path d="M83.5 138.001L87.5 138.001L87.5 154.001L83.5 154.001" stroke="#9ECBFF" stroke-width="1.5"/>
<mask id="path-249-inside-1_525_4293" fill="white">
<path d="M52.5 166.001H98.5V206.001H52.5V166.001Z"/>
</mask>
<path d="M52.5 166.001V165.001H47.5V166.001H52.5ZM98.5 166.001H103.5V165.001H98.5V166.001ZM98.5 206.001V207.001H103.5V206.001H98.5ZM52.5 206.001H47.5V207.001H52.5V206.001ZM52.5 166.001V167.001H98.5V166.001V165.001H52.5V166.001ZM98.5 166.001H93.5V206.001H98.5H103.5V166.001H98.5ZM98.5 206.001V205.001H52.5V206.001V207.001H98.5V206.001ZM52.5 206.001H57.5V166.001H52.5H47.5V206.001H52.5Z" fill="url(#pattern16_525_4293)" mask="url(#path-249-inside-1_525_4293)"/>
<rect x="59.5" y="170.001" width="32" height="32" rx="2" stroke="#9ECBFF" stroke-width="1.5"/>
<path d="M69.5 186.001L73.1 186.001" stroke="#BAD61C" stroke-width="1.5"/>
<path d="M71.2567 181.759L73.8023 184.304" stroke="#BAD61C" stroke-width="1.5"/>
<path d="M75.5 180.001L75.5 183.601" stroke="#BAD61C" stroke-width="1.5"/>
<path d="M79.7422 181.758L77.1966 184.303" stroke="#BAD61C" stroke-width="1.5"/>
<path d="M81.5 186.001L77.9 186.001" stroke="#BAD61C" stroke-width="1.5"/>
<path d="M79.7433 190.243L77.1977 187.698" stroke="#BAD61C" stroke-width="1.5"/>
<path d="M75.5 192.001L75.5 188.401" stroke="#BAD61C" stroke-width="1.5"/>
<path d="M71.2578 190.244L73.8034 187.699" stroke="#BAD61C" stroke-width="1.5"/>
<rect x="85.5" y="176.001" width="20" height="20" rx="10" transform="rotate(90 85.5 176.001)" stroke="#9ECBFF" stroke-width="1.5"/>
<path d="M52.5 206.001H98.5V220.501H52.5V206.001Z" fill="url(#pattern17_525_4293)"/>
<defs>
<pattern id="pattern0_525_4293" patternUnits="userSpaceOnUse" patternTransform="matrix(-1.0136e-07 -4 8 -6.03217e-07 407.5 317.502)" preserveAspectRatio="none" viewBox="0 0 4 8" width="1" height="1">
<g id="pattern0_525_4293_inner">
<line x1="0.75" y1="-0.75" x2="7.25" y2="-0.75" transform="matrix(4.37114e-08 1 1 -4.37114e-08 2.75 0)" stroke="#9ECBFF" stroke-width="1.5" stroke-linecap="square"/>
</g>
</pattern><pattern id="pattern1_525_4293" patternUnits="userSpaceOnUse" patternTransform="matrix(-4 1.0285e-07 -2.3779e-06 -8 551.5 325.502)" preserveAspectRatio="none" viewBox="0 0 4 8" width="1" height="1">
<g id="pattern1_525_4293_inner">
<line x1="0.75" y1="-0.75" x2="7.25" y2="-0.75" transform="matrix(4.37114e-08 1 1 -4.37114e-08 2.75 0)" stroke="#9ECBFF" stroke-width="1.5" stroke-linecap="square"/>
</g>
</pattern><pattern id="pattern2_525_4293" patternUnits="userSpaceOnUse" patternTransform="matrix(-1.0136e-07 -4 8 -6.03217e-07 551.5 317.502)" preserveAspectRatio="none" viewBox="0 0 4 8" width="1" height="1">
<g id="pattern2_525_4293_inner">
<line x1="0.75" y1="-0.75" x2="7.25" y2="-0.75" transform="matrix(4.37114e-08 1 1 -4.37114e-08 2.75 0)" stroke="#9ECBFF" stroke-width="1.5" stroke-linecap="square"/>
</g>
</pattern><pattern id="pattern3_525_4293" patternUnits="userSpaceOnUse" patternTransform="matrix(-4 1.0285e-07 -2.3779e-06 -8 551.5 248.502)" preserveAspectRatio="none" viewBox="0 0 4 8" width="1" height="1">
<g id="pattern3_525_4293_inner">
<line x1="0.75" y1="-0.75" x2="7.25" y2="-0.75" transform="matrix(4.37114e-08 1 1 -4.37114e-08 2.75 0)" stroke="#9ECBFF" stroke-width="1.5" stroke-linecap="square"/>
</g>
</pattern><pattern id="pattern4_525_4293" patternUnits="userSpaceOnUse" patternTransform="matrix(4 0 0 8 438.5 153.502)" preserveAspectRatio="none" viewBox="0 0 4 8" width="1" height="1">
<g id="pattern4_525_4293_inner">
<line x1="0.75" y1="-0.75" x2="7.25" y2="-0.75" transform="matrix(4.37114e-08 1 1 -4.37114e-08 2.75 0)" stroke="#9ECBFF" stroke-width="1.5" stroke-linecap="square"/>
</g>
</pattern><pattern id="pattern5_525_4293" patternUnits="userSpaceOnUse" patternTransform="matrix(4 0 0 8 354.5 153.502)" preserveAspectRatio="none" viewBox="0 0 4 8" width="1" height="1">
<g id="pattern5_525_4293_inner">
<line x1="0.75" y1="-0.75" x2="7.25" y2="-0.75" transform="matrix(4.37114e-08 1 1 -4.37114e-08 2.75 0)" stroke="#9ECBFF" stroke-width="1.5" stroke-linecap="square"/>
</g>
</pattern><pattern id="pattern6_525_4293" patternUnits="userSpaceOnUse" patternTransform="matrix(4 0 0 8 270.5 153.502)" preserveAspectRatio="none" viewBox="0 0 4 8" width="1" height="1">
<g id="pattern6_525_4293_inner">
<line x1="0.75" y1="-0.75" x2="7.25" y2="-0.75" transform="matrix(4.37114e-08 1 1 -4.37114e-08 2.75 0)" stroke="#9ECBFF" stroke-width="1.5" stroke-linecap="square"/>
</g>
</pattern><pattern id="pattern7_525_4293" patternUnits="userSpaceOnUse" patternTransform="matrix(4 0 0 8 690.5 153.502)" preserveAspectRatio="none" viewBox="0 0 4 8" width="1" height="1">
<g id="pattern7_525_4293_inner">
<line x1="0.75" y1="-0.75" x2="7.25" y2="-0.75" transform="matrix(4.37114e-08 1 1 -4.37114e-08 2.75 0)" stroke="#9ECBFF" stroke-width="1.5" stroke-linecap="square"/>
</g>
</pattern><pattern id="pattern8_525_4293" patternUnits="userSpaceOnUse" patternTransform="matrix(4 0 0 8 522.5 153.502)" preserveAspectRatio="none" viewBox="0 0 4 8" width="1" height="1">
<g id="pattern8_525_4293_inner">
<line x1="0.75" y1="-0.75" x2="7.25" y2="-0.75" transform="matrix(4.37114e-08 1 1 -4.37114e-08 2.75 0)" stroke="#9ECBFF" stroke-width="1.5" stroke-linecap="square"/>
</g>
</pattern><pattern id="pattern9_525_4293" patternUnits="userSpaceOnUse" patternTransform="matrix(4 0 0 8 606.5 153.502)" preserveAspectRatio="none" viewBox="0 0 4 8" width="1" height="1">
<g id="pattern9_525_4293_inner">
<line x1="0.75" y1="-0.75" x2="7.25" y2="-0.75" transform="matrix(4.37114e-08 1 1 -4.37114e-08 2.75 0)" stroke="#9ECBFF" stroke-width="1.5" stroke-linecap="square"/>
</g>
</pattern><pattern id="pattern10_525_4293" patternUnits="userSpaceOnUse" patternTransform="matrix(-1.0136e-07 -4 8 -6.03217e-07 -0.5 317.502)" preserveAspectRatio="none" viewBox="0 0 4 8" width="1" height="1">
<g id="pattern10_525_4293_inner">
<line x1="0.75" y1="-0.75" x2="7.25" y2="-0.75" transform="matrix(4.37114e-08 1 1 -4.37114e-08 2.75 0)" stroke="#9ECBFF" stroke-width="1.5" stroke-linecap="square"/>
</g>
</pattern><pattern id="pattern11_525_4293" patternUnits="userSpaceOnUse" patternTransform="matrix(-4 1.0285e-07 -2.3779e-06 -8 143.5 325.502)" preserveAspectRatio="none" viewBox="0 0 4 8" width="1" height="1">
<g id="pattern11_525_4293_inner">
<line x1="0.75" y1="-0.75" x2="7.25" y2="-0.75" transform="matrix(4.37114e-08 1 1 -4.37114e-08 2.75 0)" stroke="#9ECBFF" stroke-width="1.5" stroke-linecap="square"/>
</g>
</pattern><pattern id="pattern12_525_4293" patternUnits="userSpaceOnUse" patternTransform="matrix(-1.0136e-07 -4 8 -6.03217e-07 143.5 317.502)" preserveAspectRatio="none" viewBox="0 0 4 8" width="1" height="1">
<g id="pattern12_525_4293_inner">
<line x1="0.75" y1="-0.75" x2="7.25" y2="-0.75" transform="matrix(4.37114e-08 1 1 -4.37114e-08 2.75 0)" stroke="#9ECBFF" stroke-width="1.5" stroke-linecap="square"/>
</g>
</pattern><pattern id="pattern13_525_4293" patternUnits="userSpaceOnUse" patternTransform="matrix(-4 1.0285e-07 -2.3779e-06 -8 143.5 248.502)" preserveAspectRatio="none" viewBox="0 0 4 8" width="1" height="1">
<g id="pattern13_525_4293_inner">
<line x1="0.75" y1="-0.75" x2="7.25" y2="-0.75" transform="matrix(4.37114e-08 1 1 -4.37114e-08 2.75 0)" stroke="#9ECBFF" stroke-width="1.5" stroke-linecap="square"/>
</g>
</pattern><pattern id="pattern14_525_4293" patternUnits="userSpaceOnUse" patternTransform="matrix(4 0 0 8 73.5 114.751)" preserveAspectRatio="none" viewBox="0 0 4 8" width="1" height="1">
<g id="pattern14_525_4293_inner">
<line x1="0.75" y1="-0.75" x2="7.25" y2="-0.75" transform="matrix(4.37114e-08 1 1 -4.37114e-08 2.75 0)" stroke="#9ECBFF" stroke-width="1.5" stroke-linecap="square"/>
</g>
</pattern><pattern id="pattern15_525_4293" patternUnits="userSpaceOnUse" patternTransform="matrix(4 0 0 8 73.5 142.001)" preserveAspectRatio="none" viewBox="0 0 4 8" width="1" height="1">
<g id="pattern15_525_4293_inner">
<line x1="0.75" y1="-0.75" x2="7.25" y2="-0.75" transform="matrix(4.37114e-08 1 1 -4.37114e-08 2.75 0)" stroke="#9ECBFF" stroke-width="1.5" stroke-linecap="square"/>
</g>
</pattern><pattern id="pattern16_525_4293" patternUnits="userSpaceOnUse" patternTransform="matrix(4 0 0 8 73.5 182.001)" preserveAspectRatio="none" viewBox="0 0 4 8" width="1" height="1">
<g id="pattern16_525_4293_inner">
<line x1="0.75" y1="-0.75" x2="7.25" y2="-0.75" transform="matrix(4.37114e-08 1 1 -4.37114e-08 2.75 0)" stroke="#9ECBFF" stroke-width="1.5" stroke-linecap="square"/>
</g>
</pattern><pattern id="pattern17_525_4293" patternUnits="userSpaceOnUse" patternTransform="matrix(4 0 0 8 73.5 209.251)" preserveAspectRatio="none" viewBox="0 0 4 8" width="1" height="1">
<g id="pattern17_525_4293_inner">
<line x1="0.75" y1="-0.75" x2="7.25" y2="-0.75" transform="matrix(4.37114e-08 1 1 -4.37114e-08 2.75 0)" stroke="#9ECBFF" stroke-width="1.5" stroke-linecap="square"/>
</g>
</pattern></defs>
</svg>
