<svg width="543" height="255" viewBox="0 0 543 255" fill="none" xmlns="http://www.w3.org/2000/svg">
<g clip-path="url(#clip0_625_2853)">
<mask id="mask0_625_2853" style="mask-type:luminance" maskUnits="userSpaceOnUse" x="0" y="0" width="543" height="255">
<rect width="543" height="255" fill="url(#paint0_radial_625_2853)"/>
</mask>
<g mask="url(#mask0_625_2853)">
<path d="M8 171L173 171" stroke="#9ECBFF" stroke-width="1.5" stroke-linecap="square" stroke-dasharray="4 4"/>
<rect y="173" width="4" height="4" transform="rotate(-90 0 173)" fill="#9ECBFF"/>
<rect x="177" y="173" width="4" height="4" transform="rotate(-90 177 173)" fill="#9ECBFF"/>
<path d="M371 171L535 171" stroke="#9ECBFF" stroke-width="1.5" stroke-linecap="square" stroke-dasharray="4 4"/>
<rect x="363" y="173" width="4" height="4" transform="rotate(-90 363 173)" fill="#9ECBFF"/>
<rect x="539" y="173" width="4" height="4" transform="rotate(-90 539 173)" fill="#9ECBFF"/>
<path d="M270 171L279 171" stroke="#9ECBFF" stroke-width="1.5" stroke-linecap="square" stroke-dasharray="4 4"/>
<rect x="262" y="173" width="4" height="4" transform="rotate(-90 262 173)" fill="#9ECBFF"/>
<rect x="283" y="173" width="4" height="4" transform="rotate(-90 283 173)" fill="#9ECBFF"/>
<path d="M253.897 174.38L248.313 150.124C248.163 149.497 247.875 148.91 247.471 148.407C247.066 147.904 246.556 147.497 245.975 147.216L223.372 136.425C222.786 136.145 222.145 136 221.496 136C220.846 136 220.205 136.145 219.62 136.425L197.018 147.222C196.438 147.504 195.927 147.91 195.522 148.413C195.118 148.916 194.83 149.502 194.679 150.129L189.105 174.387C188.979 174.946 188.966 175.525 189.067 176.089C189.168 176.653 189.38 177.192 189.691 177.673C189.768 177.79 189.849 177.904 189.937 178.014L205.581 197.465C205.991 197.966 206.506 198.369 207.09 198.648C207.674 198.927 208.312 199.073 208.959 199.077L234.046 199.071C234.692 199.067 235.33 198.921 235.914 198.643C236.498 198.365 237.014 197.961 237.424 197.461L253.062 178.009C253.463 177.504 253.745 176.917 253.89 176.289C254.034 175.662 254.037 175.01 253.897 174.381V174.38ZM251.195 175.516C251.157 175.688 251.108 175.857 251.049 176.022C250.905 176.425 250.695 176.801 250.429 177.135L236.532 194.421L236.096 194.965C235.827 195.296 235.505 195.58 235.144 195.807C235.005 195.896 234.86 195.977 234.711 196.048C234.61 196.095 234.508 196.137 234.404 196.175C234.271 196.225 234.135 196.269 233.998 196.305C233.806 196.357 233.611 196.394 233.413 196.417C233.276 196.432 233.137 196.44 232.999 196.441L210.229 196.446H210.005C209.665 196.444 209.326 196.397 208.998 196.307C208.598 196.201 208.216 196.035 207.865 195.814C207.588 195.638 207.334 195.427 207.109 195.188C207.04 195.116 206.971 195.045 206.909 194.967L192.57 177.14C192.49 177.04 192.415 176.935 192.345 176.827C192.183 176.576 192.051 176.307 191.951 176.026C191.892 175.861 191.843 175.692 191.806 175.521C191.681 174.959 191.682 174.376 191.808 173.814L196.918 151.581C197.056 151.006 197.319 150.469 197.69 150.008C198.061 149.547 198.529 149.175 199.061 148.917L219.776 139.02C220.313 138.764 220.901 138.631 221.496 138.631C222.091 138.631 222.678 138.764 223.215 139.02L243.933 148.912C244.465 149.17 244.934 149.543 245.304 150.004C245.675 150.465 245.938 151.003 246.076 151.578L251.194 173.811C251.32 174.372 251.321 174.955 251.195 175.517V175.516Z" fill="#B8D9FF"/>
<path d="M242.265 172.03C242.159 172.005 242.008 171.964 241.904 171.945C241.51 171.89 241.113 171.858 240.716 171.849C239.964 171.8 239.219 171.678 238.491 171.484C238.267 171.357 238.082 171.171 237.957 170.946L237.456 170.8C237.991 166.889 237.072 162.919 234.874 159.641C235.002 159.524 235.244 159.31 235.313 159.246C235.296 158.991 235.379 158.739 235.546 158.544C236.117 158.054 236.734 157.62 237.39 157.249C237.744 157.068 238.089 156.868 238.42 156.648C238.5 156.588 238.609 156.494 238.693 156.427C238.84 156.333 238.966 156.209 239.063 156.064C239.159 155.918 239.224 155.754 239.252 155.581C239.281 155.409 239.273 155.233 239.23 155.064C239.186 154.894 239.107 154.736 238.998 154.6C238.889 154.463 238.753 154.351 238.598 154.27C238.443 154.19 238.273 154.143 238.098 154.132C237.924 154.122 237.749 154.148 237.586 154.209C237.422 154.271 237.273 154.366 237.149 154.488C237.064 154.555 236.949 154.642 236.874 154.708C236.584 154.98 236.311 155.27 236.054 155.574C235.548 156.131 234.988 156.638 234.383 157.087C234.145 157.184 233.884 157.212 233.631 157.168L233.159 157.505C230.444 154.656 226.786 152.889 222.867 152.532C222.855 152.368 222.841 152.069 222.837 151.979C222.626 151.833 222.481 151.61 222.432 151.359C222.406 150.606 222.453 149.853 222.572 149.11C222.651 148.72 222.708 148.327 222.741 147.931C222.745 147.831 222.739 147.686 222.739 147.578C222.757 147.405 222.738 147.23 222.683 147.064C222.629 146.899 222.54 146.746 222.423 146.617C222.306 146.488 222.164 146.385 222.005 146.314C221.845 146.243 221.673 146.207 221.499 146.207C221.324 146.207 221.152 146.244 220.993 146.315C220.834 146.385 220.691 146.489 220.574 146.618C220.458 146.747 220.369 146.9 220.315 147.065C220.261 147.231 220.242 147.406 220.259 147.579C220.259 147.591 220.262 147.602 220.262 147.614C220.261 147.717 220.256 147.841 220.259 147.931C220.293 148.327 220.35 148.721 220.429 149.111C220.547 149.854 220.594 150.607 220.567 151.359C220.496 151.607 220.357 151.83 220.164 152.001L220.135 152.525C219.38 152.588 218.631 152.703 217.893 152.87C214.792 153.571 211.971 155.183 209.792 157.498C209.641 157.394 209.492 157.288 209.344 157.18C209.098 157.254 208.834 157.228 208.607 157.109C208.002 156.661 207.442 156.155 206.936 155.599C206.681 155.294 206.408 155.005 206.12 154.732C206.044 154.667 205.929 154.579 205.844 154.512C205.598 154.313 205.295 154.199 204.98 154.186C204.792 154.176 204.605 154.21 204.434 154.286C204.262 154.362 204.111 154.478 203.992 154.623C203.791 154.906 203.71 155.258 203.767 155.6C203.824 155.943 204.015 156.249 204.297 156.451L204.316 156.465C204.397 156.531 204.497 156.616 204.572 156.671C204.903 156.891 205.246 157.092 205.6 157.273C206.255 157.644 206.873 158.078 207.444 158.569C207.592 158.779 207.679 159.027 207.693 159.284L208.09 159.639C205.898 162.929 204.997 166.912 205.56 170.825L205.041 170.976C204.906 171.192 204.724 171.375 204.508 171.512C203.781 171.707 203.037 171.829 202.286 171.879C201.888 171.888 201.491 171.92 201.096 171.975C201.001 171.992 200.869 172.026 200.765 172.052L200.754 172.054L200.737 172.059C200.565 172.082 200.4 172.14 200.252 172.23C200.104 172.32 199.976 172.44 199.877 172.582C199.778 172.724 199.71 172.886 199.677 173.056C199.644 173.226 199.647 173.401 199.685 173.57C199.724 173.739 199.797 173.898 199.901 174.037C200.004 174.175 200.136 174.291 200.286 174.376C200.437 174.462 200.604 174.515 200.776 174.532C200.949 174.549 201.123 174.529 201.287 174.475L201.306 174.472C201.314 174.471 201.321 174.467 201.329 174.465C201.432 174.442 201.56 174.417 201.65 174.393C202.029 174.272 202.4 174.13 202.763 173.967C203.461 173.685 204.185 173.472 204.924 173.33C205.181 173.346 205.428 173.433 205.637 173.582L206.178 173.49C207.391 177.239 209.935 180.414 213.329 182.417L213.103 182.958C213.208 183.176 213.246 183.42 213.214 183.659C212.904 184.366 212.529 185.041 212.091 185.676C211.851 185.993 211.629 186.324 211.426 186.666C211.377 186.76 211.314 186.903 211.267 187.001C211.178 187.15 211.12 187.316 211.099 187.488C211.077 187.661 211.092 187.836 211.143 188.002C211.193 188.168 211.277 188.322 211.391 188.454C211.504 188.586 211.644 188.692 211.801 188.767C211.958 188.841 212.129 188.882 212.302 188.887C212.476 188.891 212.649 188.859 212.809 188.793C212.97 188.727 213.115 188.628 213.235 188.502C213.355 188.376 213.447 188.227 213.506 188.063L213.508 188.061V188.058C213.555 187.961 213.622 187.834 213.662 187.743C213.803 187.371 213.922 186.992 214.019 186.607C214.234 185.823 214.557 185.073 214.98 184.379C215.127 184.24 215.314 184.149 215.514 184.118L215.795 183.61C219.476 185.025 223.549 185.036 227.237 183.639C227.316 183.779 227.463 184.048 227.502 184.116C227.755 184.156 227.982 184.294 228.135 184.501C228.486 185.166 228.771 185.864 228.986 186.585C229.084 186.971 229.205 187.35 229.346 187.722C229.386 187.813 229.452 187.942 229.5 188.04C229.558 188.203 229.65 188.353 229.77 188.479C229.89 188.605 230.035 188.704 230.196 188.77C230.356 188.837 230.529 188.869 230.703 188.865C230.877 188.861 231.048 188.82 231.205 188.746C231.362 188.671 231.502 188.565 231.615 188.434C231.729 188.302 231.814 188.148 231.864 187.982C231.915 187.815 231.93 187.64 231.909 187.468C231.888 187.295 231.83 187.129 231.741 186.98C231.694 186.882 231.629 186.739 231.58 186.646C231.377 186.304 231.155 185.974 230.915 185.658C230.485 185.039 230.117 184.38 229.815 183.689C229.75 183.443 229.784 183.18 229.911 182.958C229.831 182.796 229.762 182.629 229.704 182.458C233.109 180.439 235.653 177.238 236.852 173.466C237.012 173.491 237.291 173.54 237.382 173.559C237.571 173.386 237.82 173.293 238.075 173.301C238.815 173.442 239.539 173.655 240.238 173.937C240.6 174.102 240.972 174.245 241.351 174.367C241.44 174.39 241.568 174.413 241.671 174.435C241.679 174.437 241.687 174.441 241.695 174.443L241.713 174.446C241.877 174.5 242.051 174.519 242.224 174.502C242.396 174.485 242.563 174.432 242.714 174.347C242.864 174.262 242.996 174.146 243.099 174.007C243.202 173.868 243.276 173.709 243.314 173.541C243.353 173.372 243.356 173.197 243.323 173.027C243.29 172.857 243.222 172.696 243.123 172.553C243.024 172.411 242.897 172.291 242.749 172.201C242.601 172.111 242.436 172.053 242.265 172.03ZM230.483 159.4L225.184 163.157L225.166 163.148C225.006 163.265 224.818 163.336 224.621 163.354C224.424 163.372 224.226 163.336 224.048 163.251C223.87 163.165 223.718 163.033 223.609 162.868C223.5 162.703 223.438 162.512 223.429 162.315L223.423 162.312L223.055 155.818C225.856 156.166 228.466 157.424 230.483 159.4H230.483ZM220.501 166.518H222.495L223.735 168.069L223.29 170.002L221.499 170.864L219.703 170L219.258 168.066L220.501 166.518ZM218.625 156.045C219.062 155.947 219.503 155.871 219.948 155.818L219.579 162.322L219.552 162.335C219.544 162.532 219.482 162.724 219.373 162.889C219.265 163.054 219.113 163.187 218.935 163.273C218.757 163.359 218.559 163.395 218.363 163.377C218.166 163.359 217.977 163.289 217.817 163.172L217.807 163.178L212.473 159.397C214.171 157.728 216.302 156.567 218.625 156.045ZM210.539 161.827L215.409 166.182L215.404 166.209C215.553 166.339 215.664 166.507 215.725 166.695C215.787 166.883 215.796 167.084 215.752 167.277C215.707 167.47 215.612 167.647 215.475 167.79C215.338 167.933 215.165 168.036 214.974 168.088L214.969 168.109L208.727 169.91C208.416 167.089 209.054 164.245 210.539 161.827ZM217.059 173.397L214.579 179.389C212.199 177.866 210.388 175.599 209.427 172.941L215.827 171.854L215.838 171.869C215.908 171.855 215.98 171.849 216.052 171.849C216.232 171.852 216.408 171.899 216.565 171.986C216.722 172.073 216.855 172.197 216.953 172.347C217.051 172.498 217.11 172.67 217.125 172.849C217.14 173.028 217.111 173.208 217.041 173.373L217.059 173.397ZM224.379 181.103C222.059 181.635 219.636 181.511 217.383 180.744L220.53 175.052H220.535C220.629 174.878 220.768 174.733 220.937 174.632C221.107 174.53 221.3 174.477 221.498 174.477C221.695 174.476 221.889 174.53 222.059 174.631C222.229 174.732 222.368 174.877 222.462 175.051H222.485L225.641 180.751C225.231 180.888 224.811 181.006 224.379 181.104V181.103ZM228.446 179.414L225.94 173.36L225.948 173.349C225.837 173.09 225.83 172.798 225.928 172.534C226.027 172.27 226.224 172.055 226.478 171.932C226.608 171.868 226.751 171.831 226.896 171.823C226.98 171.819 227.065 171.826 227.147 171.842L227.158 171.828L233.615 172.919C232.662 175.599 230.843 177.884 228.446 179.414ZM234.293 169.889L228.02 168.082L228.014 168.055C227.824 168.003 227.651 167.9 227.514 167.757C227.378 167.614 227.283 167.437 227.239 167.244C227.195 167.051 227.204 166.85 227.265 166.662C227.326 166.474 227.436 166.307 227.585 166.177L227.583 166.164L232.425 161.83C233.908 164.242 234.564 167.071 234.293 169.889L234.293 169.889Z" fill="#B8D9FF"/>
<path d="M273.5 125.539V131.539" stroke="#9ECBFF" stroke-width="1.5"/>
<path d="M280.57 128.467L276.328 132.709" stroke="#9ECBFF" stroke-width="1.5"/>
<path d="M283.5 135.539H277.5" stroke="#9ECBFF" stroke-width="1.5"/>
<path d="M280.572 142.609L276.329 138.367" stroke="#9ECBFF" stroke-width="1.5"/>
<path d="M273.5 145.539V139.539" stroke="#9ECBFF" stroke-width="1.5"/>
<path d="M266.43 142.611L270.672 138.369" stroke="#9ECBFF" stroke-width="1.5"/>
<path d="M263.5 135.539H269.5" stroke="#9ECBFF" stroke-width="1.5"/>
<path d="M266.428 128.469L270.671 132.711" stroke="#9ECBFF" stroke-width="1.5"/>
<path d="M325 137.538C341.568 137.538 355 150.97 355 167.538C355 184.107 341.568 197.538 325 197.538C308.432 197.538 295 184.107 295 167.538C295 150.97 308.431 137.538 325 137.538ZM315.764 164.606C313.218 164.606 311.351 166.609 311.351 169.273C311.351 171.938 313.218 173.94 315.764 173.94C318.309 173.94 320.177 171.938 320.177 169.273C320.177 166.609 318.309 164.606 315.764 164.606ZM329.954 164.775H327.969V166.235H329.954V171.056C329.954 173.041 331.108 173.94 332.771 173.94C333.315 173.94 333.773 173.856 334.299 173.618V172.107C333.942 172.277 333.586 172.345 333.179 172.345C332.262 172.345 331.668 171.904 331.668 170.665V166.235H334.384V164.775H331.668V162.111H329.954V164.775ZM339.59 164.606C337.112 164.606 335.296 166.558 335.296 169.223C335.296 172.057 337.044 173.94 339.641 173.94C341.762 173.94 343.307 172.736 343.748 170.733H342.051C341.762 171.904 340.879 172.601 339.606 172.601C338.096 172.6 337.18 171.531 337.044 169.698H343.748C344.054 166.779 342.271 164.607 339.59 164.606ZM327.151 164.657C325.675 164.657 324.316 165.438 323.688 166.677V164.776H322.094V173.771H323.808V169.172C323.808 167.186 325.217 166.338 327.151 166.439V164.657ZM350.798 164.657C349.321 164.657 347.963 165.438 347.335 166.677V164.776H345.74V173.771H347.454V169.172C347.454 167.186 348.863 166.338 350.798 166.439V164.657ZM301.537 161.585V173.771H303.404V169.527H305.763C308.495 169.527 310.261 168.085 310.261 165.522C310.261 162.977 308.495 161.585 305.763 161.585H301.537ZM315.764 166.134C317.24 166.134 318.411 167.305 318.411 169.273C318.411 171.242 317.24 172.431 315.764 172.431C314.287 172.431 313.133 171.242 313.133 169.273C313.133 167.305 314.287 166.134 315.764 166.134ZM339.556 165.896C340.947 165.896 341.847 166.897 341.932 168.561H337.061C337.247 166.881 338.181 165.897 339.556 165.896ZM305.746 163.163C307.392 163.163 308.393 164.029 308.394 165.539C308.394 167.05 307.392 167.949 305.746 167.949H303.404V163.163H305.746Z" fill="#B8D9FF"/>
<path d="M231.732 124.072L239.732 110.216" stroke="#9ECBFF" stroke-width="1.5" stroke-linecap="square" stroke-dasharray="4 4"/>
<rect x="229.464" y="132" width="4" height="4" transform="rotate(-150 229.464 132)" fill="#9ECBFF"/>
<rect x="243.464" y="107.751" width="4" height="4" transform="rotate(-150 243.464 107.751)" fill="#9ECBFF"/>
<path d="M311.214 124.072L303.214 110.216" stroke="#9ECBFF" stroke-width="1.5" stroke-linecap="square" stroke-dasharray="4 4"/>
<rect width="4" height="4" transform="matrix(0.866025 -0.5 -0.5 -0.866025 313.482 132)" fill="#9ECBFF"/>
<rect width="4" height="4" transform="matrix(0.866025 -0.5 -0.5 -0.866025 299.482 107.751)" fill="#9ECBFF"/>
<path d="M271.482 48C288.051 48 301.482 61.4315 301.482 78C301.482 94.5684 288.05 108 271.482 108C254.914 108 241.482 94.5684 241.482 78C241.482 61.4315 254.914 48 271.482 48ZM257.355 94.4375H271.289V63.8564H257.355V94.4375ZM274.048 63.8564V77.9824H287.859V63.8564H274.048Z" fill="#B8D9FF"/>
</g>
</g>
<defs>
<radialGradient id="paint0_radial_625_2853" cx="0" cy="0" r="1" gradientUnits="userSpaceOnUse" gradientTransform="translate(267.211 147.5) rotate(90) scale(183 295.741)">
<stop offset="0.423211" stop-color="white"/>
<stop offset="1"/>
</radialGradient>
<clipPath id="clip0_625_2853">
<rect width="543" height="255" rx="4" fill="white"/>
</clipPath>
</defs>
</svg>
